<?xml version="1.0" encoding="utf-8"?>
<!-- Generator: Adobe Illustrator 24.3.0, SVG Export Plug-In . SVG Version: 6.00 Build 0)  -->
<svg version="1.1" id="Layer_1" xmlns="http://www.w3.org/2000/svg" xmlns:xlink="http://www.w3.org/1999/xlink" x="0px" y="0px"
	 viewBox="0 0 636 300" style="enable-background:new 0 0 636 300;" xml:space="preserve">
<style type="text/css">
	.st0{fill:#C5D43B;}
	.st1{fill:#8B9B23;}
	.st2{fill:#78881B;}
	.st3{fill:#FFFFFF;}
	.st4{fill:#95A258;}
	.st5{fill:#819041;}
	.st6{fill:#2ECCEF;}
	.st7{fill:#0B7891;}
	.st8{fill:#1595B2;}
	.st9{fill:#B3AFAB;}
	.st10{fill:#797672;}
	.st11{fill:#908D89;}
	.st12{fill:#DDDBDA;}
	.st13{fill:#BBB8B4;}
	.st14{fill:#CC5444;}
	.st15{fill:#BBACEF;}
	.st16{fill:#3E8EED;}
	.st17{fill:#7354DD;}
	.st18{fill:#A3C9F6;}
	.st19{fill:#0064DA;}
	.st20{fill:#FCCF84;}
	.st21{fill:#F7B548;}
	.st22{fill:#E29E3B;}
	.st23{fill:#BDD8F9;}
	.st24{fill:#8DBCF4;}
	.st25{fill:#549BEF;}
	.st26{fill:#F4AC99;}
	.st27{fill:#E86E58;}
	.st28{fill:#A08BE8;}
	.st29{fill:#70D6E0;}
	.st30{fill:#28C2D1;}
	.st31{fill:#CFF1F5;}
	.st32{fill:#FDC9B5;}
	.st33{fill:#EA7F6B;}
	.st34{fill:#98C2F5;}
	.st35{fill:#D8E8FB;}
	.st36{fill:#FEDEA7;}
	.st37{fill:#A7A4A0;}
	.st38{fill:#6D6A66;}
	.st39{fill:#56534F;}
	.st40{fill:#8A6FE8;}
	.st41{fill:url(#SVGID_1_);}
	.st42{fill:url(#SVGID_2_);}
	.st43{fill:url(#SVGID_3_);}
	.st44{fill:#522CD5;}
	.st45{fill:url(#SVGID_4_);}
	.st46{fill:url(#SVGID_5_);}
	.st47{fill:url(#SVGID_6_);}
	.st48{fill:url(#SVGID_7_);}
	.st49{fill:url(#SVGID_8_);}
	.st50{fill:url(#SVGID_9_);}
	.st51{fill:url(#SVGID_10_);}
	.st52{fill:url(#SVGID_11_);}
	.st53{fill:#512BD4;}
	.st54{fill:#D8CFF7;}
	.st55{fill:url(#SVGID_12_);}
	.st56{fill:#8065E0;}
	.st57{fill:url(#SVGID_13_);}
	.st58{fill:url(#SVGID_14_);}
	.st59{fill:url(#SVGID_15_);}
	.st60{fill:#E6E4E3;}
	.st61{fill:#4995EE;}
	.st62{fill:#76AFF2;}
	.st63{fill:#FAF9F8;}
	.st64{fill:#60DEFA;}
	.st65{fill:#19A0BF;}
	.st66{fill:#ED9583;}
	.st67{fill:#BF453C;}
	.st68{fill:#33D5F9;}
	.st69{fill:url(#SVGID_16_);}
	.st70{fill:#57AA9A;}
	.st71{fill:url(#SVGID_17_);}
	.st72{fill:url(#SVGID_18_);}
	.st73{fill:#C4832D;}
	.st74{fill:url(#SVGID_19_);}
	.st75{fill:#1DACCC;}
	.st76{fill:#BBF1FD;}
	.st77{fill:url(#SVGID_20_);}
	.st78{fill:url(#SVGID_21_);}
	.st79{fill:url(#SVGID_22_);}
	.st80{fill:url(#SVGID_23_);}
	.st81{fill:url(#SVGID_24_);}
	.st82{fill:url(#SVGID_25_);}
	.st83{fill:url(#SVGID_26_);}
	.st84{fill:url(#SVGID_27_);}
	.st85{fill:url(#SVGID_28_);}
	.st86{fill:url(#SVGID_29_);}
	.st87{fill:url(#SVGID_30_);}
	.st88{fill:url(#SVGID_31_);}
	.st89{fill:url(#SVGID_32_);}
	.st90{fill:url(#SVGID_33_);}
	.st91{fill:#A36623;}
	.st92{fill:#FFE5B9;}
	.st93{fill:#92D5CD;}
	.st94{fill:#45897C;}
	.st95{fill:#D5D3D0;}
	.st96{fill:url(#SVGID_34_);}
	.st97{fill:#9C9894;}
	.st98{fill:#4A4844;}
	.st99{fill:url(#SVGID_35_);}
	.st100{fill:url(#SVGID_36_);}
	.st101{fill:url(#SVGID_37_);}
	.st102{fill:url(#SVGID_38_);}
	.st103{fill:url(#SVGID_39_);}
	.st104{fill:url(#SVGID_40_);}
	.st105{fill:url(#SVGID_41_);}
	.st106{fill:url(#SVGID_42_);}
	.st107{fill:url(#SVGID_43_);}
	.st108{fill:url(#SVGID_44_);}
	.st109{fill:url(#SVGID_45_);}
	.st110{fill:#8577E5;}
	.st111{fill:url(#SVGID_46_);}
	.st112{fill:url(#SVGID_47_);}
	.st113{fill:#605D5A;}
	.st114{fill:url(#SVGID_48_);}
	.st115{fill:#CCCAC7;}
	.st116{fill:#625F5B;}
</style>
<g>
	
		<radialGradient id="SVGID_1_" cx="362.1854" cy="192.0234" r="121.7266" gradientTransform="matrix(1 0 0 0.99 0 1.9202)" gradientUnits="userSpaceOnUse">
		<stop  offset="0.1169" style="stop-color:#D8E8FB"/>
		<stop  offset="0.9695" style="stop-color:#B8D6F7"/>
	</radialGradient>
	<path class="st41" d="M445.07,151.28c0.01-0.12,0.05-0.25,0.06-0.37c2.77-26.2-17.76-47.45-45.84-47.49
		c-9.2-0.01-18.02,2.29-25.86,6.26c-5.12-26.15-28.79-45.32-59.29-45.35c-29.85-0.03-57.08,18.31-68.21,43.55
		c-17.07-9.26-59.04,5.01-46,44.3c-19.74-0.77-50.21,13.03-37.64,58.33c156.01-6.33,256.61-11.24,311.22-11.99
		c1.51-2.1,4-5.93,4.75-12.84C480.3,166.7,465.39,151.31,445.07,151.28z"/>
	<rect x="266.38" y="106.75" class="st13" width="2.92" height="84.59"/>
	<rect x="313.35" y="91.8" class="st13" width="2.92" height="99.54"/>
	<rect x="360.32" y="70.07" class="st13" width="2.92" height="121.27"/>
	<rect x="407.28" y="90.48" class="st13" width="2.92" height="100.87"/>
	<path class="st97" d="M266.38,206.17c58.4-2.47,106.02-4.51,143.72-5.88v-22.68H266.38V206.17z"/>
	<path class="st9" d="M410.1,200.29c9.58-0.35,18.52-0.65,26.83-0.91v-26.26l-26.83,4.49V200.29z"/>
	<rect x="267.81" y="129.15" class="st13" width="140.45" height="2.92"/>
	<rect x="251.79" y="152.95" class="st13" width="157.2" height="2.92"/>
	<g>
		<path class="st40" d="M532.16,202.77l-4.95,5.56c-1.33,1.47-3.6,1.59-5.08,0.26c-1.47-1.33-1.59-3.6-0.26-5.08l6.1-6.71
			L532.16,202.77z"/>
		<path class="st98" d="M546.96,213.16l-25.29,6.47c-0.72,0.18-1.46-0.25-1.64-0.97l-2.69-10.53c-0.18-0.72,0.25-1.46,0.97-1.64
			l25.29-6.47c0.72-0.18,1.46,0.25,1.64,0.97l2.69,10.53C548.12,212.24,547.68,212.98,546.96,213.16z"/>
		<path class="st98" d="M509.53,217.54l14.76-3.77c0.51-0.13,1.03,0.18,1.16,0.69l0,0c0.13,0.51-0.18,1.03-0.69,1.16L510,219.39
			c-0.51,0.13-1.03-0.18-1.16-0.69l0,0C508.71,218.19,509.02,217.67,509.53,217.54z"/>
		<path class="st98" d="M520.74,212.57l-3.14,0.8c-0.37,0.09-0.74-0.13-0.84-0.5l-0.7-2.72c-0.09-0.37,0.13-0.74,0.5-0.84l3.14-0.8
			c0.37-0.09,0.74,0.13,0.84,0.5l0.7,2.72C521.33,212.1,521.11,212.48,520.74,212.57z"/>
		
			<linearGradient id="SVGID_2_" gradientUnits="userSpaceOnUse" x1="475.6519" y1="-293.0033" x2="469.3115" y2="-323.1967" gradientTransform="matrix(1 0 0 -1 0 -108)">
			<stop  offset="0.1342" style="stop-color:#522CD5"/>
			<stop  offset="0.53" style="stop-color:#8A6FE8"/>
		</linearGradient>
		<path class="st42" d="M466.11,214.52c-0.07-6.34,0.83-19.2,7.37-29.97l6.4,3.88c-5.94,9.77-6.38,21.17-6.24,26.15
			C473.65,214.99,469.81,215.36,466.11,214.52z"/>
		<path class="st44" d="M473.63,214.51l-5.92-0.03l-5.53,31.68l11.89,0.05c0.91,0,1.59-0.73,1.53-1.63L473.63,214.51z"/>
		
			<linearGradient id="SVGID_3_" gradientUnits="userSpaceOnUse" x1="471.8291" y1="-322.2911" x2="452.9933" y2="-355.8718" gradientTransform="matrix(1 0 0 -1 0 -108)">
			<stop  offset="0" style="stop-color:#522CD5"/>
			<stop  offset="0.4397" style="stop-color:#8A6FE8"/>
		</linearGradient>
		<path class="st43" d="M449.5,237.83c-1.03,0.81-1.01,1.98-0.93,3.22l0.25,3.8c0.05,0.68,0.64,1.24,1.32,1.24l12.39,0.05
			c0.77,0,1.35-0.62,1.3-1.39l-0.08-3.93c-0.09-1.43,0.39-1.95,1.49-3.3c1.9-2.3,7.5-14.85,6.97-23.02l-6.1-0.03
			C465.7,219.33,459.3,230.1,449.5,237.83z"/>
		
			<radialGradient id="SVGID_4_" cx="27.6714" cy="282.6537" r="0.3048" gradientTransform="matrix(-42.8218 -0.1951 -0.1951 42.8218 1696.8683 -11865.9863)" gradientUnits="userSpaceOnUse">
			<stop  offset="0.034" style="stop-color:#522CD5"/>
			<stop  offset="0.9955" style="stop-color:#8A6FE8"/>
		</radialGradient>
		<path class="st45" d="M448.57,241.05c-0.06-0.87-0.07-1.69,0.27-2.4l15.45,0.07c-0.43,0.63-0.61,1.18-0.55,2.09l0.08,3.93
			c0.05,0.77-0.53,1.39-1.3,1.39l-12.39-0.05c-0.68,0-1.27-0.56-1.32-1.24L448.57,241.05z"/>
		
			<linearGradient id="SVGID_5_" gradientUnits="userSpaceOnUse" x1="501.1236" y1="-292.5404" x2="493.8355" y2="-326.8322" gradientTransform="matrix(1 0 0 -1 0 -108)">
			<stop  offset="0.1194" style="stop-color:#522CD5"/>
			<stop  offset="0.5181" style="stop-color:#8A6FE8"/>
		</linearGradient>
		<path class="st46" d="M495.83,219.26l7.56-0.94l-4.25-34.2l-7.56,0.94L495.83,219.26z"/>
		<path class="st44" d="M502.84,214.26l-5.99-0.03l-1.66,32.03l12.03,0.05c0.91,0,1.52-0.73,1.34-1.65L502.84,214.26z"/>
		
			<linearGradient id="SVGID_6_" gradientUnits="userSpaceOnUse" x1="506.9149" y1="-325.1983" x2="490.5803" y2="-356.328" gradientTransform="matrix(1 0 0 -1 0 -108)">
			<stop  offset="0" style="stop-color:#522CD5"/>
			<stop  offset="0.4397" style="stop-color:#8A6FE8"/>
		</linearGradient>
		<path class="st47" d="M485.42,237.95c-0.92,0.84-0.9,1.91-0.66,3.16l0.72,3.84c0.13,0.69,0.8,1.25,1.48,1.25l17.2,0.08
			c0.78,0,1.29-0.62,1.15-1.41l-0.61-3.98c-0.27-1.44-0.06-1.87-0.09-3.73c-0.05-3.48-1.66-14.66-3.21-22.92l-6.17-0.03
			C495.42,219.13,493.29,230.82,485.42,237.95z"/>
		
			<radialGradient id="SVGID_7_" cx="28.8024" cy="283.8159" r="0.3048" gradientTransform="matrix(-46.6041 -0.2123 -0.2121 46.5548 1896.7196 -12974.5605)" gradientUnits="userSpaceOnUse">
			<stop  offset="0.034" style="stop-color:#522CD5"/>
			<stop  offset="0.9955" style="stop-color:#8A6FE8"/>
		</radialGradient>
		<path class="st48" d="M504.7,240.9l0.61,3.98c0.15,0.78-0.37,1.41-1.15,1.41l-17.2-0.08c-0.69,0-1.36-0.57-1.48-1.25l-0.72-3.84
			c-0.17-0.91-0.22-1.72,0.11-2.42l19.71,0.09C504.55,239.49,504.53,240,504.7,240.9z"/>
		<path class="st40" d="M461.02,166.32l0.12-7.32c-9.21-0.16-16.05-2.89-20.31-8.13c-7.72-9.5-5.01-24.25-4.98-24.4l-7.18-1.37
			c-0.14,0.74-3.36,18.28,6.49,30.39C440.84,162.48,449.55,166.13,461.02,166.32z"/>
		
			<radialGradient id="SVGID_8_" cx="18.8034" cy="294.6168" r="0.3048" gradientTransform="matrix(-128.6128 -21.3817 -21.3817 128.6128 9200.0967 -37338.9102)" gradientUnits="userSpaceOnUse">
			<stop  offset="0.4744" style="stop-color:#A08BE8"/>
			<stop  offset="0.8618" style="stop-color:#8065E0"/>
		</radialGradient>
		<path class="st49" d="M449.61,163.51c-0.94-10.42,2.06-18.11,2.06-18.11l-2.35-0.39l-0.05-0.05
			c6.41-17.77,24.77-28.98,44.07-25.77c21.74,3.62,36.44,24.17,32.82,45.91s-24.17,36.44-45.91,32.82
			c-17.16-2.85-29.92-16.25-32.77-32.46C447.44,164.77,447.65,163.61,449.61,163.51z"/>
		<path class="st54" d="M449.54,172.84l67.88,11.29c-1.95,2.34-4.16,4.43-6.58,6.26l-57.1-9.5
			C452.05,178.37,450.64,175.68,449.54,172.84z"/>
		<path class="st40" d="M539.92,200.19l1.18,7.35c0.3,1.96-1.04,3.8-3.01,4.1c-1.96,0.3-3.8-1.04-4.1-3.01l-1.21-7.54L539.92,200.19
			z"/>
		<path class="st40" d="M535.15,201.01l1,7.38c0.25,1.97-1.14,3.77-3.11,4.02c-1.97,0.25-3.77-1.14-4.02-3.11l-1.02-7.57
			L535.15,201.01z"/>
		<path class="st40" d="M541.76,197.99l2.66,6.95c0.7,1.86-0.24,3.93-2.1,4.63c-1.86,0.7-3.93-0.24-4.63-2.1l-2.73-7.13
			L541.76,197.99z"/>
		
			<linearGradient id="SVGID_9_" gradientUnits="userSpaceOnUse" x1="511.8426" y1="-288.7783" x2="539.6917" y2="-288.7783" gradientTransform="matrix(1 0 0 -1 0 -108)">
			<stop  offset="0.2296" style="stop-color:#9780E6"/>
			<stop  offset="0.9374" style="stop-color:#8A6FE8"/>
		</linearGradient>
		<path class="st50" d="M536.81,201.02c2.97-6.06,4.7-16.42-0.19-25.68c-2.97-5.62-9.48-12.76-23.62-14.81l-1.16,7.13
			c8.59,1.24,15.6,5.75,18.63,11.48c3.28,6.21,2.57,13.89,0.26,18.63L536.81,201.02z"/>
		
			<radialGradient id="SVGID_10_" cx="44.5949" cy="278.1229" r="0.3048" gradientTransform="matrix(-24.0446 0 0 24.0446 1582.7798 -6526.6162)" gradientUnits="userSpaceOnUse">
			<stop  offset="0" style="stop-color:#8065E0"/>
			<stop  offset="1" style="stop-color:#512BD4"/>
		</radialGradient>
		<path class="st51" d="M510.27,170.59c4.05,0,7.33-3.28,7.33-7.33c0-4.05-3.28-7.33-7.33-7.33c-4.05,0-7.33,3.28-7.33,7.33
			C502.94,167.31,506.22,170.59,510.27,170.59z"/>
		
			<radialGradient id="SVGID_11_" cx="30.0173" cy="286.055" r="0.3048" gradientTransform="matrix(-47.9449 0 0 47.9449 1974.3337 -13523.0654)" gradientUnits="userSpaceOnUse">
			<stop  offset="0" style="stop-color:#8065E0"/>
			<stop  offset="1" style="stop-color:#512BD4"/>
		</radialGradient>
		<path class="st52" d="M534.76,204.95c4.15,0,7.52-3.37,7.52-7.52c0-4.15-3.37-7.52-7.52-7.52s-7.52,3.37-7.52,7.52
			C527.24,201.58,530.61,204.95,534.76,204.95z"/>
		
			<radialGradient id="SVGID_12_" cx="19.8037" cy="293.9964" r="0.3048" gradientTransform="matrix(-100.1879 -16.6561 -16.6561 100.1879 7335.2749 -28981.6797)" gradientUnits="userSpaceOnUse">
			<stop  offset="0.0933" style="stop-color:#E1DFDD"/>
			<stop  offset="0.8998" style="stop-color:#FFFFFF"/>
		</radialGradient>
		<path class="st55" d="M449.61,163.51c-0.93-10.29,1.99-17.92,2.06-18.1l40.84,6.79c0,0,2.62,0.17,2.23,2.52
			c-0.39,2.35-1.59,8.97-2.81,16.32c-0.25,1.51-1.61,2.03-2.58,1.87C489.34,172.9,453.72,166.97,449.61,163.51z"/>
		<path class="st28" d="M474.21,167.62c0,0-5.45-6.02-6.53-7.14c-1.07-1.12-2.14-1.35-3.42-0.57c-1.29,0.78-8.39,4.66-8.39,4.66
			L474.21,167.62z"/>
		<path class="st53" d="M447.57,165.93c0,0-0.74-2.28,2.04-2.42c0-0.01,40.16,6.65,40.16,6.65c0.94,0.16,2.23-0.2,2.48-1.09
			c-0.11,0.65-0.22,1.3-0.33,1.97c-0.23,1.37-1.37,1.93-2.3,1.9c-0.09,0-0.19-0.01-0.28-0.02l-2.75-0.46L447.57,165.93z"/>
		<path class="st53" d="M458.75,155.47c0.43-2.87-0.6-5.4-2.3-5.66c-1.7-0.26-3.44,1.86-3.87,4.72c-0.43,2.87,0.6,5.4,2.3,5.66
			C456.58,160.45,458.31,158.34,458.75,155.47z"/>
		<path class="st56" d="M456.15,152.27c0.94,1.31,0.63,3.13-0.68,4.07c-0.9,0.64-2.04,0.7-2.97,0.25c-0.06-0.65-0.05-1.34,0.06-2.06
			c0.21-1.41,0.74-2.63,1.42-3.48C454.82,151.12,455.63,151.53,456.15,152.27z"/>
		<path class="st53" d="M483.52,159.7c0.52-2.85-0.44-5.41-2.13-5.72c-1.7-0.31-3.49,1.76-4.01,4.61c-0.52,2.85,0.44,5.42,2.13,5.72
			C481.21,164.62,483,162.55,483.52,159.7z"/>
		<path class="st56" d="M480.91,156.56c0.94,1.31,0.63,3.13-0.68,4.07c-0.89,0.64-2.02,0.7-2.95,0.26c-0.07-0.72-0.05-1.5,0.1-2.3
			c0.23-1.3,0.73-2.42,1.37-3.24C479.58,155.41,480.38,155.82,480.91,156.56z"/>
		<path class="st53" d="M456.25,183.49l12.89,2.08l1.84-11.4l-12.9-2.09L456.25,183.49z"/>
		<path class="st3" d="M459.19,179.6c-0.09-0.02-0.15-0.05-0.2-0.12c-0.05-0.07-0.07-0.14-0.05-0.22c0.01-0.08,0.05-0.15,0.12-0.2
			s0.15-0.07,0.23-0.05c0.09,0.02,0.16,0.05,0.21,0.12c0.05,0.07,0.07,0.14,0.06,0.23c-0.01,0.08-0.05,0.15-0.12,0.2
			C459.35,179.59,459.27,179.61,459.19,179.6z"/>
		<path class="st3" d="M462.62,180.11l-0.56-0.09l-1.09-2.56c-0.03-0.06-0.05-0.13-0.06-0.2l-0.01,0c0,0.07-0.02,0.21-0.05,0.44
			l-0.34,2.07l-0.49-0.08l0.52-3.15l0.59,0.1l1.05,2.49c0.05,0.1,0.07,0.17,0.09,0.21h0.01c0-0.09,0.02-0.23,0.05-0.43l0.33-2.03
			l0.49,0.08L462.62,180.11z"/>
		<path class="st3" d="M465.02,180.51l-1.73-0.28l0.52-3.15l1.66,0.27l-0.07,0.45l-1.15-0.19l-0.15,0.89l1.06,0.17l-0.07,0.44
			l-1.06-0.17l-0.15,0.93l1.22,0.2L465.02,180.51z"/>
		<path class="st3" d="M467.92,178.2l-0.88-0.15l-0.45,2.71l-0.51-0.08l0.45-2.71l-0.88-0.14l0.07-0.45l2.27,0.37L467.92,178.2z"/>
		<path class="st110" d="M496.65,116.79l-7.61-1.27l2.37-7.63l5.46,0.91L496.65,116.79z"/>
		<path class="st54" d="M494.75,109.53c3.03,0,5.49-2.46,5.49-5.49c0-3.03-2.46-5.49-5.49-5.49c-3.03,0-5.49,2.46-5.49,5.49
			C489.26,107.08,491.72,109.53,494.75,109.53z"/>
		
			<radialGradient id="SVGID_13_" cx="-27.7844" cy="309.1668" r="0.3048" gradientTransform="matrix(18.5694 3.0871 3.0871 -18.5694 54.5386 5942.814)" gradientUnits="userSpaceOnUse">
			<stop  offset="0" style="stop-color:#8065E0"/>
			<stop  offset="1" style="stop-color:#512BD4"/>
		</radialGradient>
		<path class="st57" d="M498.76,122.05c0.34,0.06,0.67-0.2,0.69-0.54c0.2-3.68-2.4-7-6.11-7.61c-3.72-0.62-7.25,1.68-8.25,5.22
			c-0.09,0.34,0.13,0.68,0.47,0.73L498.76,122.05z"/>
		<path class="st40" d="M426.13,123.4l-2.2-7.11c-0.57-1.9,0.5-3.9,2.4-4.48c1.9-0.57,3.9,0.5,4.48,2.4l2.26,7.29L426.13,123.4z"/>
		<path class="st40" d="M424.54,128.86l-3.55-6.55c-0.93-1.75-0.27-3.93,1.48-4.86c1.75-0.93,3.93-0.27,4.86,1.48l3.64,6.72
			L424.54,128.86z"/>
		<path class="st40" d="M430.42,124.8l-2.16-16.59c-0.23-1.97,1.17-3.76,3.14-3.99c1.97-0.23,3.76,1.17,3.99,3.14l2.18,16.78
			L430.42,124.8z"/>
		<path class="st40" d="M431.18,126.45l7.68-11.96c1.11-1.64,3.34-2.08,4.99-0.97c1.65,1.11,2.08,3.34,0.97,4.99l-7.79,12.11
			L431.18,126.45z"/>
		
			<radialGradient id="SVGID_14_" cx="-2.6826" cy="306.9984" r="0.3048" gradientTransform="matrix(36.9895 0 0 -36.9895 530.9905 11479.5977)" gradientUnits="userSpaceOnUse">
			<stop  offset="0" style="stop-color:#8065E0"/>
			<stop  offset="1" style="stop-color:#512BD4"/>
		</radialGradient>
		<path class="st58" d="M431.84,134.94c4.15,0,7.52-3.37,7.52-7.52s-3.37-7.52-7.52-7.52c-4.15,0-7.52,3.37-7.52,7.52
			S427.69,134.94,431.84,134.94z"/>
		<g>
			<path class="st113" d="M513.87,128.57l-1.77,6.76c-0.26,1.01-1.39,1.51-2.31,1.04l-17.8-9.04L513.87,128.57z"/>
			<path class="st20" d="M473.92,115.36c-10.87-1.07-10.02,4.04-3.84,6.82c12.18,5.47,38.36,8.76,45.6,9.19
				c4.3,0.25,3.41-4.26,0.43-4.9C516.12,126.46,484.79,116.43,473.92,115.36z"/>
			
				<linearGradient id="SVGID_15_" gradientUnits="userSpaceOnUse" x1="-4853.5425" y1="-339.2579" x2="-4853.5425" y2="-370.4158" gradientTransform="matrix(-0.9988 0.0499 -0.0499 -0.9988 -4369.9126 1.4282)">
				<stop  offset="0.5634" style="stop-color:#F7B548"/>
				<stop  offset="1" style="stop-color:#FCCF84"/>
			</linearGradient>
			<path class="st59" d="M500.86,98.82c-18.27-4.51-26.01,12.72-27.16,17.11c-0.19,0.72,0.13,1.47,0.78,1.83
				c2.22,1.23,8.06,4.05,18.69,6.63c10.21,2.48,18.43,3.49,21.86,3.83c0.99,0.1,1.87-0.61,2-1.59
				C517.73,120.87,519.33,103.38,500.86,98.82z"/>
			<path class="st20" d="M479.64,111.29c-0.73,1.02-0.2,2.46,1.02,2.78l1.18,0.3c0.8,0.21,1.64-0.1,2.11-0.77
				c2.35-3.33,10.5-12.72,26.32-10.22c-1.86-1.57-4.2-2.9-7.11-3.88C490.53,98.22,482.64,107.06,479.64,111.29z"/>
		</g>
	</g>
	<g>
		
			<rect x="195.69" y="44.67" transform="matrix(0.7556 0.655 -0.655 0.7556 105.6468 -110.4218)" class="st115" width="10.23" height="83.4"/>
		<polygon class="st27" points="244.6,73.66 250,67.43 224.62,45.43 214.64,56.93 233.94,73.66 		"/>
		<rect x="251.13" y="49.79" class="st21" width="63.51" height="32.59"/>
		<rect x="307.55" y="49.79" class="st92" width="7.09" height="32.59"/>
		<circle class="st32" cx="226.1" cy="56.63" r="3.76"/>
		<rect x="242.62" y="41.11" class="st116" width="8.92" height="45"/>
		<rect x="242.62" y="82.45" class="st10" width="60.1" height="3.66"/>
	</g>
	<g>
		<g>
			<path class="st116" d="M189.1,198.44l-0.05-0.01c-0.43-0.06-0.72-0.45-0.66-0.88l1.72-12.07c0.06-0.43,0.46-0.72,0.88-0.66
				l0.05,0.01c0.43,0.06,0.72,0.46,0.66,0.88l-1.72,12.07C189.92,198.21,189.52,198.5,189.1,198.44z"/>
			<path class="st16" d="M190.05,186.82c0.13,0.16,0.18,0.39,0.1,0.6l-1.26,3.59c-0.11,0.32-0.47,0.49-0.79,0.38
				c-0.32-0.11-0.49-0.47-0.38-0.79l1.26-3.59c0.11-0.32,0.47-0.49,0.79-0.38C189.88,186.67,189.98,186.74,190.05,186.82z"/>
			<path class="st19" d="M171.69,177.58v-5.14c0-0.56,0.77-0.71,0.98-0.2l2.15,5.14c0.14,0.34-0.11,0.71-0.47,0.71h-2.15
				C171.92,178.09,171.69,177.86,171.69,177.58z"/>
			<path class="st19" d="M168.11,177.58v-5.14c0-0.56,0.77-0.71,0.98-0.2l2.15,5.14c0.14,0.34-0.11,0.71-0.47,0.71h-2.15
				C168.34,178.09,168.11,177.86,168.11,177.58z"/>
			<path class="st19" d="M172.92,186.9h2.67v14.33h-2.67V186.9z"/>
			<path class="st16" d="M163.74,185.72l0.46-4.8c0.19-2.12,1.97-3.75,4.1-3.75l12.11-0.32c2.13,0,3.91,1.63,4.1,3.75l0.45,5.12
				c0.05,0.56-0.39,1.05-0.96,1.05h-6.95c-0.3,1.32-1.48,2.3-2.89,2.3c-1.41,0-2.59-0.98-2.89-2.3h-6.57
				C164.14,186.77,163.69,186.29,163.74,185.72z"/>
			<path class="st19" d="M176.3,181.05h8.25l0.3,3.43h-8.55c-0.73,0-1.32-0.59-1.32-1.32v-0.8
				C174.98,181.64,175.57,181.05,176.3,181.05z"/>
			<path class="st3" d="M184.58,181.33c-0.72,0-1.3,0.58-1.3,1.3c0,0.72,0.58,1.3,1.3,1.3c0.08,0,0.15-0.01,0.22-0.02L184.58,181.33
				z"/>
			<path class="st3" d="M180.38,183.94c-0.72,0-1.3-0.58-1.3-1.3c0-0.72,0.58-1.3,1.3-1.3c0.72,0,1.3,0.58,1.3,1.3
				C181.69,183.36,181.1,183.94,180.38,183.94z"/>
			<path class="st19" d="M183.34,216.25l-17.97-0.73c-2.1,0-3.74-1.8-3.56-3.89l1.75-19.14c0.05-0.59,0.55-1.04,1.14-1.04h19.37
				c0.56,0,1.02,0.43,1.07,0.98l1.76,19.93C187.08,214.45,185.44,216.25,183.34,216.25z"/>
			<path class="st16" d="M163.36,194.79l0.2-2.3c0.05-0.59,0.55-1.04,1.14-1.04h19.37c0.56,0,1.02,0.43,1.07,0.98l0.21,2.36
				L163.36,194.79L163.36,194.79z"/>
			<path class="st18" d="M182.61,193.74c-0.34,0-0.62-0.28-0.62-0.62s0.28-0.62,0.62-0.62s0.62,0.28,0.62,0.62
				S182.95,193.74,182.61,193.74z"/>
			<path class="st18" d="M180.32,193.74c-0.34,0-0.62-0.28-0.62-0.62s0.28-0.62,0.62-0.62s0.62,0.28,0.62,0.62
				S180.67,193.74,180.32,193.74z"/>
			<path class="st18" d="M178.03,193.74c-0.34,0-0.62-0.28-0.62-0.62s0.28-0.62,0.62-0.62s0.62,0.28,0.62,0.62
				S178.38,193.74,178.03,193.74z"/>
			<path class="st16" d="M187.72,192.6c0.51,0.37,0.6,1.1,0.19,1.57c-0.88,0.99-2.35,2.3-4.37,3c-2.83,0.97-5.82,0.49-8.9-1.42
				c-0.52-0.32-0.66-1.03-0.31-1.53l0,0c0.32-0.46,0.95-0.58,1.42-0.28c2.52,1.56,4.9,1.98,7.09,1.22c1.59-0.55,2.76-1.59,3.46-2.38
				C186.66,192.35,187.27,192.28,187.72,192.6L187.72,192.6z"/>
			<path class="st16" d="M188.16,190.04c1.43-0.3,3-2.35,3.14-2.76c0.14-0.41,1.02-0.64,1.13,1.02c0.08,1.27-0.43,3.47-3.14,3.53
				C188.29,191.85,188.16,190.04,188.16,190.04z"/>
			<path class="st19" d="M190.44,191.55l-2.19-1.65c-0.47-0.35-1.14-0.26-1.49,0.21l-1.83,2.44c-0.35,0.47-0.26,1.14,0.21,1.49
				l2.19,1.65c0.47,0.35,1.14,0.26,1.49-0.21l1.83-2.44C191.01,192.57,190.91,191.91,190.44,191.55z"/>
		</g>
		<path class="st116" d="M177.24,122.56l-8.55-7.41c-1.68-1.46-1.86-4-0.4-5.67l5.84-6.74c1.46-1.68,4-1.86,5.67-0.4l8.55,7.41
			c1.68,1.46,1.86,4,0.4,5.67l-5.84,6.74C181.46,123.84,178.92,124.02,177.24,122.56z"/>
		
			<rect x="135.62" y="98.87" transform="matrix(0.7556 0.655 -0.655 0.7556 134.3792 -58.2842)" class="st14" width="19.36" height="104.15"/>
		<path class="st116" d="M201.3,204.79L200.88,183c-0.01-0.55-0.22-1.07-0.59-1.47l-17.23-18.68c-0.43-0.47-1-0.74-1.67-0.72
			l-28.02,0.42c-0.73,0.01-1.4,0.37-1.81,0.98l-10.59,15.57c-0.25,0.37-0.39,0.81-0.39,1.26v16.81h-1.71v23.04h60.61v-13.17
			C200.53,206.82,201.32,205.9,201.3,204.79z M180.46,166.61l15.98,17.32l0.25,13.22h-31.98l-0.55-30.31L180.46,166.61z
			 M145.05,181.03l9.55-14.04l5.1-0.08l0.55,30.24h-15.2V181.03z"/>
		<path class="st27" d="M101.55,180.62l14.94,0.11c2.05,0.02,3.8,1.48,4.17,3.5l8.01,43.85h-27.12V180.62z"/>
		<path class="st27" d="M211.72,201.72h-13.45c-0.94,0-1.85,0.32-2.57,0.92l-8.93,7.3c-0.87,0.71-1.37,1.77-1.37,2.88v3.49
			c0,1.34-1.08,2.42-2.42,2.42h-23.22c-1.71,0-3.26-0.98-3.99-2.52l-8.07-17.03c-0.59-1.24-1.84-2.03-3.21-2.03h-42.94v27.72
			c0,1.77,1.44,3.21,3.21,3.21h128.59c1.79,0,3.24-1.45,3.24-3.24v-11.47l-22.5-10.94C213.38,201.97,212.56,201.72,211.72,201.72z"
			/>
		<path class="st116" d="M98.14,232.23h10.27c1.03,0,1.86-0.83,1.86-1.86v-9.56c0-1.03-0.83-1.86-1.86-1.86H96.49
			c-1.15,0-2.03,1.04-1.84,2.18l1.64,9.56C96.46,231.58,97.23,232.23,98.14,232.23z"/>
		<path class="st116" d="M239.15,232.23h-10.27c-1.03,0-1.86-0.83-1.86-1.86v-9.56c0-1.03,0.83-1.86,1.86-1.86h11.91
			c1.15,0,2.03,1.04,1.84,2.18l-1.64,9.56C240.83,231.58,240.05,232.23,239.15,232.23z"/>
		<circle class="st32" cx="110.89" cy="188.85" r="3.52"/>
		<rect x="143.06" y="221.51" class="st10" width="50.92" height="11.07"/>
		<g>
			<circle class="st116" cx="205.07" cy="228.29" r="17.91"/>
			<circle class="st3" cx="205.07" cy="228.29" r="9.65"/>
			<circle class="st9" cx="205.07" cy="228.29" r="3.72"/>
			<g>
				<circle class="st9" cx="198.82" cy="228.36" r="0.9"/>
				<circle class="st9" cx="211.35" cy="228.36" r="0.9"/>
			</g>
			<g>
				<circle class="st9" cx="205.09" cy="222.1" r="0.9"/>
				<circle class="st9" cx="205.09" cy="234.62" r="0.9"/>
			</g>
			<g>
				<circle class="st9" cx="200.66" cy="223.93" r="0.9"/>
				<circle class="st9" cx="209.51" cy="232.78" r="0.9"/>
			</g>
			<g>
				<circle class="st9" cx="209.51" cy="223.93" r="0.9"/>
				<circle class="st9" cx="200.66" cy="232.78" r="0.9"/>
			</g>
		</g>
		<g>
			<circle class="st116" cx="132.19" cy="228.29" r="17.91"/>
			<circle class="st3" cx="132.19" cy="228.29" r="9.65"/>
			<circle class="st9" cx="132.19" cy="228.29" r="3.72"/>
			<g>
				<circle class="st9" cx="125.94" cy="228.36" r="0.9"/>
				<circle class="st9" cx="138.46" cy="228.36" r="0.9"/>
			</g>
			<g>
				<circle class="st9" cx="132.2" cy="222.1" r="0.9"/>
				<circle class="st9" cx="132.2" cy="234.62" r="0.9"/>
			</g>
			<g>
				<circle class="st9" cx="127.77" cy="223.93" r="0.9"/>
				<circle class="st9" cx="136.63" cy="232.78" r="0.9"/>
			</g>
			<g>
				<circle class="st9" cx="136.63" cy="223.93" r="0.9"/>
				<circle class="st9" cx="127.77" cy="232.78" r="0.9"/>
			</g>
		</g>
		<path class="st27" d="M176.12,237.01h-8.84c-1.11,0-2.01-0.9-2.01-2.01v-13.86c0-1.11,0.9-2.01,2.01-2.01h8.84
			c1.11,0,2.01,0.9,2.01,2.01v13.86C178.14,236.1,177.24,237.01,176.12,237.01z"/>
	</g>
</g>
</svg>
