<?xml version="1.0" encoding="utf-8"?>
<!-- Generator: Adobe Illustrator 24.3.0, SVG Export Plug-In . SVG Version: 6.00 Build 0)  -->
<svg version="1.1" id="Layer_1" xmlns="http://www.w3.org/2000/svg" xmlns:xlink="http://www.w3.org/1999/xlink" x="0px" y="0px"
	 viewBox="0 0 636 300" style="enable-background:new 0 0 636 300;" xml:space="preserve">
<style type="text/css">
	.st0{fill:#C5D43B;}
	.st1{fill:#8B9B23;}
	.st2{fill:#78881B;}
	.st3{fill:#FFFFFF;}
	.st4{fill:#95A258;}
	.st5{fill:#819041;}
	.st6{fill:#2ECCEF;}
	.st7{fill:#0B7891;}
	.st8{fill:#1595B2;}
	.st9{fill:#B3AFAB;}
	.st10{fill:#797672;}
	.st11{fill:#908D89;}
	.st12{fill:#DDDBDA;}
	.st13{fill:#BBB8B4;}
	.st14{fill:#CC5444;}
	.st15{fill:#BBACEF;}
	.st16{fill:#3E8EED;}
	.st17{fill:#7354DD;}
	.st18{fill:#A3C9F6;}
	.st19{fill:#0064DA;}
	.st20{fill:#FCCF84;}
	.st21{fill:#F7B548;}
	.st22{fill:#E29E3B;}
	.st23{fill:#BDD8F9;}
	.st24{fill:#8DBCF4;}
	.st25{fill:#549BEF;}
	.st26{fill:#F4AC99;}
	.st27{fill:#E86E58;}
	.st28{fill:#A08BE8;}
	.st29{fill:#70D6E0;}
	.st30{fill:#28C2D1;}
	.st31{fill:#CFF1F5;}
	.st32{fill:#FDC9B5;}
	.st33{fill:#EA7F6B;}
	.st34{fill:#98C2F5;}
	.st35{fill:#D8E8FB;}
	.st36{fill:#FEDEA7;}
	.st37{fill:#A7A4A0;}
	.st38{fill:#6D6A66;}
	.st39{fill:#56534F;}
	.st40{fill:#8A6FE8;}
	.st41{fill:url(#SVGID_1_);}
	.st42{fill:url(#SVGID_2_);}
	.st43{fill:url(#SVGID_3_);}
	.st44{fill:#522CD5;}
	.st45{fill:url(#SVGID_4_);}
	.st46{fill:url(#SVGID_5_);}
	.st47{fill:url(#SVGID_6_);}
	.st48{fill:url(#SVGID_7_);}
	.st49{fill:url(#SVGID_8_);}
	.st50{fill:url(#SVGID_9_);}
	.st51{fill:url(#SVGID_10_);}
	.st52{fill:url(#SVGID_11_);}
	.st53{fill:#512BD4;}
	.st54{fill:#D8CFF7;}
	.st55{fill:url(#SVGID_12_);}
	.st56{fill:#8065E0;}
	.st57{fill:url(#SVGID_13_);}
	.st58{fill:url(#SVGID_14_);}
	.st59{fill:url(#SVGID_15_);}
	.st60{fill:#E6E4E3;}
	.st61{fill:#4995EE;}
	.st62{fill:#76AFF2;}
	.st63{fill:#FAF9F8;}
	.st64{fill:#60DEFA;}
	.st65{fill:#19A0BF;}
	.st66{fill:#ED9583;}
	.st67{fill:#BF453C;}
	.st68{fill:#33D5F9;}
	.st69{fill:url(#SVGID_16_);}
	.st70{fill:#57AA9A;}
	.st71{fill:url(#SVGID_17_);}
	.st72{fill:url(#SVGID_18_);}
	.st73{fill:#C4832D;}
	.st74{fill:url(#SVGID_19_);}
	.st75{fill:#1DACCC;}
	.st76{fill:#BBF1FD;}
	.st77{fill:url(#SVGID_20_);}
	.st78{fill:url(#SVGID_21_);}
	.st79{fill:url(#SVGID_22_);}
	.st80{fill:url(#SVGID_23_);}
	.st81{fill:url(#SVGID_24_);}
	.st82{fill:url(#SVGID_25_);}
	.st83{fill:url(#SVGID_26_);}
	.st84{fill:url(#SVGID_27_);}
	.st85{fill:url(#SVGID_28_);}
	.st86{fill:url(#SVGID_29_);}
	.st87{fill:url(#SVGID_30_);}
	.st88{fill:url(#SVGID_31_);}
	.st89{fill:url(#SVGID_32_);}
	.st90{fill:url(#SVGID_33_);}
	.st91{fill:#A36623;}
	.st92{fill:#FFE5B9;}
	.st93{fill:#92D5CD;}
	.st94{fill:#45897C;}
	.st95{fill:#D5D3D0;}
	.st96{fill:url(#SVGID_34_);}
	.st97{fill:#9C9894;}
	.st98{fill:#4A4844;}
	.st99{fill:url(#SVGID_35_);}
	.st100{fill:url(#SVGID_36_);}
	.st101{fill:url(#SVGID_37_);}
	.st102{fill:url(#SVGID_38_);}
	.st103{fill:url(#SVGID_39_);}
	.st104{fill:url(#SVGID_40_);}
	.st105{fill:url(#SVGID_41_);}
	.st106{fill:url(#SVGID_42_);}
	.st107{fill:url(#SVGID_43_);}
	.st108{fill:url(#SVGID_44_);}
	.st109{fill:url(#SVGID_45_);}
	.st110{fill:#8577E5;}
	.st111{fill:url(#SVGID_46_);}
	.st112{fill:url(#SVGID_47_);}
	.st113{fill:#605D5A;}
	.st114{fill:url(#SVGID_48_);}
	.st115{fill:#CCCAC7;}
	.st116{fill:#625F5B;}
</style>
<g>
	<g>
		<g>
			
				<rect x="458.7" y="130.26" transform="matrix(0.3087 -0.9511 0.9511 0.3087 133.3113 571.4996)" class="st11" width="2.28" height="127.54"/>
		</g>
		<g>
			<polygon class="st11" points="416.97,156.5 416.6,156.37 214,87.14 214.74,84.99 416.96,154.09 513.13,120.56 513.88,122.71 			
				"/>
		</g>
		<g>
			<polygon class="st11" points="297.18,172.87 200.38,137.44 128.35,161.45 127.63,159.29 200.41,135.03 297.96,170.74 			"/>
		</g>
		<g>
			<polygon class="st11" points="226.18,230.04 225.42,227.89 369.85,178.34 370.61,180.48 			"/>
		</g>
	</g>
	<g>
		<polygon class="st12" points="94.16,137.17 67.17,127.8 94.16,118.42 121.16,127.8 		"/>
		<polygon class="st13" points="67.17,127.8 67.17,158.8 94.16,168.03 94.16,137.17 		"/>
		<polygon class="st14" points="121.18,127.8 121.18,158.8 94.16,168.03 94.16,137.17 		"/>
	</g>
	<g>
		<polygon class="st15" points="406.19,147.4 379.19,138.03 406.19,128.65 433.18,138.03 		"/>
		<polygon class="st16" points="379.19,138.03 379.19,169.03 406.19,178.26 406.19,147.4 		"/>
		<polygon class="st17" points="433.21,138.03 433.21,169.03 406.19,178.26 406.19,147.4 		"/>
	</g>
	<g>
		<polygon class="st18" points="352.49,147.32 325.5,137.95 352.49,128.57 379.49,137.95 		"/>
		<polygon class="st16" points="325.5,137.95 325.5,168.95 352.49,178.18 352.49,147.32 		"/>
		<polygon class="st19" points="379.51,137.95 379.51,168.95 352.49,178.18 352.49,147.32 		"/>
	</g>
	<g>
		<polygon class="st18" points="325.5,156.65 298.51,147.27 325.5,137.9 352.5,147.27 		"/>
		<polygon class="st16" points="298.51,147.27 298.51,178.27 325.5,187.51 325.5,156.65 		"/>
		<polygon class="st17" points="352.52,147.27 352.52,178.27 325.5,187.51 325.5,156.65 		"/>
	</g>
	<g>
		<polygon class="st12" points="352.44,116.53 325.45,107.16 352.44,97.78 379.44,107.16 		"/>
		<polygon class="st16" points="325.45,107.16 325.45,138.16 352.44,147.39 352.44,116.53 		"/>
		<polygon class="st11" points="379.46,107.16 379.46,138.16 352.44,147.39 352.44,116.53 		"/>
	</g>
	<g>
		<polygon class="st20" points="379.27,156.65 352.28,147.27 379.27,137.9 406.27,147.27 		"/>
		<polygon class="st21" points="352.28,147.27 352.28,178.27 379.27,187.51 379.27,156.65 		"/>
		<polygon class="st22" points="406.29,147.27 406.29,178.27 379.27,187.51 379.27,156.65 		"/>
	</g>
	<g>
		<polygon class="st23" points="298.51,165.91 271.51,156.54 298.51,147.16 325.5,156.54 		"/>
		<polygon class="st24" points="271.51,156.54 271.51,187.54 298.51,196.77 298.51,165.91 		"/>
		<polygon class="st25" points="325.53,156.54 325.53,187.54 298.51,196.77 298.51,165.91 		"/>
	</g>
	<g>
		<polygon class="st26" points="325.4,125.85 298.4,116.47 325.4,107.09 352.39,116.47 		"/>
		<polygon class="st27" points="298.4,116.47 298.4,147.47 325.4,156.7 325.4,125.85 		"/>
		<polygon class="st14" points="352.41,116.47 352.41,147.47 325.4,156.7 325.4,125.85 		"/>
	</g>
	<polygon class="st20" points="325.4,94.94 298.4,85.56 325.4,76.19 352.39,85.56 	"/>
	<polygon class="st21" points="298.4,85.56 298.4,116.56 325.4,125.8 325.4,94.94 	"/>
	<polygon class="st22" points="352.41,85.56 352.41,116.56 325.4,125.8 325.4,94.94 	"/>
	<polygon class="st12" points="546.6,210.18 519.6,200.8 546.6,191.43 573.59,200.8 	"/>
	<polygon class="st16" points="519.6,200.8 519.6,231.8 546.6,241.04 546.6,210.18 	"/>
	<polygon class="st11" points="573.62,200.8 573.62,231.8 546.6,241.04 546.6,210.18 	"/>
	<g>
		<polygon class="st20" points="519.68,219.43 492.69,210.05 519.68,200.67 546.68,210.05 		"/>
		<polygon class="st21" points="492.69,210.05 492.69,241.05 519.68,250.28 519.68,219.43 		"/>
		<polygon class="st22" points="546.7,210.05 546.7,241.05 519.68,250.28 519.68,219.43 		"/>
	</g>
	<g>
		<polygon class="st12" points="506.77,94.26 479.78,84.88 506.77,75.5 533.77,84.88 		"/>
		<polygon class="st13" points="479.78,84.88 479.78,115.88 506.77,125.11 506.77,94.26 		"/>
		<polygon class="st19" points="533.79,84.88 533.79,115.88 506.77,125.11 506.77,94.26 		"/>
	</g>
	<g>
		<polygon class="st26" points="533.53,103.5 506.53,94.13 533.53,84.75 560.52,94.13 		"/>
		<polygon class="st21" points="506.53,94.13 506.53,125.13 533.53,134.36 533.53,103.5 		"/>
		<polygon class="st22" points="560.54,94.13 560.54,125.13 533.53,134.36 533.53,103.5 		"/>
	</g>
	<g>
		<polygon class="st23" points="533.5,72.71 506.5,63.33 533.5,53.96 560.49,63.33 		"/>
		<polygon class="st24" points="506.5,63.33 506.5,94.33 533.5,103.57 533.5,72.71 		"/>
		<polygon class="st25" points="560.52,63.33 560.52,94.33 533.5,103.57 533.5,72.71 		"/>
	</g>
	<g>
		<polygon class="st18" points="209.28,62.87 182.28,53.49 209.28,44.11 236.27,53.49 		"/>
		<polygon class="st16" points="182.28,53.49 182.28,84.49 209.28,93.72 209.28,62.87 		"/>
		<polygon class="st19" points="236.29,53.49 236.29,84.49 209.28,93.72 209.28,62.87 		"/>
	</g>
	<g>
		<polygon class="st15" points="121.12,146.52 94.12,137.15 121.12,127.77 148.11,137.15 		"/>
		<polygon class="st16" points="94.12,137.15 94.12,168.15 121.12,177.38 121.12,146.52 		"/>
		<polygon class="st17" points="148.13,137.15 148.13,168.15 121.12,177.38 121.12,146.52 		"/>
	</g>
	<g>
		<polygon class="st20" points="94.2,155.77 67.21,146.39 94.2,137.02 121.2,146.39 		"/>
		<polygon class="st21" points="67.21,146.39 67.21,177.39 94.2,186.63 94.2,155.77 		"/>
		<polygon class="st22" points="121.22,146.39 121.22,177.39 94.2,186.63 94.2,155.77 		"/>
	</g>
	<g>
		<polygon class="st26" points="212.45,224.18 185.46,214.81 212.45,205.43 239.45,214.81 		"/>
		<polygon class="st27" points="185.46,214.81 185.46,245.81 212.45,255.04 212.45,224.18 		"/>
		<polygon class="st14" points="239.47,214.81 239.47,245.81 212.45,255.04 212.45,224.18 		"/>
	</g>
	<g>
		<polygon class="st22" points="305.59,96.27 305.59,110.77 318.21,115.08 318.21,100.66 		"/>
		<g>
			<g>
				<path class="st20" d="M301.07,107.49c-0.47,0-0.9-0.29-1.07-0.75c-0.21-0.59,0.09-1.24,0.68-1.46l7.34-2.62
					c0.59-0.22,1.24,0.09,1.46,0.68c0.21,0.59-0.09,1.24-0.68,1.46l-7.34,2.62C301.33,107.47,301.2,107.49,301.07,107.49z"/>
			</g>
			<g>
				<path class="st20" d="M307.58,109.55c-0.47,0-0.9-0.29-1.07-0.75c-0.21-0.59,0.09-1.24,0.68-1.46l7.34-2.62
					c0.59-0.22,1.24,0.09,1.46,0.68c0.21,0.59-0.09,1.24-0.68,1.46l-7.34,2.62C307.84,109.53,307.71,109.55,307.58,109.55z"/>
			</g>
		</g>
	</g>
	<g>
		<polygon class="st27" points="232.59,225.59 232.59,240.09 219.97,244.4 219.97,229.98 		"/>
		<g>
			<g>
				<path class="st26" d="M237.11,236.81c0.47,0,0.9-0.29,1.07-0.75c0.21-0.59-0.09-1.24-0.68-1.46l-7.34-2.62
					c-0.59-0.22-1.24,0.09-1.46,0.68c-0.21,0.59,0.09,1.24,0.68,1.46l7.34,2.62C236.85,236.79,236.98,236.81,237.11,236.81z"/>
			</g>
			<g>
				<path class="st26" d="M230.6,238.87c0.47,0,0.9-0.29,1.07-0.75c0.21-0.59-0.09-1.24-0.68-1.46l-7.34-2.62
					c-0.59-0.22-1.24,0.09-1.46,0.68c-0.21,0.59,0.09,1.24,0.68,1.46l7.34,2.62C230.34,238.85,230.47,238.87,230.6,238.87z"/>
			</g>
		</g>
	</g>
	<g>
		<polygon class="st11" points="546.6,205.48 533.12,200.8 546.6,196.12 560.07,200.8 		"/>
		<g>
			<path class="st13" d="M548.69,191.75c0.15-0.44,0.57-0.76,1.06-0.77c0.63-0.01,1.14,0.5,1.15,1.12l0.07,7.79
				c0.01,0.63-0.49,1.14-1.12,1.15c-0.63,0.01-1.14-0.5-1.15-1.12l-0.07-7.79C548.62,192.01,548.64,191.88,548.69,191.75z"/>
		</g>
		<g>
			<path class="st13" d="M542.78,193.74c0.15-0.44,0.57-0.76,1.06-0.77c0.63-0.01,1.14,0.5,1.15,1.12l0.07,7.79
				c0.01,0.63-0.49,1.14-1.12,1.15c-0.63,0.01-1.14-0.5-1.15-1.12l-0.07-7.79C542.72,193.99,542.74,193.86,542.78,193.74z"/>
		</g>
	</g>
	<g>
		<polygon class="st22" points="379.34,151.59 365.86,146.91 379.34,142.23 392.82,146.91 		"/>
		<g>
			<path class="st21" d="M381.43,137.86c0.15-0.44,0.57-0.76,1.06-0.77c0.63-0.01,1.14,0.5,1.15,1.12l0.07,7.79
				c0.01,0.63-0.49,1.14-1.12,1.15c-0.63,0.01-1.14-0.5-1.15-1.12l-0.07-7.79C381.36,138.11,381.38,137.98,381.43,137.86z"/>
		</g>
		<g>
			<path class="st21" d="M375.52,139.84c0.15-0.44,0.57-0.76,1.06-0.77c0.63-0.01,1.14,0.5,1.15,1.12l0.07,7.79
				c0.01,0.63-0.49,1.14-1.12,1.15c-0.63,0.01-1.14-0.5-1.15-1.12l-0.07-7.79C375.46,140.09,375.48,139.96,375.52,139.84z"/>
		</g>
	</g>
	<g>
		<polygon class="st17" points="120.51,141.73 107.04,137.05 120.51,132.36 133.99,137.05 		"/>
		<g>
			<path class="st28" d="M122.6,128c0.15-0.44,0.57-0.76,1.06-0.77c0.63-0.01,1.14,0.5,1.15,1.12l0.07,7.79
				c0.01,0.63-0.49,1.14-1.12,1.15c-0.63,0.01-1.14-0.5-1.15-1.12l-0.07-7.79C122.54,128.25,122.56,128.12,122.6,128z"/>
		</g>
		<g>
			<path class="st28" d="M116.7,129.98c0.15-0.44,0.57-0.76,1.06-0.77c0.63-0.01,1.14,0.5,1.15,1.12l0.07,7.79
				c0.01,0.63-0.49,1.14-1.12,1.15c-0.63,0.01-1.14-0.5-1.15-1.12l-0.07-7.79C116.63,130.23,116.66,130.1,116.7,129.98z"/>
		</g>
	</g>
</g>
</svg>
