<?xml version="1.0" encoding="utf-8"?>
<!-- Generator: Adobe Illustrator 24.3.0, SVG Export Plug-In . SVG Version: 6.00 Build 0)  -->
<svg version="1.1" id="Layer_1" xmlns="http://www.w3.org/2000/svg" xmlns:xlink="http://www.w3.org/1999/xlink" x="0px" y="0px"
	 viewBox="0 0 636 300" style="enable-background:new 0 0 636 300;" xml:space="preserve">
<style type="text/css">
	.st0{fill:#C5D43B;}
	.st1{fill:#8B9B23;}
	.st2{fill:#78881B;}
	.st3{fill:#FFFFFF;}
	.st4{fill:#95A258;}
	.st5{fill:#819041;}
	.st6{fill:#2ECCEF;}
	.st7{fill:#0B7891;}
	.st8{fill:#1595B2;}
	.st9{fill:#B3AFAB;}
	.st10{fill:#797672;}
	.st11{fill:#908D89;}
	.st12{fill:#DDDBDA;}
	.st13{fill:#BBB8B4;}
	.st14{fill:#CC5444;}
	.st15{fill:#BBACEF;}
	.st16{fill:#3E8EED;}
	.st17{fill:#7354DD;}
	.st18{fill:#A3C9F6;}
	.st19{fill:#0064DA;}
	.st20{fill:#FCCF84;}
	.st21{fill:#F7B548;}
	.st22{fill:#E29E3B;}
	.st23{fill:#BDD8F9;}
	.st24{fill:#8DBCF4;}
	.st25{fill:#549BEF;}
	.st26{fill:#F4AC99;}
	.st27{fill:#E86E58;}
	.st28{fill:#A08BE8;}
	.st29{fill:#70D6E0;}
	.st30{fill:#28C2D1;}
	.st31{fill:#CFF1F5;}
	.st32{fill:#FDC9B5;}
	.st33{fill:#EA7F6B;}
	.st34{fill:#98C2F5;}
	.st35{fill:#D8E8FB;}
	.st36{fill:#FEDEA7;}
	.st37{fill:#A7A4A0;}
	.st38{fill:#6D6A66;}
	.st39{fill:#56534F;}
	.st40{fill:#8A6FE8;}
	.st41{fill:url(#SVGID_1_);}
	.st42{fill:url(#SVGID_2_);}
	.st43{fill:url(#SVGID_3_);}
	.st44{fill:#522CD5;}
	.st45{fill:url(#SVGID_4_);}
	.st46{fill:url(#SVGID_5_);}
	.st47{fill:url(#SVGID_6_);}
	.st48{fill:url(#SVGID_7_);}
	.st49{fill:url(#SVGID_8_);}
	.st50{fill:url(#SVGID_9_);}
	.st51{fill:url(#SVGID_10_);}
	.st52{fill:url(#SVGID_11_);}
	.st53{fill:#512BD4;}
	.st54{fill:#D8CFF7;}
	.st55{fill:url(#SVGID_12_);}
	.st56{fill:#8065E0;}
	.st57{fill:url(#SVGID_13_);}
	.st58{fill:url(#SVGID_14_);}
	.st59{fill:url(#SVGID_15_);}
	.st60{fill:#E6E4E3;}
	.st61{fill:#4995EE;}
	.st62{fill:#76AFF2;}
	.st63{fill:#FAF9F8;}
	.st64{fill:#60DEFA;}
	.st65{fill:#19A0BF;}
	.st66{fill:#ED9583;}
	.st67{fill:#BF453C;}
	.st68{fill:#33D5F9;}
	.st69{fill:url(#SVGID_16_);}
	.st70{fill:#57AA9A;}
	.st71{fill:url(#SVGID_17_);}
	.st72{fill:url(#SVGID_18_);}
	.st73{fill:#C4832D;}
	.st74{fill:url(#SVGID_19_);}
	.st75{fill:#1DACCC;}
	.st76{fill:#BBF1FD;}
	.st77{fill:url(#SVGID_20_);}
	.st78{fill:url(#SVGID_21_);}
	.st79{fill:url(#SVGID_22_);}
	.st80{fill:url(#SVGID_23_);}
	.st81{fill:url(#SVGID_24_);}
	.st82{fill:url(#SVGID_25_);}
	.st83{fill:url(#SVGID_26_);}
	.st84{fill:url(#SVGID_27_);}
	.st85{fill:url(#SVGID_28_);}
	.st86{fill:url(#SVGID_29_);}
	.st87{fill:url(#SVGID_30_);}
	.st88{fill:url(#SVGID_31_);}
	.st89{fill:url(#SVGID_32_);}
	.st90{fill:url(#SVGID_33_);}
	.st91{fill:#A36623;}
	.st92{fill:#FFE5B9;}
	.st93{fill:#92D5CD;}
	.st94{fill:#45897C;}
	.st95{fill:#D5D3D0;}
	.st96{fill:url(#SVGID_34_);}
	.st97{fill:#9C9894;}
	.st98{fill:#4A4844;}
	.st99{fill:url(#SVGID_35_);}
	.st100{fill:url(#SVGID_36_);}
	.st101{fill:url(#SVGID_37_);}
	.st102{fill:url(#SVGID_38_);}
	.st103{fill:url(#SVGID_39_);}
	.st104{fill:url(#SVGID_40_);}
	.st105{fill:url(#SVGID_41_);}
	.st106{fill:url(#SVGID_42_);}
	.st107{fill:url(#SVGID_43_);}
	.st108{fill:url(#SVGID_44_);}
	.st109{fill:url(#SVGID_45_);}
	.st110{fill:#8577E5;}
	.st111{fill:url(#SVGID_46_);}
	.st112{fill:url(#SVGID_47_);}
	.st113{fill:#605D5A;}
	.st114{fill:url(#SVGID_48_);}
	.st115{fill:#CCCAC7;}
	.st116{fill:#625F5B;}
</style>
<g>
	<g>
		<polygon class="st64" points="335.67,140.54 335.67,151.89 332.65,151.93 332.65,140.62 		"/>
		<polygon class="st64" points="347.92,140.23 347.92,151.73 344.81,151.77 344.81,140.31 		"/>
		<polygon class="st65" points="355.94,149.61 324.38,150.09 324.38,154.98 355.94,154.68 		"/>
	</g>
	<g>
		<polygon class="st66" points="437.72,37.87 437.72,50.51 433.97,50.94 433.97,38.34 		"/>
		<polygon class="st66" points="452.95,35.95 452.95,48.78 449.08,49.22 449.08,36.44 		"/>
		<polygon class="st67" points="462.94,45.41 423.72,49.94 423.72,55.37 462.94,51.06 		"/>
	</g>
	<path class="st39" d="M351.91,46.02c-0.37,0.07-0.7,0.36-0.78,0.73c-0.15,0.68-0.13,2.47-0.11,3.24l-2.79,3.8
		c-0.28,0.38-0.21,0.87,0.15,1.09c0.36,0.22,0.88,0.09,1.16-0.29l2.98-4.05c0.12-0.16,0.18-0.35,0.17-0.53
		c-0.03-1.04-0.03-2.71,0.07-3.14c0.1-0.44-0.19-0.82-0.64-0.86C352.05,46.01,351.98,46.01,351.91,46.02z"/>
	<g>
		<path class="st7" d="M122.89,225.41c-0.21-0.01-0.41-0.09-0.6-0.24c-0.53-0.42-0.69-1.23-0.36-1.82l2.59-4.59
			c0.32-0.56,0.31-1.3-0.03-1.89l-2.73-4.85c-0.35-0.62-0.21-1.42,0.31-1.79c0.52-0.37,1.23-0.17,1.58,0.45l2.74,4.86
			c0.83,1.48,0.86,3.34,0.06,4.74l-2.6,4.59C123.64,225.25,123.27,225.44,122.89,225.41z"/>
	</g>
	<path class="st68" d="M142.13,181.97c-0.35,1.29-1.45,4.56-4.07,6.98c-2.93,2.7-6.66,3.43-11.06,2.19l0.69-2.57
		c3.64,1.02,6.65,0.47,8.93-1.64c2.06-1.91,2.94-4.53,3.22-5.57L142.13,181.97z"/>
	<path class="st40" d="M271.73,109.41l1.07-4.05c0.28-1.08-0.26-2.12-1.21-2.31c-0.94-0.2-1.93,0.52-2.21,1.6l-1.09,4.13
		L271.73,109.41z"/>
	<polygon class="st66" points="382.09,58.65 484.41,47.25 484.41,153.1 382.09,154.12 	"/>
	<radialGradient id="SVGID_1_" cx="524.5915" cy="90.2151" r="102.6529" gradientUnits="userSpaceOnUse">
		<stop  offset="0" style="stop-color:#E86E58"/>
		<stop  offset="0.9413" style="stop-color:#CC5444"/>
	</radialGradient>
	<polygon class="st41" points="522.58,50.32 484.41,47.25 484.41,153.1 522.58,152.72 	"/>
	<polygon class="st9" points="380.59,120.64 375.09,120.89 382.74,143.71 386.53,143.63 	"/>
	<polygon class="st9" points="372.9,120.99 367.49,121.23 369.22,144 372.9,143.92 	"/>
	<path class="st39" d="M360.23,114.44c0,8.37,6.45,14.91,14.53,14.61c8.22-0.3,15-7.55,15-16.19s-6.77-15.16-15-14.59
		C366.68,98.84,360.23,106.07,360.23,114.44z"/>
	<path class="st10" d="M360.23,75.1c0,8.37,6.45,14.64,14.53,13.99c8.22-0.66,15-8.2,15-16.83s-6.77-14.87-15-13.95
		C366.68,59.22,360.23,66.73,360.23,75.1z"/>
	<path class="st11" d="M359.22,120.05l-7.18-38.68c-0.17-1.59,1.01-3.1,2.52-3.25l40.85-3.82c1.66-0.16,2.96,1.2,2.77,2.9
		l-7.19,41.34c-0.16,1.43-1.33,2.56-2.73,2.62l-26.48,1.18C360.47,122.41,359.37,121.42,359.22,120.05z"/>
	<path class="st39" d="M373.89,65.11l-10.97,1.16c-1.15,1.9-1.95,4.03-2.3,6.27l13.27-1.31c1.19-0.12,2.16-1.22,2.16-2.47v-1.62
		C376.05,65.89,375.09,64.99,373.89,65.11z"/>
	<path class="st3" d="M373.53,68.18c0,1.28-0.99,2.42-2.22,2.54c-1.22,0.12-2.21-0.81-2.21-2.09c0-1.28,0.99-2.41,2.21-2.54
		C372.53,65.96,373.53,66.9,373.53,68.18z"/>
	<path class="st3" d="M367.03,68.85c0,1.27-0.98,2.4-2.19,2.52c-1.2,0.12-2.18-0.81-2.18-2.08c0-1.27,0.97-2.4,2.18-2.52
		C366.05,66.64,367.03,67.57,367.03,68.85z"/>
	<path class="st39" d="M371.78,154.57l-8.77,0.08c-0.68,0.01-1.19-0.64-1.07-1.34c0.93-5.2,4.7-9.4,9.6-10.72
		c0.69-0.19,1.35,0.36,1.35,1.1v9.71C372.89,154.05,372.39,154.57,371.78,154.57z"/>
	<path class="st39" d="M384.77,142.3c-4.62,1.34-7.13,5.58-6.34,10.84c0.11,0.71,0.86,1.37,1.56,1.36l9.1-0.09
		c0.63-0.01,0.97-0.54,0.75-1.19l-3.31-9.82C386.29,142.65,385.42,142.11,384.77,142.3z"/>
	<g>
		<path class="st40" d="M275.74,83.35l-4.18-0.05c-0.61,4.84-1.32,9.16-3.19,12.47c-3.7,6.56-12.08,7.21-14.36,7.25l-0.32,5.16
			C260.16,107.18,274.06,106.28,275.74,83.35z"/>
		<path class="st28" d="M261.09,106.67c0.18-0.06,0.36-0.12,0.54-0.18l-1.2-4.57c-0.16,0.05-0.32,0.11-0.48,0.16L261.09,106.67z"/>
	</g>
	<polygon class="st70" points="382.09,154.12 484.41,153.1 484.41,258.95 382.09,249.59 	"/>
	<radialGradient id="SVGID_2_" cx="520.3193" cy="173.0857" r="93.412" gradientUnits="userSpaceOnUse">
		<stop  offset="0" style="stop-color:#57AA9A"/>
		<stop  offset="0.9413" style="stop-color:#45897C"/>
	</radialGradient>
	<polygon class="st42" points="522.58,152.72 484.41,153.1 484.41,258.95 522.58,252.47 	"/>
	<polygon class="st56" points="137.23,156.56 191.69,156.02 191.69,232.17 137.23,227.19 	"/>
	<polygon class="st53" points="211.25,156.53 191.69,156.02 191.69,232.17 211.25,226.86 	"/>
	<radialGradient id="SVGID_3_" cx="363.4834" cy="224.0024" r="113.8183" gradientUnits="userSpaceOnUse">
		<stop  offset="0.1701" style="stop-color:#29C3E5"/>
		<stop  offset="0.9336" style="stop-color:#33D5F9"/>
	</radialGradient>
	<polygon class="st43" points="298.04,154.96 382.09,154.12 382.09,249.59 298.04,241.9 	"/>
	<polygon class="st37" points="227.75,155.66 298.01,154.96 298.01,241.9 227.75,235.47 	"/>
	<polygon class="st22" points="324,28.57 340.27,26.42 368.34,102.89 296.3,136.04 281.82,137.24 	"/>
	<polygon class="st73" points="350.99,104.92 368.44,102.94 296.36,135.98 281.82,137.24 	"/>
	<radialGradient id="SVGID_4_" cx="264.9512" cy="58.53" r="68.2375" gradientUnits="userSpaceOnUse">
		<stop  offset="0.1159" style="stop-color:#FAC369"/>
		<stop  offset="1" style="stop-color:#F7B548"/>
	</radialGradient>
	<polygon class="st45" points="258.34,65.7 323.88,28.5 351.34,104.79 281.82,137.24 	"/>
	<g>
		<path class="st28" d="M107.53,205.33c0.22,0.01,0.42,0.14,0.53,0.38l1.83,4.01c0.17,0.36,0.04,0.82-0.28,1.03
			c-0.32,0.21-0.71,0.08-0.88-0.28l-1.83-4c-0.16-0.36-0.04-0.82,0.28-1.03C107.3,205.35,107.42,205.32,107.53,205.33z"/>
	</g>
	<path class="st75" d="M140.2,194.17c1.31,0.69,3.54-0.3,3.84-0.62c0.3-0.33,1.14,0.06,0.47,1.83c-0.51,1.35-1.95,3.22-4.2,1.39
		C139.49,196.1,140.2,194.17,140.2,194.17z"/>
	<path class="st75" d="M138.95,194.41c-0.02-0.26,0.05-0.51,0.21-0.66l2.76-2.58c0.25-0.23,0.62-0.14,0.82,0.22
		c0.2,0.35,0.16,0.83-0.09,1.06l-2.77,2.58c-0.25,0.23-0.61,0.13-0.81-0.22C139,194.69,138.96,194.55,138.95,194.41z"/>
	<path class="st7" d="M115.87,224.42c0.63,0.04,1.18-0.63,1.23-1.49l0.65-10.02c0.06-0.86-0.41-1.58-1.03-1.61
		c-0.63-0.03-1.18,0.65-1.23,1.51l-0.65,9.99C114.78,223.66,115.24,224.38,115.87,224.42z"/>
	<path class="st8" d="M118.7,225.89l0.05-0.72c0.07-1.15-0.67-2.12-1.67-2.18l-3.67-0.21c-0.99-0.06-1.84,0.82-1.92,1.96l-0.05,0.71
		L118.7,225.89z"/>
	<path class="st8" d="M126.74,226.49l0.05-0.73c0.08-1.16-0.69-2.14-1.7-2.2l-3.74-0.21c-1.01-0.06-1.88,0.83-1.95,1.97l-0.05,0.72
		L126.74,226.49z"/>
	<g>
		<path class="st64" d="M119.4,165.49l0.41-6.34c0.04-0.69,0.88-0.9,1.07-0.26l1.9,6.32c0.13,0.42-0.17,0.88-0.57,0.88l-2.32,0.03
			C119.6,166.12,119.38,165.84,119.4,165.49z"/>
		<path class="st64" d="M115.58,165.54l0.41-6.31c0.04-0.69,0.87-0.89,1.06-0.26l1.89,6.29c0.12,0.41-0.17,0.87-0.56,0.88
			l-2.29,0.03C115.78,166.17,115.55,165.89,115.58,165.54z"/>
		<polygon class="st7" points="118.82,194.59 121.68,194.66 122.84,176.97 119.97,176.97 		"/>
		<path class="st75" d="M110.33,175.52l0.88-6.24c0.36-2.59,2.37-4.6,4.62-4.63l13.07-0.17c2.34-0.03,4.17,1.98,4.2,4.64l0.07,6.41
			c0.01,0.7-0.52,1.31-1.14,1.31l-7.6-0.01c-0.44,1.63-1.79,2.84-3.31,2.83c-1.51-0.01-2.69-1.22-2.91-2.84l-6.96-0.01
			C110.66,176.79,110.24,176.21,110.33,175.52z"/>
		<path class="st7" d="M124.08,169.73l9.03-0.06l0.05,4.29l-9.36,0.02c-0.79,0-1.38-0.73-1.32-1.63l0.06-0.98
			C122.6,170.47,123.29,169.74,124.08,169.73z"/>
		<path class="st76" d="M131.57,171.66c-0.06,0.9,0.54,1.62,1.33,1.62c0.8,0,1.49-0.73,1.55-1.64c0.06-0.9-0.54-1.63-1.33-1.62
			C132.32,170.03,131.63,170.76,131.57,171.66z"/>
		<path class="st76" d="M126.97,171.68c-0.06,0.89,0.53,1.62,1.32,1.61c0.79,0,1.47-0.73,1.53-1.63c0.06-0.9-0.53-1.62-1.32-1.61
			C127.71,170.06,127.03,170.79,126.97,171.68z"/>
	</g>
	<path class="st75" d="M128.87,213.5l-19.23-0.85c-2.19-0.1-3.76-2.34-3.4-4.86l3.38-24.04c0.1-0.72,0.65-1.26,1.27-1.26l20.83,0.17
		c0.62,0.01,1.1,0.54,1.1,1.24l0.29,24.93C133.14,211.44,131.17,213.6,128.87,213.5z"/>
	<path class="st8" d="M109.22,186.54l0.39-2.79c0.1-0.72,0.65-1.26,1.27-1.26l20.83,0.17c0.62,0.01,1.1,0.54,1.1,1.24l0.03,2.95
		L109.22,186.54z"/>
	<path class="st68" d="M129.29,184.72c-0.03,0.43,0.25,0.78,0.63,0.78c0.38,0,0.71-0.34,0.73-0.77c0.03-0.43-0.25-0.78-0.63-0.78
		C129.65,183.95,129.32,184.29,129.29,184.72z"/>
	<path class="st68" d="M126.79,184.7c-0.03,0.43,0.25,0.77,0.63,0.78c0.37,0,0.7-0.34,0.73-0.76c0.03-0.43-0.25-0.78-0.63-0.78
		C127.14,183.93,126.82,184.27,126.79,184.7z"/>
	<path class="st68" d="M124.3,184.67c-0.03,0.42,0.25,0.77,0.62,0.78c0.37,0,0.7-0.34,0.73-0.76c0.03-0.43-0.25-0.77-0.62-0.78
		C124.65,183.9,124.33,184.24,124.3,184.67z"/>
	<g>
		<g>
			
				<linearGradient id="SVGID_5_" gradientUnits="userSpaceOnUse" x1="9857.3145" y1="-396.6306" x2="9857.3145" y2="-380.1558" gradientTransform="matrix(-0.8744 -0.4852 -0.4852 0.8744 8673.8057 5251.2935)">
				<stop  offset="0" style="stop-color:#522CD5"/>
				<stop  offset="0.4397" style="stop-color:#8A6FE8"/>
			</linearGradient>
			<path class="st46" d="M240.52,137.53c2.08-2.59,5.94-8.25,6.99-14.96l-3.69-0.5c-0.95,6.06-4.47,10.95-6.13,12.95
				C237.56,135.18,238.87,136.63,240.52,137.53z"/>
		</g>
		<g>
			
				<linearGradient id="SVGID_6_" gradientUnits="userSpaceOnUse" x1="9860.9531" y1="-394.687" x2="9853.4502" y2="-381.1649" gradientTransform="matrix(-0.8744 -0.4852 -0.4852 0.8744 8673.8057 5251.2935)">
				<stop  offset="0.0804" style="stop-color:#522CD5"/>
				<stop  offset="0.4516" style="stop-color:#8A6FE8"/>
			</linearGradient>
			<path class="st47" d="M240.52,137.53c2.08-2.59,5.94-8.25,6.99-14.96l-3.69-0.5c-0.95,6.06-4.47,10.95-6.13,12.95
				C237.56,135.18,238.87,136.63,240.52,137.53z"/>
		</g>
		<path class="st44" d="M237.72,134.99l2.21,1.98c-0.37,1.01-4.24,2.68-2.29,14.43l-1.17,4.61l-9.23-8.51
			c-0.08-0.08-0.11-0.59,0.19-0.93L237.72,134.99z"/>
		
			<linearGradient id="SVGID_7_" gradientUnits="userSpaceOnUse" x1="9763.877" y1="866.6971" x2="9753.2021" y2="885.1853" gradientTransform="matrix(-0.759 -0.651 -0.7041 0.7135 8262.4268 5874.4678)">
			<stop  offset="0" style="stop-color:#522CD5"/>
			<stop  offset="0.4397" style="stop-color:#8A6FE8"/>
		</linearGradient>
		<path class="st48" d="M239.9,153.17c0.18,0.67,0,1.19-0.43,1.67l-1.52,1.66c-0.23,0.26-0.63,0.28-0.89,0.05l-1.8-1.66
			c-0.29-0.26-0.3-0.71-0.04-1.01l1.29-1.56c0.49-0.55,0.73-0.96,0.51-1.85c-1.34-5.25-1.35-10.72,1.62-14.66l1.89,1.7
			C239.12,139.64,237.57,144.43,239.9,153.17z"/>
		
			<radialGradient id="SVGID_8_" cx="-2015.9609" cy="530.9966" r="6.1809" gradientTransform="matrix(0.8528 0.651 -0.7314 0.759 2348.7612 1059.4358)" gradientUnits="userSpaceOnUse">
			<stop  offset="0.034" style="stop-color:#522CD5"/>
			<stop  offset="0.9955" style="stop-color:#8A6FE8"/>
		</radialGradient>
		<path class="st49" d="M237.06,156.55c0.25,0.23,0.65,0.21,0.89-0.05l1.52-1.66c0.24-0.26,0.4-0.55,0.46-0.86l-2.86-2.61
			c-0.07,0.35-0.27,0.63-0.56,0.95l-1.29,1.56c-0.26,0.29-0.25,0.74,0.04,1.01L237.06,156.55z"/>
	</g>
	<g>
		
			<linearGradient id="SVGID_9_" gradientUnits="userSpaceOnUse" x1="7082.2163" y1="-572.027" x2="7082.2163" y2="-555.5276" gradientTransform="matrix(-0.9796 0.201 0.201 0.9796 7302.5425 -740.8416)">
			<stop  offset="0" style="stop-color:#522CD5"/>
			<stop  offset="0.4397" style="stop-color:#8A6FE8"/>
		</linearGradient>
		<path class="st50" d="M254.74,138.33c0.05-3.43-0.38-10.38-3.67-16.07l-3.23,2.22c2.97,5.15,3.17,11.29,3.09,13.98
			C250.91,138.67,252.85,138.83,254.74,138.33z"/>
		
			<linearGradient id="SVGID_10_" gradientUnits="userSpaceOnUse" x1="7082.2163" y1="-572.027" x2="7082.2163" y2="-555.5276" gradientTransform="matrix(-0.9796 0.201 0.201 0.9796 7302.5425 -740.8416)">
			<stop  offset="0" style="stop-color:#522CD5"/>
			<stop  offset="0.4397" style="stop-color:#8A6FE8"/>
		</linearGradient>
		<path class="st51" d="M254.74,138.33c0.05-3.43-0.38-10.38-3.67-16.07l-3.23,2.22c2.97,5.15,3.17,11.29,3.09,13.98
			C250.91,138.67,252.85,138.83,254.74,138.33z"/>
		<path class="st44" d="M250.92,138.41l3-0.08c0.33,1.02,0.5,6.46,9.96,13.22l-0.02,3.82l-13.24,0.11c-0.46,0-0.8-0.37-0.77-0.86
			L250.92,138.41z"/>
		
			<linearGradient id="SVGID_11_" gradientUnits="userSpaceOnUse" x1="7131.9775" y1="137.3927" x2="7121.4546" y2="155.6189" gradientTransform="matrix(-1 0 -0.0699 1 7395.9922 0)">
			<stop  offset="0" style="stop-color:#522CD5"/>
			<stop  offset="0.4397" style="stop-color:#8A6FE8"/>
		</linearGradient>
		<path class="st52" d="M264.15,150.77c0.57,0.39,0.66,0.83,0.61,1.51l-0.14,2.42c-0.02,0.37-0.33,0.68-0.69,0.68l-0.07,0
			c-0.4,0-0.7-0.33-0.67-0.76l0.05-1.97c0.05-0.78-0.02-1.27-0.77-1.8c-4.41-3.07-9.76-7.38-9.83-12.49l2.08-0.06
			C254.93,140.93,256.74,145.74,264.15,150.77z"/>
		
			<radialGradient id="SVGID_12_" cx="791.6555" cy="150.8764" r="3.5114" fx="788.1452" fy="150.7847" gradientTransform="matrix(1.1235 0 0 1 -626.8762 0)" gradientUnits="userSpaceOnUse">
			<stop  offset="0.034" style="stop-color:#522CD5"/>
			<stop  offset="1" style="stop-color:#8A6FE8"/>
		</radialGradient>
		<path class="st55" d="M262.98,151.33c0.27,0.37,0.3,0.78,0.27,1.32l-0.05,1.97c-0.03,0.42,0.27,0.76,0.67,0.76l0.07,0
			c0.35,0,0.66-0.31,0.69-0.68l0.14-2.42c0.03-0.39,0-0.7-0.12-0.96L262.98,151.33z"/>
	</g>
	
		<radialGradient id="SVGID_13_" cx="996.8093" cy="-1382.7793" r="21.4485" gradientTransform="matrix(1.0303 -0.3988 0.448 0.917 -161.0933 1756.7079)" gradientUnits="userSpaceOnUse">
		<stop  offset="0.4744" style="stop-color:#A08BE8"/>
		<stop  offset="0.8618" style="stop-color:#8065E0"/>
	</radialGradient>
	<path class="st57" d="M266,106.34c0.15-6.08-1.78-10.28-1.78-10.28l1.28-0.41l0.03-0.04c-4.15-9.69-14.47-14.54-24.56-11.12
		c-11.11,3.77-17.87,16.21-15.34,27.95c2.54,11.8,13.6,18.83,24.95,15.57c9.15-2.63,15.68-11.15,16.67-20.7
		C267.24,106.91,267.09,106.26,266,106.34z"/>
	
		<radialGradient id="SVGID_14_" cx="1003.2783" cy="-1368.255" r="13.9134" fx="1017.0859" fy="-1369.9666" gradientTransform="matrix(1.0303 -0.3988 0.448 0.917 -161.0933 1756.7079)" gradientUnits="userSpaceOnUse">
		<stop  offset="0.2022" style="stop-color:#E1DFDD"/>
		<stop  offset="0.7337" style="stop-color:#FFFFFF"/>
	</radialGradient>
	<path class="st58" d="M266,106.34c0.15-6-1.73-10.18-1.78-10.28l-9.79,3.07c0,0-1.4,0.29-1.11,1.6c0.29,1.31,1.17,4.99,2.08,9.1
		c0.19,0.84,0.94,1.05,1.46,0.89C256.87,110.72,265.97,107.16,266,106.34z"/>
	<path class="st28" d="M264.75,103.3c-0.49,0.73-2.96,4.57-2.96,4.57l4.26-1.44c0.03-1.64-0.06-3.01-0.16-3.88
		C265.43,102.48,265.13,102.74,264.75,103.3z"/>
	<path class="st53" d="M267.21,107.59c0,0,0.33-1.37-1.21-1.25c0-0.01,0-0.01,0-0.02l-9.46,2.86c-0.5,0.15-1.21,0.04-1.38-0.45
		c0.08,0.36,0.16,0.73,0.25,1.1c0.17,0.77,0.81,1.01,1.31,0.93c0.05-0.01,0.1-0.02,0.15-0.03l1.47-0.45L267.21,107.59z"/>
	<path class="st54" d="M266.37,111.72l-35.68,10.72c1.08,1.18,2.28,2.22,3.58,3.1l30.07-8.9
		C265.18,115.08,265.87,113.43,266.37,111.72z"/>
	<path class="st53" d="M263.91,117.21c1.28-2.32,2.23-4.88,2.79-7.57l-4.03,1.37L263.91,117.21z"/>
	<g>
		<g>
			<polygon class="st40" points="242.13,83.21 238.19,84.52 237.84,80.07 240.65,79.11 			"/>
		</g>
		
			<radialGradient id="SVGID_15_" cx="994.1917" cy="-1390.8778" r="2.8844" gradientTransform="matrix(1.0303 -0.3988 0.448 0.917 -161.0933 1756.7079)" gradientUnits="userSpaceOnUse">
			<stop  offset="0" style="stop-color:#8065E0"/>
			<stop  offset="0.8628" style="stop-color:#512BD4"/>
		</radialGradient>
		<path class="st59" d="M244.21,85.33c0.18-0.06,0.29-0.27,0.23-0.45c-0.64-1.92-2.56-2.93-4.48-2.28c-1.92,0.64-3.16,2.7-2.95,4.74
			c0.02,0.19,0.2,0.31,0.37,0.25L244.21,85.33z"/>
	</g>
	<g>
		<path class="st53" d="M263.59,102.36c0.29,1.62-0.14,3.14-0.97,3.41c-0.82,0.26-1.72-0.84-2.01-2.45
			c-0.29-1.61,0.14-3.13,0.96-3.4C262.4,99.65,263.3,100.74,263.59,102.36z"/>
		<path class="st56" d="M261.79,101.31c-0.42,0.82-0.22,1.84,0.44,2.29c0.45,0.31,1.01,0.26,1.45-0.06
			c0.01-0.38-0.01-0.77-0.09-1.18c-0.14-0.79-0.43-1.46-0.79-1.9C262.4,100.55,262.02,100.85,261.79,101.31z"/>
	</g>
	<path class="st54" d="M235.04,77.97c-0.63-2.13,0.49-4.58,2.52-5.48c2.04-0.9,4.22,0.11,4.87,2.26c0.65,2.15-0.5,4.62-2.55,5.5
		C237.84,81.13,235.68,80.1,235.04,77.97z"/>
	<g>
		
			<linearGradient id="SVGID_16_" gradientUnits="userSpaceOnUse" x1="3529.9966" y1="-905.761" x2="3518.9592" y2="-885.2006" gradientTransform="matrix(-0.9843 0.1764 0.1764 0.9843 3884.6541 371.0122)">
			<stop  offset="0.3393" style="stop-color:#967FE6"/>
			<stop  offset="1" style="stop-color:#8A6FE8"/>
		</linearGradient>
		<path class="st69" d="M268.49,110.08c-3.3,1.79-6.36,3.17-9.24,3.43c-4.75,0.44-8.41-2.72-10.61-5.38c-1-1.2-4.54,2.03-3.48,3.25
			c4.29,4.96,11.53,10.4,25.35,2.5C271.19,113.5,269.19,109.7,268.49,110.08z"/>
	</g>
	
		<radialGradient id="SVGID_17_" cx="440.1968" cy="-912.009" r="5.8279" gradientTransform="matrix(1.0934 -0.2301 0.2586 0.9732 -0.4125 1094.7604)" gradientUnits="userSpaceOnUse">
		<stop  offset="0" style="stop-color:#8065E0"/>
		<stop  offset="0.8628" style="stop-color:#512BD4"/>
	</radialGradient>
	<path class="st71" d="M248.51,105.05c1.23,1.82,0.79,4.45-0.98,5.86c-1.76,1.41-4.17,1.08-5.39-0.73
		c-1.21-1.81-0.78-4.41,0.97-5.83C244.87,102.93,247.29,103.24,248.51,105.05z"/>
	<path class="st40" d="M270.94,115.49l5.21-1.52c0.99-0.21,1.69-1.26,1.56-2.33c-0.14-1.07-1.05-1.77-2.04-1.55l-3.8,0.8
		L270.94,115.49z"/>
	<path class="st40" d="M272.22,111.7l2.99-2.81c0.8-0.76,0.97-2.04,0.39-2.86c-0.58-0.82-1.69-0.86-2.48-0.1l-3.05,2.89
		L272.22,111.7z"/>
	<path class="st40" d="M272.65,112.93l3.58-1.5c0.96-0.41,1.49-1.57,1.2-2.59c-0.3-1.02-1.31-1.51-2.26-1.09l-3.66,1.56
		L272.65,112.93z"/>
	
		<radialGradient id="SVGID_18_" cx="3669.0793" cy="-1370.8007" r="8.7646" gradientTransform="matrix(-0.7988 0.1432 0.1336 0.7455 3384.3169 605.7565)" gradientUnits="userSpaceOnUse">
		<stop  offset="0" style="stop-color:#8065E0"/>
		<stop  offset="0.8628" style="stop-color:#512BD4"/>
	</radialGradient>
	<path class="st72" d="M268,109.25c1.21-1.94,3.55-2.56,5.23-1.37c1.68,1.19,2.05,3.75,0.81,5.7c-1.23,1.94-3.58,2.54-5.24,1.34
		C267.15,113.72,266.79,111.19,268,109.25z"/>
	<path class="st9" d="M364.99,104.06c0.47,0.63,1.3,0.91,2.11,0.64l14.54-4.92c0.74-0.25,1.31-0.9,1.49-1.68l4.06-17.6
		c0.27-1.18-0.42-2.29-1.55-2.47c-1.12-0.18-2.25,0.64-2.52,1.82l-3.74,16.26l-13.31,4.57c-1.07,0.37-1.71,1.56-1.43,2.67
		C364.72,103.61,364.84,103.85,364.99,104.06z"/>
	<g>
		<path class="st39" d="M366.92,101.21l0.69,2.73c0.11,0.44-0.11,0.89-0.51,1l-2.06,0.6c-0.07,0.02-0.13,0.05-0.19,0.09l-4.44,2.99
			c-0.43,0.29-1,0.02-1.15-0.53l-1.77-6.6c-0.15-0.56,0.24-1.08,0.75-1.04l5.55,0.53c0.07,0.01,0.14,0,0.21-0.01l1.99-0.41
			C366.4,100.48,366.81,100.76,366.92,101.21z"/>
		<path class="st39" d="M350.76,103.77c0.21,0.31,0.58,0.46,0.91,0.32c0.61-0.24,2.04-1.29,2.65-1.75l4.27,0.48
			c0.43,0.05,0.8-0.3,0.82-0.77c0.02-0.48-0.31-0.9-0.74-0.95l-4.55-0.5c-0.18-0.02-0.36,0.03-0.5,0.14
			c-0.82,0.63-2.15,1.58-2.54,1.74c-0.39,0.16-0.58,0.65-0.42,1.09C350.69,103.65,350.72,103.71,350.76,103.77z"/>
		<path class="st39" d="M350.73,111.89c0.19,0.3,0.53,0.45,0.85,0.35l3.91-1.17c0.05-0.02,0.11-0.04,0.16-0.07l4.86-2.91
			c0.37-0.22,0.49-0.75,0.27-1.17c-0.22-0.41-0.71-0.58-1.08-0.36l-4.78,2.87l-3.82,1.16c-0.4,0.12-0.62,0.59-0.49,1.05
			C350.64,111.72,350.68,111.81,350.73,111.89z"/>
		<path class="st39" d="M350.08,108.65c0.17,0.26,0.47,0.42,0.77,0.37l4.65-0.77c0.05-0.01,0.1-0.02,0.15-0.04l4.55-1.87
			c0.4-0.16,0.58-0.66,0.41-1.11c-0.17-0.45-0.63-0.68-1.03-0.51l-4.47,1.85l-4.57,0.77c-0.42,0.07-0.68,0.51-0.6,0.97
			C349.96,108.43,350.01,108.55,350.08,108.65z"/>
	</g>
	<path class="st39" d="M379.34,78.09c0.56-3.16,3.46-5.48,6.48-5.18c3.04,0.3,5.06,3.13,4.48,6.33c-0.58,3.19-3.51,5.5-6.54,5.16
		C380.75,84.07,378.78,81.25,379.34,78.09z"/>
	<path class="st39" d="M350.1,48.32l-0.48-0.33l0.07-1.15l-0.02,0.01c0.01-0.31-0.09-0.6-0.32-0.76l-3.59-2.49
		c-0.14-0.1-0.31-0.13-0.48-0.09c-0.96,0.22-2.49,0.52-2.88,0.49c-0.4-0.03-0.77,0.35-0.82,0.83c-0.01,0.08-0.01,0.15,0,0.23
		c0.04,0.38,0.29,0.68,0.62,0.7c0.61,0.04,2.26-0.3,2.97-0.45l0.66,0.46c-0.96,0.21-2.32,0.47-2.69,0.44
		c-0.4-0.03-0.77,0.35-0.82,0.83c-0.01,0.08-0.01,0.15,0,0.23c0.04,0.38,0.29,0.68,0.62,0.71c0.61,0.04,2.26-0.29,2.98-0.45
		l2.85,1.99l1.14,3.09c0,0,0.21-1.28,0.48-3.27l-0.01-0.01C350.48,48.94,350.39,48.52,350.1,48.32z"/>
	<path class="st68" d="M137.83,196.38c0.32,0.75-0.03,1.61-0.73,1.8c-1.44,0.37-3.6,0.65-5.96-0.05c-3.31-0.97-5.97-3.47-7.94-7.42
		c-0.35-0.69-0.09-1.57,0.55-1.83l0.05-0.02c0.51-0.21,1.09,0.02,1.36,0.57c1.63,3.36,3.77,5.45,6.4,6.21
		c1.95,0.57,3.74,0.29,4.89-0.03c0.54-0.15,1.11,0.14,1.36,0.72L137.83,196.38z"/>
	<path class="st7" d="M141.39,197.3l-1.05-3.19c-0.22-0.68-0.81-1.05-1.31-0.82l-2.58,1.2c-0.5,0.23-0.72,0.96-0.5,1.64l1.04,3.18
		c0.22,0.68,0.81,1.05,1.3,0.82l2.6-1.18C141.39,198.72,141.61,197.98,141.39,197.3z"/>
	<polygon class="st56" points="206.38,206.16 197.6,207.48 197.6,176.08 206.38,176.22 	"/>
	<polygon class="st15" points="209.44,186.67 201.83,186.44 201.83,183.63 209.44,183.83 	"/>
	<polygon class="st15" points="209.44,197.96 201.83,197.62 201.83,194.81 209.44,195.12 	"/>
	<polygon class="st91" points="330.64,116.26 336.24,115.68 312.15,126.78 306.96,127.27 	"/>
	<path class="st27" d="M434.54,85.22c-1.41,1.52-2.37,3.38-2.77,5.34c-0.39,1.96-0.2,3.95,0.54,5.73l-22.45,23.66
		c-0.33,0.34-0.59,0.74-0.77,1.18c-0.18,0.44-0.27,0.9-0.27,1.37c0,0.46,0.09,0.92,0.27,1.34c0.18,0.42,0.44,0.8,0.77,1.11
		l0.55,0.63c1.39,1.34,3.71,0.69,5.1-0.85l22.71-22.83c3.72,0.54,8.37-0.52,11.36-3.69c3.11-2.43,3.81-6.93,2.3-10.59l-7.67,7.96
		l-4.53-1.13l-1.47-4.28l7.58-7.95c-1.9-0.6-3.99-0.64-5.99-0.1C437.82,82.65,435.99,83.73,434.54,85.22L434.54,85.22z
		 M411.25,120.54c1.67-1.28,2.87-0.87,3.53-0.16c0.32,0.4,0.49,0.9,0.49,1.42c0,0.52-0.17,1.04-0.49,1.46
		c-0.74,1.15-2.42,1.12-3.53,0.15c-0.36-0.38-0.56-0.88-0.56-1.41C410.69,121.47,410.89,120.95,411.25,120.54z"/>
	<path class="st3" d="M450.79,120.72l-2.3,2.31c-1.49,1.5-3.77,1.59-4.56,0.18l-15.37-13.36c-1.43-1.34-1.82-3.58-0.29-4.89
		l-10.23-9.39l-3.55-0.5l-5-7.43l2.86-2.36l7.19,4.47l1.41,3.45l9.91,8.94c0.58-0.46,1.27-0.74,2-0.82
		c0.72-0.08,1.44,0.05,2.06,0.38l15.87,14.56C452.4,117.66,452.4,119.88,450.79,120.72z"/>
	<path class="st92" d="M292.14,72.86c-0.61,0.59-1.2,1.24-1.75,1.94c-0.76,0.95-1.43,1.96-2.01,3.01l2.43,3.05
		c-0.55,1.15-0.98,2.35-1.28,3.57l-3.81,1.21c-0.33,2.17-0.34,4.37-0.05,6.49l3.74,0.24c0.3,1.37,0.78,2.69,1.44,3.9
		c-0.62,1-1.68,2.63-2.35,3.67c0.43,0.67,0.91,1.31,1.43,1.91c0.72,0.83,1.51,1.55,2.33,2.18l2.93-3.08c1,0.61,2.07,1.05,3.18,1.3
		l0.58,4.48c1.87,0.22,3.8,0.06,5.69-0.49l0.68-4.67c1.03-0.44,2.04-1.03,2.99-1.76l3.07,2.6c0.67-0.61,1.32-1.28,1.94-2.02
		c0.84-1.01,1.58-2.08,2.22-3.2l-2.61-3.15c0.6-1.22,1.05-2.5,1.35-3.8l4-0.9c0.38-2.38,0.39-4.79,0.02-7.11
		c-1.24,0.03-2.98,0.07-3.96,0.07c-0.29-1.28-0.74-2.51-1.34-3.65l2.57-3.76c-0.52-0.82-1.11-1.59-1.77-2.31
		c-0.81-0.88-1.69-1.63-2.61-2.26l-2.84,3.38c-1.08-0.63-2.24-1.05-3.43-1.26L304.57,68c-1.83-0.15-3.69,0.07-5.5,0.64l-0.39,4.51
		c-1.25,0.5-2.46,1.22-3.58,2.16L292.14,72.86z M307,80.94c2.83,3.12,2.74,8.59-0.21,12.16c-2.93,3.55-7.54,3.86-10.31,0.73
		c-2.75-3.11-2.66-8.47,0.2-12.02C299.56,78.25,304.18,77.84,307,80.94z"/>
	<path class="st92" d="M310.88,56.46c-0.25,0.24-0.49,0.51-0.72,0.79c-0.31,0.39-0.59,0.8-0.83,1.23l1,1.2
		c-0.23,0.47-0.4,0.95-0.52,1.45l-1.57,0.53c-0.13,0.88-0.14,1.76-0.02,2.61l1.54,0.05c0.12,0.55,0.32,1.07,0.59,1.55
		c-0.26,0.41-0.69,1.08-0.97,1.51c0.18,0.26,0.37,0.51,0.59,0.75c0.3,0.32,0.62,0.6,0.96,0.84l1.2-1.28
		c0.41,0.23,0.84,0.39,1.29,0.47l0.24,1.78c0.76,0.06,1.54-0.04,2.3-0.29l0.27-1.87c0.41-0.19,0.82-0.44,1.2-0.75l1.23,0.98
		c0.27-0.25,0.53-0.53,0.77-0.83c0.33-0.41,0.63-0.84,0.88-1.3l-1.04-1.21c0.24-0.49,0.42-1,0.54-1.52l1.58-0.4
		c0.15-0.94,0.15-1.89,0.01-2.8c-0.49,0.03-1.18,0.06-1.57,0.07c-0.12-0.5-0.29-0.98-0.53-1.43l1.02-1.51
		c-0.21-0.32-0.44-0.62-0.7-0.9c-0.32-0.34-0.67-0.63-1.04-0.87l-1.14,1.36c-0.43-0.24-0.9-0.4-1.38-0.47l-0.14-1.77
		c-0.74-0.05-1.49,0.05-2.22,0.29l-0.16,1.8c-0.51,0.21-1,0.51-1.46,0.89L310.88,56.46z M316.9,59.55c1.13,1.21,1.1,3.37-0.08,4.83
		c-1.18,1.45-3.04,1.64-4.17,0.43c-1.12-1.21-1.08-3.36,0.08-4.8C313.9,58.55,315.77,58.34,316.9,59.55z"/>
	<path class="st93" d="M414.79,181.72v42.64l42.07,2.63L414.79,181.72z M422.3,200.19l17.68,19.05l-17.68-0.99V200.19z"/>
	<g>
		<path class="st94" d="M449.49,200.08l-2.55,2.37l5.43,5.46l2.72-2.5c0.21-0.24,0.29-0.57,0.23-0.94
			c-0.07-0.37-0.28-0.74-0.58-1.03l-2.88-2.88c-0.34-0.35-0.77-0.6-1.21-0.69C450.2,199.78,449.79,199.85,449.49,200.08
			L449.49,200.08z"/>
		<path class="st94" d="M431.44,227.14l19.51-17.92l-5.41-5.46l-19.3,17.93L431.44,227.14z"/>
		<path class="st94" d="M429.93,228.52l0.14-0.13l-5.19-5.45l-0.14,0.13l-1.7,7.04L429.93,228.52z"/>
	</g>
	<g>
		<path class="st95" d="M261.16,191.45c-1.41-0.05-2.78-0.59-3.95-1.56c-1.16-0.96-2.06-2.3-2.59-3.85
			c-0.53-1.55-0.67-3.24-0.4-4.86c0.27-1.62,0.94-3.11,1.92-4.27c0.99-1.16,2.25-1.95,3.63-2.25c1.38-0.31,2.82-0.12,4.13,0.54
			c1.31,0.66,2.44,1.77,3.24,3.19c0.8,1.42,1.22,3.08,1.22,4.77c0,2.27-0.77,4.41-2.12,5.97
			C264.88,190.67,263.05,191.51,261.16,191.45L261.16,191.45z M261.16,177.33c-0.93-0.02-1.83,0.29-2.6,0.89
			c-0.77,0.59-1.36,1.45-1.71,2.45c-0.35,1-0.44,2.11-0.26,3.19c0.18,1.08,0.62,2.08,1.27,2.87c0.65,0.79,1.48,1.35,2.39,1.59
			c0.91,0.24,1.85,0.16,2.71-0.24c0.86-0.4,1.6-1.09,2.12-2c0.52-0.91,0.8-1.98,0.8-3.09c0-1.48-0.51-2.91-1.39-3.98
			C263.6,177.97,262.4,177.36,261.16,177.33L261.16,177.33z"/>
		<path class="st95" d="M262.55,172.09l-2.64-0.03v11.74l2.64,0.07V172.09z"/>
		<path class="st95" d="M261.22,206.3c-0.35-0.02-0.69-0.2-0.93-0.51c-0.25-0.31-0.39-0.71-0.39-1.13V194.2
			c0-0.42,0.14-0.81,0.39-1.09c0.25-0.28,0.58-0.44,0.93-0.43c0.35,0.01,0.69,0.19,0.94,0.49c0.25,0.3,0.39,0.71,0.39,1.12v10.5
			c-0.02,0.41-0.17,0.78-0.41,1.06C261.89,206.13,261.57,206.29,261.22,206.3L261.22,206.3z"/>
		<path class="st95" d="M276.09,220.78l-1.44-3.61l0.75-0.51l1.51,3.61L276.09,220.78z"/>
		<path class="st95" d="M274.65,199.32l-26.44-1.14v1.54l26.44,1.19V199.32z"/>
		<path class="st95" d="M255.84,187.29l-9.79,31.19l1.08,0.3l4.69-6.27l7.49-22.47L255.84,187.29z"/>
		<path class="st95" d="M265.94,187.82l10.63,30.03l-2.26,0.81l-3.46-4.91l-7.91-23.19L265.94,187.82z"/>
	</g>
	<path class="st3" d="M148.56,200.5c-0.12,0-0.24-0.04-0.35-0.11c-0.11-0.07-0.21-0.17-0.29-0.29c-0.17-0.25-0.26-0.57-0.26-0.9
		c0-0.33,0.09-0.64,0.26-0.87c0.08-0.12,0.18-0.21,0.29-0.27c0.11-0.06,0.23-0.09,0.35-0.08c0.18,0.01,0.36,0.09,0.51,0.24
		c0.15,0.15,0.27,0.35,0.34,0.58c0.07,0.23,0.09,0.49,0.05,0.73c-0.04,0.24-0.12,0.46-0.25,0.63c-0.08,0.12-0.19,0.21-0.3,0.26
		C148.8,200.49,148.68,200.51,148.56,200.5L148.56,200.5z M161.64,201.28l-1.84-0.1l-6.24-13.65v13.32l-1.41-0.07v-16.66l1.76,0.05
		l6.29,13.59v-13.4l1.44,0.04V201.28z M171.38,201.79l-6.85-0.36v-16.95l6.35,0.18v1.97l-4.41-0.14v5.23l3.92,0.15v1.97l-3.92-0.16
		v5.88l4.9,0.24V201.79z M180.38,186.95l-3.02-0.1v15.26l-2-0.1v-15.21l-2.98-0.09v-1.98l8.01,0.23V186.95z"/>
	<g>
		<polyline class="st60" points="308.62,150.32 281,245.76 284.72,246.13 312.59,150.26 		"/>
		<polyline class="st11" points="309.9,150.3 282.2,245.88 285.93,246.25 313.88,150.24 		"/>
		<g>
			<polygon class="st10" points="329.91,164.75 306.59,164.72 306.59,161.52 329.91,161.47 			"/>
			<polygon class="st10" points="325.63,179.43 302.53,179.01 302.53,175.84 325.63,176.17 			"/>
			<polygon class="st10" points="321.39,193.97 298.5,193.18 298.5,190.01 321.39,190.72 			"/>
			<polygon class="st10" points="317.19,208.37 294.52,207.21 294.52,204.06 317.19,205.13 			"/>
			<polygon class="st10" points="313.02,222.63 290.57,221.11 290.57,217.97 313.02,219.41 			"/>
			<polygon class="st10" points="308.9,236.76 286.65,234.88 286.65,231.76 308.9,233.56 			"/>
		</g>
		<polygon class="st60" points="301.88,247.81 305.79,248.19 335.09,149.92 330.91,149.98 		"/>
		<polygon class="st11" points="303.14,247.93 307.06,248.32 336.45,149.9 332.26,149.96 		"/>
	</g>
</g>
</svg>
