<?xml version="1.0" encoding="utf-8"?>
<!-- Generator: Adobe Illustrator 24.3.0, SVG Export Plug-In . SVG Version: 6.00 Build 0)  -->
<svg version="1.1" id="Layer_1" xmlns="http://www.w3.org/2000/svg" xmlns:xlink="http://www.w3.org/1999/xlink" x="0px" y="0px"
	 viewBox="0 0 636 300" style="enable-background:new 0 0 636 300;" xml:space="preserve">
<style type="text/css">
	.st0{fill:url(#SVGID_1_);}
	.st1{fill:#BBB8B4;}
	.st2{fill:#848484;}
	.st3{fill:#F7B548;}
	.st4{fill:#FFFFFF;}
	.st5{fill:#C8C6C4;}
	.st6{fill:#B2B2B2;}
	.st7{fill:#9C9894;}
	.st8{fill:#797673;}
	.st9{fill:#B3AFAB;}
	.st10{fill:#605D5A;}
	.st11{fill:#D8E8FB;}
	.st12{fill:#927BE5;}
	.st13{fill:#4995EE;}
	.st14{fill:#28C2D1;}
	.st15{fill:#84817D;}
	.st16{fill:#A08BE8;}
	.st17{fill:#179BB8;}
	.st18{fill:url(#SVGID_2_);}
	.st19{fill:url(#SVGID_3_);}
	.st20{fill:url(#SVGID_4_);}
	.st21{fill:url(#SVGID_5_);}
	.st22{fill:#522CD5;}
	.st23{fill:url(#SVGID_6_);}
	.st24{fill:url(#SVGID_7_);}
	.st25{fill:url(#SVGID_8_);}
	.st26{fill:url(#SVGID_9_);}
	.st27{fill:url(#SVGID_10_);}
	.st28{fill:url(#SVGID_11_);}
	.st29{fill:url(#SVGID_12_);}
	.st30{fill:url(#SVGID_13_);}
	.st31{fill:#512BD4;}
	.st32{fill:#D8CFF7;}
	.st33{fill:#8A6FE8;}
	.st34{fill:url(#SVGID_14_);}
	.st35{fill:#8065E0;}
	.st36{fill:url(#SVGID_15_);}
	.st37{fill:url(#SVGID_16_);}
	.st38{fill:url(#SVGID_17_);}
</style>
<g>
	
		<radialGradient id="SVGID_1_" cx="-13914.6748" cy="-7997.7803" r="262.4185" gradientTransform="matrix(-0.8882 0.1591 -0.2134 -0.4915 -13730.2148 -1552.0331)" gradientUnits="userSpaceOnUse">
		<stop  offset="0.1821" style="stop-color:#E1EFF9"/>
		<stop  offset="0.9144" style="stop-color:#B8D6F7"/>
	</radialGradient>
	<path class="st0" d="M213.63,223.45c99.28,24.28,238.29,11.98,275.8-37.78C532.76,128.2,443.67,79.86,374.51,119
		c-45.96,26.01-110.38,32.59-151.64,33.51C152.92,154.08,146.16,206.95,213.63,223.45z"/>
	<g>
		<polygon class="st1" points="429.61,87.21 305.53,93.88 305.53,35.16 429.61,26.45 		"/>
		<polygon class="st2" points="351.37,91.42 305.53,93.88 305.53,35.16 351.37,31.94 		"/>
		<path class="st3" d="M521.13,132.27l-112.87,4.58c-3.7,0.15-6.69-2.9-6.69-6.82V62.77c0-3.92,2.99-7.28,6.69-7.51l112.87-7.08
			c3.93-0.25,7.13,2.84,7.13,6.89v69.59C528.25,128.7,525.06,132.11,521.13,132.27z"/>
		<g>
			<g>
				<path class="st4" d="M478.07,120.64l-15.21,0.67c-0.93,0.04-1.68-0.71-1.68-1.68s0.75-1.78,1.68-1.83l15.21-0.69
					c0.93-0.04,1.69,0.71,1.69,1.68C479.76,119.78,479.01,120.6,478.07,120.64z"/>
			</g>
			<g>
				<path class="st4" d="M456.79,121.58l-18.42,0.81c-0.91,0.04-1.65-0.71-1.65-1.67s0.74-1.77,1.65-1.81l18.42-0.83
					c0.92-0.04,1.67,0.71,1.67,1.67C458.46,120.72,457.71,121.54,456.79,121.58z"/>
			</g>
			<g>
				<path class="st4" d="M455.46,112.31l-26.99,1.26c-0.91,0.04-1.64-0.7-1.64-1.66c0-0.96,0.74-1.77,1.64-1.81l26.99-1.28
					c0.92-0.04,1.67,0.7,1.67,1.67S456.38,112.27,455.46,112.31z"/>
			</g>
			<g>
				<path class="st4" d="M493.04,101.14l-45.48,2.24c-0.92,0.05-1.66-0.7-1.66-1.66c0-0.96,0.74-1.78,1.66-1.83l45.48-2.28
					c0.94-0.05,1.7,0.71,1.7,1.68S493.98,101.1,493.04,101.14z"/>
			</g>
			<g>
				<path class="st4" d="M440.31,103.73l-21.69,1.07c-0.9,0.04-1.64-0.69-1.64-1.65s0.73-1.77,1.64-1.81l21.69-1.09
					c0.91-0.05,1.66,0.7,1.66,1.66C441.97,102.87,441.23,103.69,440.31,103.73z"/>
			</g>
			<g>
				<path class="st4" d="M513.59,90.66l-28.61,1.48c-0.94,0.05-1.7-0.7-1.7-1.67s0.76-1.8,1.7-1.85l28.61-1.51
					c0.95-0.05,1.72,0.7,1.72,1.69C515.31,89.78,514.54,90.61,513.59,90.66z"/>
			</g>
			<g>
				<path class="st4" d="M478.07,92.5l-39.7,2.05c-0.91,0.05-1.65-0.69-1.65-1.65s0.74-1.78,1.65-1.83l39.7-2.09
					c0.93-0.05,1.69,0.7,1.69,1.67S479.01,92.45,478.07,92.5z"/>
			</g>
			<g>
				<path class="st4" d="M473.18,83.38l-44.71,2.42c-0.91,0.05-1.64-0.69-1.64-1.65s0.74-1.78,1.64-1.83l44.71-2.46
					c0.93-0.05,1.69,0.69,1.69,1.66C474.87,82.5,474.11,83.33,473.18,83.38z"/>
			</g>
			<g>
				<path class="st4" d="M503.29,72.31L489,73.11c-0.94,0.05-1.7-0.69-1.7-1.67c0-0.97,0.76-1.81,1.7-1.86l14.28-0.82
					c0.95-0.05,1.71,0.69,1.71,1.67C505,71.41,504.23,72.25,503.29,72.31z"/>
			</g>
			<g>
				<path class="st4" d="M482.61,73.48l-37.21,2.11c-0.92,0.05-1.66-0.69-1.66-1.65s0.74-1.79,1.66-1.84l37.21-2.14
					c0.94-0.05,1.69,0.69,1.69,1.66C484.3,72.59,483.55,73.42,482.61,73.48z"/>
			</g>
			<g>
				<path class="st4" d="M438.37,75.98l-9.9,0.56c-0.91,0.05-1.64-0.68-1.64-1.64s0.74-1.78,1.64-1.83l9.9-0.57
					c0.91-0.05,1.65,0.68,1.65,1.65C440.03,75.11,439.29,75.93,438.37,75.98z"/>
			</g>
			<g>
				<path class="st4" d="M467.31,64.99l-48.68,2.88c-0.9,0.05-1.64-0.68-1.64-1.63c0-0.96,0.73-1.77,1.64-1.83l48.68-2.93
					c0.93-0.06,1.68,0.68,1.68,1.65S468.24,64.93,467.31,64.99z"/>
			</g>
		</g>
		<polygon class="st1" points="314.09,44.8 311.4,44.98 311.4,42.05 314.09,41.86 		"/>
		<polygon class="st1" points="335.4,43.37 317.43,44.58 317.43,41.63 335.4,40.41 		"/>
		<polygon class="st1" points="314.09,51.37 311.4,51.55 311.4,48.61 314.09,48.44 		"/>
		<polygon class="st1" points="340.91,49.62 317.43,51.16 317.43,48.21 340.91,46.66 		"/>
		<polygon class="st1" points="314.09,57.95 311.4,58.12 311.4,55.18 314.09,55.01 		"/>
		<polygon class="st1" points="331.1,56.87 317.43,57.74 317.43,54.79 331.1,53.91 		"/>
		<polygon class="st1" points="314.09,64.52 311.4,64.69 311.4,61.75 314.09,61.58 		"/>
		<polygon class="st1" points="340.91,62.86 317.43,64.31 317.43,61.37 340.91,59.9 		"/>
		<polygon class="st1" points="314.09,71.09 311.4,71.26 311.4,68.32 314.09,68.16 		"/>
		<polygon class="st1" points="335.4,69.82 317.43,70.89 317.43,67.95 335.4,66.86 		"/>
		<polygon class="st2" points="363.01,41.51 357.41,41.88 357.41,38.91 363.01,38.53 		"/>
		<polygon class="st2" points="367.06,47.91 357.41,48.54 357.41,45.56 367.06,44.92 		"/>
		<polygon class="st2" points="389.46,53.15 357.41,55.19 357.41,52.22 389.46,50.15 		"/>
		<polygon class="st2" points="375.78,60.71 357.41,61.84 357.41,58.87 375.78,57.72 		"/>
		<polygon class="st2" points="381.21,67.07 357.41,68.5 357.41,65.52 381.21,64.07 		"/>
		<polygon class="st1" points="314.09,77.67 311.4,77.83 311.4,74.89 314.09,74.73 		"/>
		<polygon class="st1" points="330.57,76.71 317.43,77.47 317.43,74.53 330.57,73.76 		"/>
		<polygon class="st1" points="314.09,84.24 311.4,84.39 311.4,81.46 314.09,81.3 		"/>
		<polygon class="st1" points="340.91,82.73 317.43,84.05 317.43,81.11 340.91,79.77 		"/>
		<polygon class="st2" points="375.78,74.08 357.41,75.15 357.41,72.17 375.78,71.09 		"/>
		<polygon class="st2" points="363.01,81.49 357.41,81.8 357.41,78.83 363.01,78.51 		"/>
	</g>
	<polygon class="st5" points="455.32,258.15 446.22,174.81 438.14,179.73 452.34,258.11 	"/>
	<polygon class="st5" points="240.27,265.25 236.84,265.21 248.76,179.01 259,178.35 	"/>
	<polygon class="st5" points="264.44,251.52 280.17,177.05 271.17,178.11 261.45,251.48 	"/>
	<polygon class="st5" points="423.94,271.79 427.37,271.84 417.49,181.44 406.92,180.52 	"/>
	<polygon class="st2" points="456.99,188.15 482.07,173.93 482.6,165.95 457.08,180.47 	"/>
	<polygon class="st6" points="457.08,180.47 482.6,165.95 256.42,165.85 213.9,178.16 214.54,178.74 	"/>
	<polygon class="st7" points="213.9,178.16 213.9,184.81 456.99,188.15 457.08,180.47 	"/>
	<g>
		<path class="st8" d="M360.98,164.65c-1.52,0.49-0.89,1.8,0.74,1.77c7.31-0.14,14.55,0.15,18.08,0.4c4.43,0.32,7.74-0.36,8.79-1.2
			c0.83-0.66,0.57-1.84-1.51-2.06C382.44,163.08,362.36,164.2,360.98,164.65z"/>
		<path class="st9" d="M372.25,163.35c-12.79,0.61-14.91,2.16-7.58,2.11c7.33-0.05,11.75,0.12,15.28,0.37
			c7.95,0.57,11.29-1.95,6.62-2.34C381.91,163.1,375.05,163.22,372.25,163.35z"/>
		<polygon class="st10" points="381.44,164.23 379.46,164.73 366.47,154.11 378.14,154.25 		"/>
		<polygon class="st8" points="379.51,164.73 367.02,164.73 363.5,154.11 375.99,154.11 		"/>
		<path class="st9" d="M412.23,103.13l-2.97,0.05c0.41,0.12,0.72,0.49,0.71,0.94l-1.09,52.54c-0.01,0.53-0.44,0.95-0.97,0.95h3.25
			c0.53,0,0.96-0.42,0.97-0.95l1.09-52.54C413.24,103.57,412.79,103.12,412.23,103.13z"/>
		<polygon class="st11" points="334.14,107.77 408.63,104.82 408.29,156.59 333.01,156.03 		"/>
		<path class="st8" d="M350.19,169.62c-2.05,0.94-1.91,3.2,0.03,3.61c1.17,0.25,3.05,0.54,5.02,0.61
			c12.65,0.5,20.25,1.62,26.31,2.72c7.6,1.38,13.38-0.2,15.27-2.47c1.5-1.8,0.41-4.15-3.16-4.99
			C385.7,167.23,352.62,168.5,350.19,169.62z"/>
		<path class="st9" d="M368.59,167.07c-6.52,0.1-11.46,0.44-14.83,1.12c-1.82,0.37-7.48,2.74-3.42,3.61
			c1.17,0.25,2.98,0.37,4.97,0.47c12.65,0.65,20.25,1.62,26.31,2.72c13.65,2.49,19.66-4.34,11.65-5.98
			C385.26,167.38,373.43,166.99,368.59,167.07z"/>
		<path class="st8" d="M352.43,170.77c21.63-0.11,32.24,2.06,34.63,2.56c0.3,0.06,0.6-0.02,0.81-0.23c0.67-0.64,2.23-2.08,4.07-3.44
			c0.21-0.15,0.13-0.48-0.12-0.53c-20.38-3.76-34.87-1.42-34.87-1.42c-1.32,0.36-3.45,1.52-4.71,2.52
			C352.01,170.4,352.14,170.77,352.43,170.77z"/>
		<polygon class="st12" points="407.1,124.45 370.07,125.59 370.07,116.94 407.23,115.67 		"/>
		<polygon class="st13" points="381.55,150.05 372.49,150.05 372.56,141.81 381.65,141.66 		"/>
		<polygon class="st14" points="392.28,149.96 383.23,149.96 383.29,141.72 392.39,141.56 		"/>
		<polygon class="st3" points="402.72,149.96 393.82,149.93 393.81,141.53 402.91,141.37 		"/>
		
			<rect x="377.06" y="128.02" transform="matrix(0.9998 -0.0184 0.0184 0.9998 -2.3087 7.1742)" class="st9" width="23.29" height="2.05"/>
		
			<rect x="377.07" y="132.11" transform="matrix(0.9998 -0.0197 0.0197 0.9998 -2.5473 7.6841)" class="st9" width="23.35" height="2.05"/>
		<polygon class="st9" points="377.08,138.5 377.06,136.45 394.79,136.18 394.82,138.24 		"/>
		<polygon class="st9" points="374.27,113.52 374.21,111.47 390.37,110.88 390.43,112.93 		"/>
		<polygon class="st15" points="371.29,106.1 336.18,107.77 335.04,156.03 370.33,156 		"/>
		
			<rect x="341.96" y="111.99" transform="matrix(0.9995 -0.0324 0.0324 0.9995 -3.4782 11.3767)" class="st9" width="14.7" height="2.05"/>
		
			<rect x="346.63" y="116.47" transform="matrix(0.9995 -0.0311 0.0311 0.9995 -3.483 11.0652)" class="st9" width="14.67" height="2.05"/>
		
			<rect x="346.65" y="121.13" transform="matrix(0.9997 -0.0264 0.0264 0.9997 -3.101 9.423)" class="st9" width="17.37" height="2.05"/>
		
			<rect x="341.78" y="126.02" transform="matrix(0.9999 -0.0164 0.0164 0.9999 -2.0364 5.7503)" class="st9" width="15.64" height="2.05"/>
		
			<rect x="346.72" y="130.51" transform="matrix(0.9998 -0.0187 0.0187 0.9998 -2.3977 6.6634)" class="st9" width="16.75" height="2.05"/>
		
			<rect x="351.22" y="135.09" transform="matrix(0.9998 -0.021 0.021 0.9998 -2.7793 7.5628)" class="st9" width="14.99" height="2.05"/>
		
			<rect x="351.2" y="139.86" transform="matrix(0.9999 -0.0117 0.0117 0.9999 -1.6241 4.1757)" class="st9" width="9.73" height="2.05"/>
		
			<rect x="346.74" y="144.55" transform="matrix(1 -8.625660e-03 8.625660e-03 1 -1.2424 3.0779)" class="st9" width="18.93" height="2.05"/>
		
			<rect x="351.22" y="149.2" transform="matrix(1 -7.323825e-03 7.323825e-03 1 -1.0907 2.6196)" class="st9" width="11.83" height="2.05"/>
		<path class="st10" d="M408.98,103.13l-75.04,2.96c-0.52,0.01-0.95,0.43-0.96,0.95l-1.09,49.58c-0.01,0.55,0.43,0.99,0.97,0.99
			h75.04c0.53,0,0.96-0.42,0.97-0.95l1.09-52.54C409.98,103.57,409.53,103.12,408.98,103.13z M404.8,153.62
			c-0.01,0.47-0.39,0.84-0.86,0.84h-67.6c-0.48,0-0.87-0.39-0.86-0.87l0.96-43.62c0.01-0.46,0.38-0.83,0.84-0.84l67.6-2.6
			c0.49-0.01,0.88,0.39,0.87,0.87L404.8,153.62z"/>
		<polygon class="st3" points="347.93,112.03 341.92,112.22 341.99,114.28 347.93,114.08 		"/>
		<polygon class="st3" points="352.39,121.21 346.6,121.37 346.66,123.42 352.39,123.27 		"/>
		<polygon class="st3" points="352.77,144.57 346.72,144.62 346.73,146.67 352.77,146.62 		"/>
	</g>
	
		<rect x="276.26" y="191.28" transform="matrix(0.9919 -0.1274 0.1274 0.9919 -22.162 37.4354)" class="st16" width="10.64" height="1.39"/>
	<path class="st17" d="M139.33,144.09c-0.89,11.57,2.18,38.02,3.84,47.37c1.83,10.31,5.5,17.19,12.61,17.19c5.83,0,18.29,0,22.58,0
		C170.24,186.21,151.45,155.65,139.33,144.09z"/>
	<path class="st5" d="M178.17,272.52l1.69-50.49c0.59-5.24,2.11-7.98,5.4-9.75l-1.65-3.57c-5.62,3.04-6.91,8.24-7.43,12.94
		l-1.71,50.88L178.17,272.52L178.17,272.52z"/>
	<path class="st5" d="M200.14,224.13l4.61,54.13h3.71l-4.64-54.58l-0.02-0.18c-1.64-9.59-2.82-12.55-8.05-15.08l-1.51,3.64
		C197.68,213.73,198.57,214.96,200.14,224.13z"/>
	<path class="st5" d="M142.53,278.26L156,218.8c0.79-3.5,3.68-5.94,7.01-5.94h60.84c3.17,0,6.02,2.29,6.92,5.58l14.62,54.08h3.86
		l-14.94-55.23c-1.37-4.96-5.67-8.43-10.46-8.43h-60.84c-5.04,0-9.41,3.7-10.6,8.99l-13.69,60.41H142.53z"/>
	
		<linearGradient id="SVGID_2_" gradientUnits="userSpaceOnUse" x1="208.9252" y1="109.15" x2="208.9252" y2="93.11" gradientTransform="matrix(1 0 0 -1 -13.3952 302)">
		<stop  offset="0.7648" style="stop-color:#22B5D6"/>
		<stop  offset="1" style="stop-color:#1595B2"/>
	</linearGradient>
	<path class="st18" d="M234.31,208.89h-77.56c-4.43,0-8.02-3.59-8.02-8.02l0,0c0-4.43,3.59-8.02,8.02-8.02h77.56
		c4.43,0,8.02,3.59,8.02,8.02l0,0C242.33,205.29,238.74,208.89,234.31,208.89z"/>
	
		<radialGradient id="SVGID_3_" cx="-12212.5342" cy="150.092" r="64.0597" gradientTransform="matrix(-0.9467 0 0 -1 -11400.3623 302)" gradientUnits="userSpaceOnUse">
		<stop  offset="0" style="stop-color:#22B5D6"/>
		<stop  offset="0.8095" style="stop-color:#1189A5"/>
	</radialGradient>
	<path class="st19" d="M138.91,141.04c1.3-6.42,5.21-8.94,11.72-9.17c3.9-0.14,8.37-0.46,16.4,0.92s12.96,6.63,23.2,20
		c17.54,22.89,31.57,55.87,31.57,55.87h-31.63c2.28-2.1,3.61-4.62,3.61-7.34c0-7.29-9.55-13.19-21.32-13.19s-21.32,5.91-21.32,13.19
		c0,2.72,1.33,5.24,3.61,7.34c-0.22,0-0.44,0-0.64,0c-6.73,0-10.2-6.88-11.93-17.19C140.43,181.15,137.08,150.06,138.91,141.04z"/>
	<g>
		
			<linearGradient id="SVGID_4_" gradientUnits="userSpaceOnUse" x1="1588.6898" y1="218.2296" x2="1588.6898" y2="176.5066" gradientTransform="matrix(-1.0078 0.201 -0.0634 -0.9796 1897.744 80.174)">
			<stop  offset="0" style="stop-color:#522CD5"/>
			<stop  offset="0.4397" style="stop-color:#8A6FE8"/>
		</linearGradient>
		<path class="st20" d="M289.94,225.7c1.34-8.57,2.64-25.97-4.09-40.58l-9.41,5.21c6.1,13.25,4.47,28.67,3.31,35.4
			C279.66,226.29,284.77,226.82,289.94,225.7z"/>
		
			<linearGradient id="SVGID_5_" gradientUnits="userSpaceOnUse" x1="1588.6898" y1="218.2296" x2="1588.6898" y2="176.5066" gradientTransform="matrix(-1.0078 0.201 -0.0634 -0.9796 1897.744 80.174)">
			<stop  offset="0" style="stop-color:#522CD5"/>
			<stop  offset="0.4397" style="stop-color:#8A6FE8"/>
		</linearGradient>
		<path class="st21" d="M289.94,225.7c1.34-8.57,2.64-25.97-4.09-40.58l-9.41,5.21c6.1,13.25,4.47,28.67,3.31,35.4
			C279.66,226.29,284.77,226.82,289.94,225.7z"/>
		<path class="st22" d="M279.78,225.64h8.01c0.52,2.58-0.95,16.19,21.49,33.39l-1.37,9.46l-34.93-0.02c-1.22,0-2.02-0.95-1.76-2.17
			L279.78,225.64z"/>
		
			<linearGradient id="SVGID_6_" gradientUnits="userSpaceOnUse" x1="1553.1007" y1="79.1258" x2="1526.2596" y2="32.6355" gradientTransform="matrix(-1 0 0.2105 -1 1826.1887 302)">
			<stop  offset="0" style="stop-color:#522CD5"/>
			<stop  offset="0.4397" style="stop-color:#8A6FE8"/>
		</linearGradient>
		<path class="st23" d="M310.24,257.08c1.34,0.97,1.42,2.07,1.07,3.74l-1.2,5.98c-0.19,0.92-1.1,1.67-2.02,1.67h-0.18
			c-1.04,0-1.71-0.84-1.49-1.89l0.82-4.87c0.41-1.93,0.4-3.15-1.37-4.47c-10.46-7.79-23.1-18.81-21.46-31.62h5.54
			C289.55,232.2,292.63,244.31,310.24,257.08z"/>
		
			<radialGradient id="SVGID_7_" cx="624.8207" cy="44.6231" r="8.9398" fx="615.884" fy="44.3896" gradientTransform="matrix(1 0 0.1405 -1 -325.002 302)" gradientUnits="userSpaceOnUse">
			<stop  offset="0.034" style="stop-color:#522CD5"/>
			<stop  offset="1" style="stop-color:#8A6FE8"/>
		</radialGradient>
		<path class="st24" d="M307.01,258.44c0.58,0.93,0.51,1.93,0.23,3.28l-0.82,4.87c-0.22,1.04,0.45,1.88,1.49,1.89h0.18
			c0.92,0,1.83-0.75,2.02-1.67l1.2-5.98c0.2-0.96,0.25-1.72,0.01-2.39L307.01,258.44L307.01,258.44z"/>
	</g>
	<g>
		
			<linearGradient id="SVGID_8_" gradientUnits="userSpaceOnUse" x1="1604.7751" y1="221.53" x2="1604.7751" y2="179.8071" gradientTransform="matrix(-1.0078 0.201 -0.0634 -0.9796 1897.744 80.174)">
			<stop  offset="0" style="stop-color:#522CD5"/>
			<stop  offset="0.4397" style="stop-color:#8A6FE8"/>
		</linearGradient>
		<path class="st25" d="M273.52,225.7c1.34-8.57,2.64-25.97-4.09-40.58l-9.41,5.21c6.1,13.25,4.47,28.67,3.31,35.4
			C263.24,226.29,268.35,226.82,273.52,225.7z"/>
		
			<linearGradient id="SVGID_9_" gradientUnits="userSpaceOnUse" x1="1604.7751" y1="221.53" x2="1604.7751" y2="179.8071" gradientTransform="matrix(-1.0078 0.201 -0.0634 -0.9796 1897.744 80.174)">
			<stop  offset="0" style="stop-color:#522CD5"/>
			<stop  offset="0.4397" style="stop-color:#8A6FE8"/>
		</linearGradient>
		<path class="st26" d="M273.52,225.7c1.34-8.57,2.64-25.97-4.09-40.58l-9.41,5.21c6.1,13.25,4.47,28.67,3.31,35.4
			C263.24,226.29,268.35,226.82,273.52,225.7z"/>
		<path class="st22" d="M263.35,225.64h8.01c0.52,2.58-0.95,16.19,21.49,33.39l-1.37,9.46l-34.93-0.02c-1.22,0-2.02-0.95-1.76-2.17
			L263.35,225.64z"/>
		
			<linearGradient id="SVGID_10_" gradientUnits="userSpaceOnUse" x1="1569.5208" y1="79.1258" x2="1542.6796" y2="32.6355" gradientTransform="matrix(-1 0 0.2105 -1 1826.1887 302)">
			<stop  offset="0" style="stop-color:#522CD5"/>
			<stop  offset="0.4397" style="stop-color:#8A6FE8"/>
		</linearGradient>
		<path class="st27" d="M293.82,257.08c1.34,0.97,1.42,2.07,1.07,3.74l-1.2,5.98c-0.19,0.92-1.1,1.67-2.02,1.67h-0.18
			c-1.04,0-1.71-0.84-1.49-1.89l0.82-4.87c0.41-1.93,0.4-3.15-1.37-4.47c-10.46-7.79-23.1-18.81-21.46-31.62h5.54
			C273.12,232.2,276.21,244.31,293.82,257.08z"/>
		
			<radialGradient id="SVGID_11_" cx="608.3983" cy="44.6231" r="8.9398" fx="599.4615" fy="44.3896" gradientTransform="matrix(1 0 0.1405 -1 -325.002 302)" gradientUnits="userSpaceOnUse">
			<stop  offset="0.034" style="stop-color:#522CD5"/>
			<stop  offset="1" style="stop-color:#8A6FE8"/>
		</radialGradient>
		<path class="st28" d="M290.59,258.44c0.58,0.93,0.51,1.93,0.23,3.28L290,266.6c-0.22,1.04,0.45,1.88,1.49,1.89h0.18
			c0.92,0,1.83-0.75,2.02-1.67l1.2-5.98c0.2-0.96,0.25-1.72,0.01-2.39L290.59,258.44L290.59,258.44z"/>
	</g>
	<g>
		
			<rect x="274.84" y="179.55" transform="matrix(0.9977 -0.0671 0.0671 0.9977 -11.4637 19.2062)" class="st16" width="10.64" height="1.39"/>
		
			<radialGradient id="SVGID_12_" cx="1742.839" cy="1976.1418" r="46.6834" gradientTransform="matrix(0.9785 -0.2062 -0.2062 -0.9785 -1027.8624 2406.2874)" gradientUnits="userSpaceOnUse">
			<stop  offset="0.4744" style="stop-color:#A08BE8"/>
			<stop  offset="0.8618" style="stop-color:#8065E0"/>
		</radialGradient>
		<path class="st29" d="M321.66,155.85c3.25-14,0.61-25.04,0.61-25.04l3.27-0.09l0.08-0.07c-5.37-25.39-28.24-44.12-55.11-43.4
			c-30.27,0.81-54.15,26.01-53.34,56.28s26.01,54.15,56.28,53.34c23.89-0.64,43.79-16.47,50.73-37.99
			C324.38,157.98,324.32,156.36,321.66,155.85z"/>
		
			<radialGradient id="SVGID_13_" cx="1774.5072" cy="1941.802" r="35.8641" fx="1810.0989" fy="1937.3903" gradientTransform="matrix(0.9785 -0.2062 -0.2062 -0.9785 -1027.8624 2406.2874)" gradientUnits="userSpaceOnUse">
			<stop  offset="0.2022" style="stop-color:#E1DFDD"/>
			<stop  offset="0.7337" style="stop-color:#FFFFFF"/>
		</radialGradient>
		<path class="st30" d="M321.66,155.85c3.21-13.83,0.68-24.76,0.62-25.03l-25.29,0.59c0,0-3.59-0.27-3.51,3s0.47,12.52,0.74,22.74
			C294.29,159.26,321.12,157.81,321.66,155.85z"/>
		<path class="st16" d="M321.67,155.8c0.12-0.53,0.23-1.05,0.34-1.57c0.53-2.62,0.87-5.12,1.06-7.45c-1.13-0.39-2.25-0.09-3.46,0.87
			c-1.67,1.33-10.23,8.48-10.23,8.48L321.67,155.8z"/>
		<path class="st31" d="M323.98,159.53c0,0,1.44-2.96-2.32-3.68c0-0.01,0.01-0.03,0.01-0.04l-24.34,0.56c-1.3,0.03-3-0.7-3.18-1.95
			c0.03,0.9,0.05,1.82,0.08,2.74c0.05,1.91,1.5,2.88,2.78,3.02c0.13,0.01,0.26,0.02,0.39,0.02l3.82-0.1L323.98,159.53z"/>
		<path class="st32" d="M319.99,168.56l-94.52,2.53c2.22,3.55,4.83,6.82,7.77,9.75l79.51-2.13
			C315.54,175.63,317.97,172.22,319.99,168.56z"/>
		<path class="st31" d="M310.34,181.24c4.58-4.49,8.38-9.78,11.16-15.63l-11.57,0.31L310.34,181.24z"/>
		<g>
			<polygon class="st33" points="274.09,85.06 263.5,85.27 264.77,74.36 272.37,74.21 			"/>
		</g>
		
			<radialGradient id="SVGID_14_" cx="1746.4766" cy="2001.3811" r="8.0792" gradientTransform="matrix(0.9785 -0.2062 -0.2062 -0.9785 -1027.8624 2406.2874)" gradientUnits="userSpaceOnUse">
			<stop  offset="0" style="stop-color:#8065E0"/>
			<stop  offset="0.8628" style="stop-color:#512BD4"/>
		</radialGradient>
		<path class="st34" d="M278.28,91.62c0.48-0.01,0.85-0.43,0.79-0.9c-0.66-5.02-5-8.84-10.18-8.74s-9.36,4.1-9.82,9.14
			c-0.04,0.48,0.35,0.88,0.82,0.87L278.28,91.62z"/>
		<g>
			
				<ellipse transform="matrix(1 -4.081635e-03 4.081635e-03 1 -0.5855 1.2659)" class="st31" cx="309.85" cy="144.09" rx="4.29" ry="7.21"/>
			<path class="st35" d="M309.73,140.28c-1.54,1.6-1.49,4.14,0.11,5.67c1.09,1.05,2.63,1.36,3.98,0.94
				c0.21-0.86,0.33-1.82,0.33-2.81c-0.01-1.95-0.48-3.72-1.23-5.01C311.76,138.97,310.59,139.38,309.73,140.28z"/>
		</g>
		<circle class="st32" cx="268.54" cy="68.85" r="7.65"/>
	</g>
	<g>
		<path class="st33" d="M336.25,178.98l7.27-6.58c1.92-1.77,1.91-4.7-0.02-6.55s-5.06-1.93-6.98-0.16l-7.45,6.74L336.25,178.98z"/>
		<path class="st33" d="M325.67,189.65l9.39,4.14c2.51,1.09,5.34,0.06,6.33-2.3s-0.25-5.15-2.76-6.24l-9.62-4.25L325.67,189.65z"/>
		<path class="st33" d="M334.95,184.12l10.1-1.8c2.69-0.5,4.45-2.93,3.95-5.44c-0.51-2.5-3.1-4.13-5.78-3.63l-10.35,1.85
			L334.95,184.12z"/>
		<path class="st33" d="M332.27,188.12l10.16,1.39c2.71,0.35,5.14-1.42,5.43-3.96c0.29-2.54-1.68-4.88-4.39-5.23l-10.42-1.42
			L332.27,188.12z"/>
		<g>
			
				<linearGradient id="SVGID_15_" gradientUnits="userSpaceOnUse" x1="-4047.854" y1="5342.103" x2="-4082.0884" y2="5278.3311" gradientTransform="matrix(-0.9698 -0.2439 0.2439 -0.9698 -4936.7729 4321.4839)">
				<stop  offset="0.3344" style="stop-color:#9780E6"/>
				<stop  offset="0.8488" style="stop-color:#8A6FE8"/>
			</linearGradient>
			<path class="st36" d="M331.75,187.48l-0.71-10.24c-11.38,0.35-21.57,0.28-29.7-3.04c-16.2-6.63-19.88-27.35-20.56-33.13
				l-12.29,1.21C272.58,158.21,278.31,192.17,331.75,187.48z"/>
			
				<radialGradient id="SVGID_16_" cx="1302.9561" cy="2909.3184" r="14.9535" gradientTransform="matrix(0.9971 0.0761 0.0761 -0.9971 -1244.8478 2941.9724)" gradientUnits="userSpaceOnUse">
				<stop  offset="0" style="stop-color:#8065E0"/>
				<stop  offset="0.8628" style="stop-color:#512BD4"/>
			</radialGradient>
			<circle class="st37" cx="275.07" cy="144.48" r="10.07"/>
			
				<radialGradient id="SVGID_17_" cx="-4832.7495" cy="7273.6812" r="21.5376" gradientTransform="matrix(-0.7776 -0.2322 0.2167 -0.7257 -5003.1938 4331.8994)" gradientUnits="userSpaceOnUse">
				<stop  offset="0" style="stop-color:#8065E0"/>
				<stop  offset="0.8628" style="stop-color:#512BD4"/>
			</radialGradient>
			<path class="st38" d="M324.71,172.45c5-2.4,11.26-0.45,14,4.36s0.9,10.66-4.09,13.06c-5,2.4-11.26,0.45-14-4.36
				S319.72,174.85,324.71,172.45z"/>
		</g>
	</g>
</g>
</svg>
