<svg width="803" height="290" viewBox="0 0 803 290" fill="none" xmlns="http://www.w3.org/2000/svg">
<path d="M16.73 43V13.18H35V18.64H22.82V25.99H33.656V31.408H22.82V43H16.73ZM48.8814 43.63C47.2294 43.63 45.7034 43.336 44.3034 42.748C42.9034 42.16 41.6854 41.348 40.6494 40.312C39.6134 39.248 38.8014 38.002 38.2134 36.574C37.6534 35.146 37.3734 33.592 37.3734 31.912C37.3734 30.232 37.6674 28.692 38.2554 27.292C38.8434 25.864 39.6554 24.618 40.6914 23.554C41.7554 22.49 42.9874 21.664 44.3874 21.076C45.8154 20.488 47.3694 20.194 49.0494 20.194C50.7014 20.194 52.2274 20.488 53.6274 21.076C55.0274 21.664 56.2454 22.49 57.2814 23.554C58.3174 24.59 59.1154 25.822 59.6754 27.25C60.2634 28.65 60.5574 30.19 60.5574 31.87C60.5574 33.55 60.2634 35.104 59.6754 36.532C59.0874 37.96 58.2614 39.206 57.1974 40.27C56.1614 41.334 54.9294 42.16 53.5014 42.748C52.1014 43.336 50.5614 43.63 48.8814 43.63ZM48.9654 38.338C50.0294 38.338 50.9814 38.058 51.8214 37.498C52.6614 36.938 53.3194 36.182 53.7954 35.23C54.2994 34.25 54.5514 33.144 54.5514 31.912C54.5514 30.68 54.2994 29.588 53.7954 28.636C53.3194 27.656 52.6614 26.886 51.8214 26.326C50.9814 25.766 50.0294 25.486 48.9654 25.486C47.9014 25.486 46.9494 25.766 46.1094 26.326C45.2694 26.886 44.5974 27.656 44.0934 28.636C43.6174 29.588 43.3794 30.68 43.3794 31.912C43.3794 33.144 43.6174 34.25 44.0934 35.23C44.5974 36.182 45.2694 36.938 46.1094 37.498C46.9494 38.058 47.9014 38.338 48.9654 38.338ZM64.4223 43V11.668H70.3023V43H64.4223ZM75.0044 43V11.668H80.8844V43H75.0044ZM96.2544 43.63C94.6024 43.63 93.0764 43.336 91.6764 42.748C90.2764 42.16 89.0584 41.348 88.0224 40.312C86.9864 39.248 86.1744 38.002 85.5864 36.574C85.0264 35.146 84.7464 33.592 84.7464 31.912C84.7464 30.232 85.0404 28.692 85.6284 27.292C86.2164 25.864 87.0284 24.618 88.0644 23.554C89.1284 22.49 90.3604 21.664 91.7604 21.076C93.1884 20.488 94.7424 20.194 96.4224 20.194C98.0744 20.194 99.6004 20.488 101 21.076C102.4 21.664 103.618 22.49 104.654 23.554C105.69 24.59 106.488 25.822 107.048 27.25C107.636 28.65 107.93 30.19 107.93 31.87C107.93 33.55 107.636 35.104 107.048 36.532C106.46 37.96 105.634 39.206 104.57 40.27C103.534 41.334 102.302 42.16 100.874 42.748C99.4744 43.336 97.9344 43.63 96.2544 43.63ZM96.3384 38.338C97.4024 38.338 98.3544 38.058 99.1944 37.498C100.034 36.938 100.692 36.182 101.168 35.23C101.672 34.25 101.924 33.144 101.924 31.912C101.924 30.68 101.672 29.588 101.168 28.636C100.692 27.656 100.034 26.886 99.1944 26.326C98.3544 25.766 97.4024 25.486 96.3384 25.486C95.2744 25.486 94.3224 25.766 93.4824 26.326C92.6424 26.886 91.9704 27.656 91.4664 28.636C90.9904 29.588 90.7524 30.68 90.7524 31.912C90.7524 33.144 90.9904 34.25 91.4664 35.23C91.9704 36.182 92.6424 36.938 93.4824 37.498C94.3224 38.058 95.2744 38.338 96.3384 38.338ZM116.599 43L109.249 20.824H115.297L119.455 35.818L123.949 20.824H129.031L133.525 35.86L137.767 20.824H143.605L136.255 43H130.837L126.385 28.006L121.933 43H116.599ZM155.568 43V13.18H161.448L170.856 30.4L180.306 13.18H185.976V43H179.928V24.142L172.998 36.784H168.546L161.616 24.142V43H155.568ZM201.538 43.63C199.886 43.63 198.36 43.35 196.96 42.79C195.588 42.202 194.398 41.39 193.39 40.354C192.382 39.29 191.598 38.044 191.038 36.616C190.478 35.16 190.198 33.578 190.198 31.87C190.198 30.218 190.478 28.678 191.038 27.25C191.598 25.822 192.368 24.59 193.348 23.554C194.356 22.49 195.532 21.664 196.876 21.076C198.22 20.488 199.676 20.194 201.244 20.194C202.868 20.194 204.338 20.474 205.654 21.034C206.998 21.594 208.146 22.392 209.098 23.428C210.05 24.464 210.778 25.696 211.282 27.124C211.814 28.552 212.08 30.148 212.08 31.912V33.382H196.162C196.414 35.034 197.016 36.336 197.968 37.288C198.92 38.212 200.124 38.674 201.58 38.674C202.588 38.674 203.498 38.436 204.31 37.96C205.15 37.484 205.836 36.798 206.368 35.902L211.618 37.582C211.114 38.842 210.358 39.92 209.35 40.816C208.342 41.712 207.166 42.412 205.822 42.916C204.478 43.392 203.05 43.63 201.538 43.63ZM201.244 24.73C199.956 24.73 198.864 25.15 197.968 25.99C197.1 26.83 196.526 27.978 196.246 29.434H206.032C205.808 27.978 205.262 26.83 204.394 25.99C203.554 25.15 202.504 24.73 201.244 24.73ZM226.69 43V25.57H222.91V20.824H226.69V19.564C226.69 18.36 226.886 17.254 227.278 16.246C227.698 15.21 228.272 14.328 229 13.6C229.756 12.844 230.638 12.27 231.646 11.878C232.682 11.458 233.802 11.248 235.006 11.248C235.93 11.248 236.756 11.36 237.484 11.584C238.24 11.808 238.884 12.06 239.416 12.34L238.24 16.834C237.904 16.666 237.512 16.526 237.064 16.414C236.644 16.274 236.238 16.204 235.846 16.204C234.726 16.204 233.9 16.54 233.368 17.212C232.836 17.856 232.57 18.766 232.57 19.942V20.824H238.45V25.57H232.57V43H226.69ZM251.786 43.63C250.134 43.63 248.608 43.336 247.208 42.748C245.808 42.16 244.59 41.348 243.554 40.312C242.518 39.248 241.706 38.002 241.118 36.574C240.558 35.146 240.278 33.592 240.278 31.912C240.278 30.232 240.572 28.692 241.16 27.292C241.748 25.864 242.56 24.618 243.596 23.554C244.66 22.49 245.892 21.664 247.292 21.076C248.72 20.488 250.274 20.194 251.954 20.194C253.606 20.194 255.132 20.488 256.532 21.076C257.932 21.664 259.15 22.49 260.186 23.554C261.222 24.59 262.02 25.822 262.58 27.25C263.168 28.65 263.462 30.19 263.462 31.87C263.462 33.55 263.168 35.104 262.58 36.532C261.992 37.96 261.166 39.206 260.102 40.27C259.066 41.334 257.834 42.16 256.406 42.748C255.006 43.336 253.466 43.63 251.786 43.63ZM251.87 38.338C252.934 38.338 253.886 38.058 254.726 37.498C255.566 36.938 256.224 36.182 256.7 35.23C257.204 34.25 257.456 33.144 257.456 31.912C257.456 30.68 257.204 29.588 256.7 28.636C256.224 27.656 255.566 26.886 254.726 26.326C253.886 25.766 252.934 25.486 251.87 25.486C250.806 25.486 249.854 25.766 249.014 26.326C248.174 26.886 247.502 27.656 246.998 28.636C246.522 29.588 246.284 30.68 246.284 31.912C246.284 33.144 246.522 34.25 246.998 35.23C247.502 36.182 248.174 36.938 249.014 37.498C249.854 38.058 250.806 38.338 251.87 38.338ZM267.327 43V20.824H272.745L272.955 24.184C273.515 23.008 274.271 22.112 275.223 21.496C276.175 20.852 277.295 20.53 278.583 20.53C278.975 20.53 279.367 20.572 279.759 20.656C280.151 20.712 280.501 20.796 280.809 20.908L280.179 26.704C279.871 26.592 279.549 26.522 279.213 26.494C278.905 26.438 278.583 26.41 278.247 26.41C276.623 26.41 275.377 26.914 274.509 27.922C273.641 28.902 273.207 30.302 273.207 32.122V43H267.327ZM292.797 43V20.824H298.215L298.383 23.638C299.027 22.574 299.895 21.734 300.987 21.118C302.079 20.502 303.311 20.194 304.683 20.194C306.167 20.194 307.483 20.558 308.631 21.286C309.807 22.014 310.717 23.022 311.361 24.31C312.033 23.078 312.999 22.084 314.259 21.328C315.547 20.572 317.017 20.194 318.669 20.194C320.321 20.194 321.749 20.586 322.953 21.37C324.157 22.126 325.081 23.218 325.725 24.646C326.397 26.074 326.733 27.754 326.733 29.686V43H320.853V30.442C320.853 28.902 320.517 27.698 319.845 26.83C319.173 25.934 318.235 25.486 317.031 25.486C316.191 25.486 315.435 25.696 314.763 26.116C314.119 26.508 313.615 27.068 313.251 27.796C312.887 28.524 312.705 29.35 312.705 30.274V43H306.825V30.442C306.825 28.902 306.489 27.698 305.817 26.83C305.145 25.934 304.207 25.486 303.003 25.486C302.163 25.486 301.407 25.696 300.735 26.116C300.091 26.508 299.587 27.068 299.223 27.796C298.859 28.524 298.677 29.35 298.677 30.274V43H292.797ZM342.102 43.63C340.45 43.63 338.924 43.336 337.524 42.748C336.124 42.16 334.906 41.348 333.87 40.312C332.834 39.248 332.022 38.002 331.434 36.574C330.874 35.146 330.594 33.592 330.594 31.912C330.594 30.232 330.888 28.692 331.476 27.292C332.064 25.864 332.876 24.618 333.912 23.554C334.976 22.49 336.208 21.664 337.608 21.076C339.036 20.488 340.59 20.194 342.27 20.194C343.922 20.194 345.448 20.488 346.848 21.076C348.248 21.664 349.466 22.49 350.502 23.554C351.538 24.59 352.336 25.822 352.896 27.25C353.484 28.65 353.778 30.19 353.778 31.87C353.778 33.55 353.484 35.104 352.896 36.532C352.308 37.96 351.482 39.206 350.418 40.27C349.382 41.334 348.15 42.16 346.722 42.748C345.322 43.336 343.782 43.63 342.102 43.63ZM342.186 38.338C343.25 38.338 344.202 38.058 345.042 37.498C345.882 36.938 346.54 36.182 347.016 35.23C347.52 34.25 347.772 33.144 347.772 31.912C347.772 30.68 347.52 29.588 347.016 28.636C346.54 27.656 345.882 26.886 345.042 26.326C344.202 25.766 343.25 25.486 342.186 25.486C341.122 25.486 340.17 25.766 339.33 26.326C338.49 26.886 337.818 27.656 337.314 28.636C336.838 29.588 336.6 30.68 336.6 31.912C336.6 33.144 336.838 34.25 337.314 35.23C337.818 36.182 338.49 36.938 339.33 37.498C340.17 38.058 341.122 38.338 342.186 38.338ZM357.643 43V20.824H363.061L363.271 24.184C363.831 23.008 364.587 22.112 365.539 21.496C366.491 20.852 367.611 20.53 368.899 20.53C369.291 20.53 369.683 20.572 370.075 20.656C370.467 20.712 370.817 20.796 371.125 20.908L370.495 26.704C370.187 26.592 369.865 26.522 369.529 26.494C369.221 26.438 368.899 26.41 368.563 26.41C366.939 26.41 365.693 26.914 364.825 27.922C363.957 28.902 363.523 30.302 363.523 32.122V43H357.643ZM384.262 43.63C382.61 43.63 381.084 43.35 379.684 42.79C378.312 42.202 377.122 41.39 376.114 40.354C375.106 39.29 374.322 38.044 373.762 36.616C373.202 35.16 372.922 33.578 372.922 31.87C372.922 30.218 373.202 28.678 373.762 27.25C374.322 25.822 375.092 24.59 376.072 23.554C377.08 22.49 378.256 21.664 379.6 21.076C380.944 20.488 382.4 20.194 383.968 20.194C385.592 20.194 387.062 20.474 388.378 21.034C389.722 21.594 390.87 22.392 391.822 23.428C392.774 24.464 393.502 25.696 394.006 27.124C394.538 28.552 394.804 30.148 394.804 31.912V33.382H378.886C379.138 35.034 379.74 36.336 380.692 37.288C381.644 38.212 382.848 38.674 384.304 38.674C385.312 38.674 386.222 38.436 387.034 37.96C387.874 37.484 388.56 36.798 389.092 35.902L394.342 37.582C393.838 38.842 393.082 39.92 392.074 40.816C391.066 41.712 389.89 42.412 388.546 42.916C387.202 43.392 385.774 43.63 384.262 43.63ZM383.968 24.73C382.68 24.73 381.588 25.15 380.692 25.99C379.824 26.83 379.25 27.978 378.97 29.434H388.756C388.532 27.978 387.986 26.83 387.118 25.99C386.278 25.15 385.228 24.73 383.968 24.73ZM413.531 14.818C413.531 15.462 413.377 16.036 413.069 16.54C412.789 17.044 412.383 17.45 411.851 17.758C411.347 18.038 410.787 18.178 410.171 18.178C409.555 18.178 408.981 18.038 408.449 17.758C407.945 17.45 407.539 17.044 407.231 16.54C406.951 16.036 406.811 15.462 406.811 14.818C406.811 14.174 406.951 13.6 407.231 13.096C407.539 12.592 407.945 12.2 408.449 11.92C408.981 11.612 409.555 11.458 410.171 11.458C410.787 11.458 411.347 11.612 411.851 11.92C412.383 12.2 412.789 12.592 413.069 13.096C413.377 13.6 413.531 14.174 413.531 14.818ZM407.231 43V20.824H413.111V43H407.231ZM417.813 43V20.824H423.231L423.399 23.68C424.043 22.616 424.925 21.776 426.045 21.16C427.193 20.516 428.495 20.194 429.951 20.194C431.575 20.194 432.989 20.586 434.193 21.37C435.425 22.126 436.377 23.218 437.049 24.646C437.721 26.074 438.057 27.754 438.057 29.686V43H432.177V30.442C432.177 28.902 431.827 27.698 431.127 26.83C430.427 25.934 429.461 25.486 428.229 25.486C427.333 25.486 426.549 25.696 425.877 26.116C425.205 26.508 424.673 27.068 424.281 27.796C423.889 28.524 423.693 29.35 423.693 30.274V43H417.813ZM450.73 43.63C449.162 43.63 447.734 43.378 446.446 42.874C445.186 42.37 444.108 41.656 443.212 40.732C442.344 39.808 441.742 38.716 441.406 37.456L446.698 36.322C446.978 37.19 447.482 37.876 448.21 38.38C448.938 38.884 449.806 39.136 450.814 39.136C451.766 39.136 452.55 38.926 453.166 38.506C453.782 38.086 454.09 37.512 454.09 36.784C454.09 36.168 453.81 35.664 453.25 35.272C452.718 34.852 451.822 34.53 450.562 34.306L449.386 34.096C446.978 33.676 445.144 32.892 443.884 31.744C442.652 30.596 442.036 29.14 442.036 27.376C442.036 25.976 442.4 24.744 443.128 23.68C443.856 22.588 444.864 21.734 446.152 21.118C447.44 20.502 448.924 20.194 450.604 20.194C452.088 20.194 453.432 20.446 454.636 20.95C455.868 21.426 456.89 22.112 457.702 23.008C458.514 23.904 459.074 24.982 459.382 26.242L454.132 27.334C453.852 26.494 453.39 25.836 452.746 25.36C452.13 24.884 451.402 24.646 450.562 24.646C449.694 24.646 448.98 24.856 448.42 25.276C447.86 25.696 447.58 26.228 447.58 26.872C447.58 27.432 447.846 27.908 448.378 28.3C448.938 28.664 449.876 28.958 451.192 29.182L452.368 29.392C454.748 29.812 456.568 30.61 457.828 31.786C459.088 32.934 459.718 34.404 459.718 36.196C459.718 37.288 459.494 38.282 459.046 39.178C458.626 40.074 458.01 40.858 457.198 41.53C456.386 42.202 455.434 42.72 454.342 43.084C453.25 43.448 452.046 43.63 450.73 43.63ZM463.381 51.148V20.824H468.799L468.967 24.058C469.723 22.854 470.731 21.916 471.991 21.244C473.251 20.544 474.637 20.194 476.149 20.194C477.605 20.194 478.949 20.488 480.181 21.076C481.413 21.664 482.491 22.49 483.415 23.554C484.339 24.59 485.053 25.808 485.557 27.208C486.089 28.608 486.355 30.134 486.355 31.786C486.355 33.466 486.089 35.02 485.557 36.448C485.025 37.876 484.283 39.136 483.331 40.228C482.379 41.292 481.259 42.132 479.971 42.748C478.683 43.336 477.297 43.63 475.813 43.63C474.441 43.63 473.195 43.364 472.075 42.832C470.955 42.272 470.017 41.502 469.261 40.522V51.148H463.381ZM474.763 38.338C475.827 38.338 476.779 38.058 477.619 37.498C478.459 36.938 479.117 36.182 479.593 35.23C480.097 34.25 480.349 33.144 480.349 31.912C480.349 30.68 480.097 29.588 479.593 28.636C479.117 27.656 478.459 26.886 477.619 26.326C476.779 25.766 475.827 25.486 474.763 25.486C473.699 25.486 472.747 25.766 471.907 26.326C471.067 26.886 470.395 27.656 469.891 28.636C469.415 29.588 469.177 30.68 469.177 31.912C469.177 33.144 469.415 34.25 469.891 35.23C470.395 36.182 471.067 36.938 471.907 37.498C472.747 38.058 473.699 38.338 474.763 38.338ZM496.506 14.818C496.506 15.462 496.352 16.036 496.044 16.54C495.764 17.044 495.358 17.45 494.826 17.758C494.322 18.038 493.762 18.178 493.146 18.178C492.53 18.178 491.956 18.038 491.424 17.758C490.92 17.45 490.514 17.044 490.206 16.54C489.926 16.036 489.786 15.462 489.786 14.818C489.786 14.174 489.926 13.6 490.206 13.096C490.514 12.592 490.92 12.2 491.424 11.92C491.956 11.612 492.53 11.458 493.146 11.458C493.762 11.458 494.322 11.612 494.826 11.92C495.358 12.2 495.764 12.592 496.044 13.096C496.352 13.6 496.506 14.174 496.506 14.818ZM490.206 43V20.824H496.086V43H490.206ZM500.788 43V20.824H506.206L506.416 24.184C506.976 23.008 507.732 22.112 508.684 21.496C509.636 20.852 510.756 20.53 512.044 20.53C512.436 20.53 512.828 20.572 513.22 20.656C513.612 20.712 513.962 20.796 514.27 20.908L513.64 26.704C513.332 26.592 513.01 26.522 512.674 26.494C512.366 26.438 512.044 26.41 511.708 26.41C510.084 26.41 508.838 26.914 507.97 27.922C507.102 28.902 506.668 30.302 506.668 32.122V43H500.788ZM523.835 43.63C522.687 43.63 521.637 43.462 520.685 43.126C519.733 42.79 518.893 42.314 518.165 41.698C517.465 41.054 516.919 40.312 516.527 39.472C516.135 38.632 515.939 37.708 515.939 36.7C515.939 35.3 516.317 34.068 517.073 33.004C517.829 31.94 518.893 31.114 520.265 30.526C521.637 29.91 523.233 29.602 525.053 29.602C525.977 29.602 526.845 29.686 527.657 29.854C528.497 30.022 529.309 30.26 530.093 30.568V29.266C530.093 28.006 529.729 26.984 529.001 26.2C528.301 25.416 527.335 25.024 526.103 25.024C525.179 25.024 524.339 25.262 523.583 25.738C522.827 26.186 522.295 26.83 521.987 27.67L516.737 26.62C517.045 25.332 517.647 24.212 518.543 23.26C519.467 22.28 520.587 21.524 521.903 20.992C523.219 20.46 524.647 20.194 526.187 20.194C527.615 20.194 528.917 20.418 530.093 20.866C531.269 21.314 532.277 21.958 533.117 22.798C533.985 23.638 534.643 24.632 535.091 25.78C535.567 26.9 535.805 28.16 535.805 29.56V43H530.555L530.387 40.396C529.799 41.348 528.945 42.132 527.825 42.748C526.705 43.336 525.375 43.63 523.835 43.63ZM521.735 36.406C521.735 37.19 522.057 37.834 522.701 38.338C523.345 38.842 524.199 39.094 525.263 39.094C526.187 39.094 527.013 38.898 527.741 38.506C528.469 38.114 529.043 37.582 529.463 36.91C529.883 36.21 530.093 35.44 530.093 34.6V34.39C529.477 34.138 528.819 33.942 528.119 33.802C527.419 33.634 526.719 33.55 526.019 33.55C524.703 33.55 523.653 33.816 522.869 34.348C522.113 34.852 521.735 35.538 521.735 36.406ZM549.37 43.63C547.83 43.63 546.5 43.336 545.38 42.748C544.288 42.132 543.434 41.25 542.818 40.102C542.23 38.954 541.936 37.554 541.936 35.902V25.57H538.156V20.824H541.936V13.264H547.816V20.824H553.864V25.57H547.816V35.188C547.816 36.252 548.04 37.078 548.488 37.666C548.936 38.226 549.622 38.506 550.546 38.506C551.022 38.506 551.526 38.436 552.058 38.296C552.618 38.156 553.15 37.974 553.654 37.75L554.704 42.16C553.976 42.608 553.164 42.958 552.268 43.21C551.372 43.49 550.406 43.63 549.37 43.63ZM564.468 14.818C564.468 15.462 564.314 16.036 564.006 16.54C563.726 17.044 563.32 17.45 562.788 17.758C562.284 18.038 561.724 18.178 561.108 18.178C560.492 18.178 559.918 18.038 559.386 17.758C558.882 17.45 558.476 17.044 558.168 16.54C557.888 16.036 557.748 15.462 557.748 14.818C557.748 14.174 557.888 13.6 558.168 13.096C558.476 12.592 558.882 12.2 559.386 11.92C559.918 11.612 560.492 11.458 561.108 11.458C561.724 11.458 562.284 11.612 562.788 11.92C563.32 12.2 563.726 12.592 564.006 13.096C564.314 13.6 564.468 14.174 564.468 14.818ZM558.168 43V20.824H564.048V43H558.168ZM579.418 43.63C577.766 43.63 576.24 43.336 574.84 42.748C573.44 42.16 572.222 41.348 571.186 40.312C570.15 39.248 569.338 38.002 568.75 36.574C568.19 35.146 567.91 33.592 567.91 31.912C567.91 30.232 568.204 28.692 568.792 27.292C569.38 25.864 570.192 24.618 571.228 23.554C572.292 22.49 573.524 21.664 574.924 21.076C576.352 20.488 577.906 20.194 579.586 20.194C581.238 20.194 582.764 20.488 584.164 21.076C585.564 21.664 586.782 22.49 587.818 23.554C588.854 24.59 589.652 25.822 590.212 27.25C590.8 28.65 591.094 30.19 591.094 31.87C591.094 33.55 590.8 35.104 590.212 36.532C589.624 37.96 588.798 39.206 587.734 40.27C586.698 41.334 585.466 42.16 584.038 42.748C582.638 43.336 581.098 43.63 579.418 43.63ZM579.502 38.338C580.566 38.338 581.518 38.058 582.358 37.498C583.198 36.938 583.856 36.182 584.332 35.23C584.836 34.25 585.088 33.144 585.088 31.912C585.088 30.68 584.836 29.588 584.332 28.636C583.856 27.656 583.198 26.886 582.358 26.326C581.518 25.766 580.566 25.486 579.502 25.486C578.438 25.486 577.486 25.766 576.646 26.326C575.806 26.886 575.134 27.656 574.63 28.636C574.154 29.588 573.916 30.68 573.916 31.912C573.916 33.144 574.154 34.25 574.63 35.23C575.134 36.182 575.806 36.938 576.646 37.498C577.486 38.058 578.438 38.338 579.502 38.338ZM594.959 43V20.824H600.377L600.545 23.68C601.189 22.616 602.071 21.776 603.191 21.16C604.339 20.516 605.641 20.194 607.097 20.194C608.721 20.194 610.135 20.586 611.339 21.37C612.571 22.126 613.523 23.218 614.195 24.646C614.867 26.074 615.203 27.754 615.203 29.686V43H609.323V30.442C609.323 28.902 608.973 27.698 608.273 26.83C607.573 25.934 606.607 25.486 605.375 25.486C604.479 25.486 603.695 25.696 603.023 26.116C602.351 26.508 601.819 27.068 601.427 27.796C601.035 28.524 600.839 29.35 600.839 30.274V43H594.959ZM627.877 43.63C626.309 43.63 624.881 43.378 623.593 42.874C622.333 42.37 621.255 41.656 620.359 40.732C619.491 39.808 618.889 38.716 618.553 37.456L623.845 36.322C624.125 37.19 624.629 37.876 625.357 38.38C626.085 38.884 626.953 39.136 627.961 39.136C628.913 39.136 629.697 38.926 630.313 38.506C630.929 38.086 631.237 37.512 631.237 36.784C631.237 36.168 630.957 35.664 630.397 35.272C629.865 34.852 628.969 34.53 627.709 34.306L626.533 34.096C624.125 33.676 622.291 32.892 621.031 31.744C619.799 30.596 619.183 29.14 619.183 27.376C619.183 25.976 619.547 24.744 620.275 23.68C621.003 22.588 622.011 21.734 623.299 21.118C624.587 20.502 626.071 20.194 627.751 20.194C629.235 20.194 630.579 20.446 631.783 20.95C633.015 21.426 634.037 22.112 634.849 23.008C635.661 23.904 636.221 24.982 636.529 26.242L631.279 27.334C630.999 26.494 630.537 25.836 629.893 25.36C629.277 24.884 628.549 24.646 627.709 24.646C626.841 24.646 626.127 24.856 625.567 25.276C625.007 25.696 624.727 26.228 624.727 26.872C624.727 27.432 624.993 27.908 625.525 28.3C626.085 28.664 627.023 28.958 628.339 29.182L629.515 29.392C631.895 29.812 633.715 30.61 634.975 31.786C636.235 32.934 636.865 34.404 636.865 36.196C636.865 37.288 636.641 38.282 636.193 39.178C635.773 40.074 635.157 40.858 634.345 41.53C633.533 42.202 632.581 42.72 631.489 43.084C630.397 43.448 629.193 43.63 627.877 43.63Z" fill="white"/>
<g filter="url(#filter0_d_135_73)">
<path d="M322.373 240V225.8H327.893C329.013 225.8 330.033 225.973 330.953 226.32C331.873 226.653 332.667 227.133 333.333 227.76C334 228.387 334.513 229.133 334.873 230C335.233 230.867 335.413 231.827 335.413 232.88C335.413 233.933 335.227 234.9 334.853 235.78C334.493 236.647 333.98 237.4 333.313 238.04C332.647 238.667 331.847 239.153 330.913 239.5C329.993 239.833 328.973 240 327.853 240H322.373ZM325.353 237.36H327.713C328.66 237.36 329.48 237.18 330.173 236.82C330.867 236.46 331.4 235.947 331.773 235.28C332.147 234.613 332.333 233.82 332.333 232.9C332.333 231.98 332.147 231.187 331.773 230.52C331.4 229.853 330.867 229.34 330.173 228.98C329.48 228.62 328.66 228.44 327.713 228.44H325.353V237.36ZM337.369 240V229.44H339.949L340.049 231.04C340.316 230.48 340.676 230.053 341.129 229.76C341.583 229.453 342.116 229.3 342.729 229.3C342.916 229.3 343.103 229.32 343.289 229.36C343.476 229.387 343.643 229.427 343.789 229.48L343.489 232.24C343.343 232.187 343.189 232.153 343.029 232.14C342.883 232.113 342.729 232.1 342.569 232.1C341.796 232.1 341.203 232.34 340.789 232.82C340.376 233.287 340.169 233.953 340.169 234.82V240H337.369ZM348.318 226.58C348.318 226.887 348.245 227.16 348.098 227.4C347.965 227.64 347.772 227.833 347.518 227.98C347.278 228.113 347.012 228.18 346.718 228.18C346.425 228.18 346.152 228.113 345.898 227.98C345.658 227.833 345.465 227.64 345.318 227.4C345.185 227.16 345.118 226.887 345.118 226.58C345.118 226.273 345.185 226 345.318 225.76C345.465 225.52 345.658 225.333 345.898 225.2C346.152 225.053 346.425 224.98 346.718 224.98C347.012 224.98 347.278 225.053 347.518 225.2C347.772 225.333 347.965 225.52 348.098 225.76C348.245 226 348.318 226.273 348.318 226.58ZM345.318 240V229.44H348.118V240H345.318ZM350.358 240V225.08H353.158V230.78C353.531 230.273 353.998 229.873 354.558 229.58C355.131 229.287 355.758 229.14 356.438 229.14C357.131 229.14 357.771 229.28 358.358 229.56C358.944 229.84 359.458 230.233 359.898 230.74C360.338 231.233 360.678 231.813 360.918 232.48C361.171 233.147 361.298 233.873 361.298 234.66C361.298 235.46 361.171 236.2 360.918 236.88C360.664 237.56 360.311 238.16 359.858 238.68C359.404 239.187 358.871 239.587 358.258 239.88C357.644 240.16 356.984 240.3 356.278 240.3C355.584 240.3 354.958 240.153 354.398 239.86C353.838 239.567 353.378 239.153 353.018 238.62L352.938 240H350.358ZM355.778 237.78C356.284 237.78 356.738 237.647 357.138 237.38C357.538 237.113 357.851 236.753 358.078 236.3C358.318 235.833 358.438 235.307 358.438 234.72C358.438 234.133 358.318 233.613 358.078 233.16C357.851 232.693 357.538 232.327 357.138 232.06C356.738 231.793 356.284 231.66 355.778 231.66C355.271 231.66 354.818 231.793 354.418 232.06C354.018 232.327 353.698 232.693 353.458 233.16C353.231 233.613 353.118 234.133 353.118 234.72C353.118 235.307 353.231 235.833 353.458 236.3C353.698 236.753 354.018 237.113 354.418 237.38C354.818 237.647 355.271 237.78 355.778 237.78ZM363.131 240V225.08H365.931V230.78C366.304 230.273 366.771 229.873 367.331 229.58C367.904 229.287 368.531 229.14 369.211 229.14C369.904 229.14 370.544 229.28 371.131 229.56C371.718 229.84 372.231 230.233 372.671 230.74C373.111 231.233 373.451 231.813 373.691 232.48C373.944 233.147 374.071 233.873 374.071 234.66C374.071 235.46 373.944 236.2 373.691 236.88C373.438 237.56 373.084 238.16 372.631 238.68C372.178 239.187 371.644 239.587 371.031 239.88C370.418 240.16 369.758 240.3 369.051 240.3C368.358 240.3 367.731 240.153 367.171 239.86C366.611 239.567 366.151 239.153 365.791 238.62L365.711 240H363.131ZM368.551 237.78C369.058 237.78 369.511 237.647 369.911 237.38C370.311 237.113 370.624 236.753 370.851 236.3C371.091 235.833 371.211 235.307 371.211 234.72C371.211 234.133 371.091 233.613 370.851 233.16C370.624 232.693 370.311 232.327 369.911 232.06C369.511 231.793 369.058 231.66 368.551 231.66C368.044 231.66 367.591 231.793 367.191 232.06C366.791 232.327 366.471 232.693 366.231 233.16C366.004 233.613 365.891 234.133 365.891 234.72C365.891 235.307 366.004 235.833 366.231 236.3C366.471 236.753 366.791 237.113 367.191 237.38C367.591 237.647 368.044 237.78 368.551 237.78ZM375.904 240V225.08H378.704V230.78C379.078 230.273 379.544 229.873 380.104 229.58C380.678 229.287 381.304 229.14 381.984 229.14C382.678 229.14 383.318 229.28 383.904 229.56C384.491 229.84 385.004 230.233 385.444 230.74C385.884 231.233 386.224 231.813 386.464 232.48C386.718 233.147 386.844 233.873 386.844 234.66C386.844 235.46 386.718 236.2 386.464 236.88C386.211 237.56 385.858 238.16 385.404 238.68C384.951 239.187 384.418 239.587 383.804 239.88C383.191 240.16 382.531 240.3 381.824 240.3C381.131 240.3 380.504 240.153 379.944 239.86C379.384 239.567 378.924 239.153 378.564 238.62L378.484 240H375.904ZM381.324 237.78C381.831 237.78 382.284 237.647 382.684 237.38C383.084 237.113 383.398 236.753 383.624 236.3C383.864 235.833 383.984 235.307 383.984 234.72C383.984 234.133 383.864 233.613 383.624 233.16C383.398 232.693 383.084 232.327 382.684 232.06C382.284 231.793 381.831 231.66 381.324 231.66C380.818 231.66 380.364 231.793 379.964 232.06C379.564 232.327 379.244 232.693 379.004 233.16C378.778 233.613 378.664 234.133 378.664 234.72C378.664 235.307 378.778 235.833 379.004 236.3C379.244 236.753 379.564 237.113 379.964 237.38C380.364 237.647 380.818 237.78 381.324 237.78ZM388.678 240V225.08H391.478V240H388.678ZM398.717 240.3C397.93 240.3 397.204 240.167 396.537 239.9C395.884 239.62 395.317 239.233 394.837 238.74C394.357 238.233 393.984 237.64 393.717 236.96C393.45 236.267 393.317 235.513 393.317 234.7C393.317 233.913 393.45 233.18 393.717 232.5C393.984 231.82 394.35 231.233 394.817 230.74C395.297 230.233 395.857 229.84 396.497 229.56C397.137 229.28 397.83 229.14 398.577 229.14C399.35 229.14 400.05 229.273 400.677 229.54C401.317 229.807 401.864 230.187 402.317 230.68C402.77 231.173 403.117 231.76 403.357 232.44C403.61 233.12 403.737 233.88 403.737 234.72V235.42H396.157C396.277 236.207 396.564 236.827 397.017 237.28C397.47 237.72 398.044 237.94 398.737 237.94C399.217 237.94 399.65 237.827 400.037 237.6C400.437 237.373 400.764 237.047 401.017 236.62L403.517 237.42C403.277 238.02 402.917 238.533 402.437 238.96C401.957 239.387 401.397 239.72 400.757 239.96C400.117 240.187 399.437 240.3 398.717 240.3ZM398.577 231.3C397.964 231.3 397.444 231.5 397.017 231.9C396.604 232.3 396.33 232.847 396.197 233.54H400.857C400.75 232.847 400.49 232.3 400.077 231.9C399.677 231.5 399.177 231.3 398.577 231.3ZM407.055 240.08C406.721 240.08 406.421 240 406.155 239.84C405.901 239.68 405.695 239.467 405.535 239.2C405.375 238.933 405.295 238.64 405.295 238.32C405.295 238 405.375 237.707 405.535 237.44C405.695 237.173 405.901 236.96 406.155 236.8C406.421 236.64 406.721 236.56 407.055 236.56C407.388 236.56 407.681 236.64 407.935 236.8C408.201 236.96 408.415 237.173 408.575 237.44C408.735 237.707 408.815 238 408.815 238.32C408.815 238.64 408.735 238.933 408.575 239.2C408.415 239.467 408.201 239.68 407.935 239.84C407.681 240 407.388 240.08 407.055 240.08ZM415.472 240.3C414.712 240.3 414.006 240.167 413.352 239.9C412.712 239.62 412.152 239.233 411.672 238.74C411.206 238.247 410.839 237.667 410.572 237C410.306 236.32 410.172 235.587 410.172 234.8C410.172 234 410.306 233.26 410.572 232.58C410.852 231.887 411.232 231.287 411.712 230.78C412.206 230.26 412.779 229.86 413.432 229.58C414.086 229.287 414.792 229.14 415.552 229.14C416.312 229.14 417.012 229.287 417.652 229.58C418.292 229.86 418.832 230.26 419.272 230.78C419.726 231.3 420.039 231.907 420.212 232.6L417.552 233.12C417.352 232.667 417.072 232.313 416.712 232.06C416.352 231.793 415.946 231.66 415.492 231.66C415.012 231.66 414.586 231.793 414.212 232.06C413.852 232.327 413.566 232.7 413.352 233.18C413.139 233.647 413.032 234.173 413.032 234.76C413.032 235.347 413.132 235.867 413.332 236.32C413.546 236.773 413.839 237.133 414.212 237.4C414.586 237.653 415.012 237.78 415.492 237.78C415.972 237.78 416.406 237.653 416.792 237.4C417.179 237.147 417.466 236.787 417.652 236.32L420.312 236.84C420.139 237.547 419.812 238.16 419.332 238.68C418.866 239.2 418.299 239.6 417.632 239.88C416.966 240.16 416.246 240.3 415.472 240.3ZM426.961 240.3C426.174 240.3 425.448 240.16 424.781 239.88C424.114 239.6 423.534 239.213 423.041 238.72C422.548 238.213 422.161 237.62 421.881 236.94C421.614 236.26 421.481 235.52 421.481 234.72C421.481 233.92 421.621 233.187 421.901 232.52C422.181 231.84 422.568 231.247 423.061 230.74C423.568 230.233 424.154 229.84 424.821 229.56C425.501 229.28 426.241 229.14 427.041 229.14C427.828 229.14 428.554 229.28 429.221 229.56C429.888 229.84 430.468 230.233 430.961 230.74C431.454 231.233 431.834 231.82 432.101 232.5C432.381 233.167 432.521 233.9 432.521 234.7C432.521 235.5 432.381 236.24 432.101 236.92C431.821 237.6 431.428 238.193 430.921 238.7C430.428 239.207 429.841 239.6 429.161 239.88C428.494 240.16 427.761 240.3 426.961 240.3ZM427.001 237.78C427.508 237.78 427.961 237.647 428.361 237.38C428.761 237.113 429.074 236.753 429.301 236.3C429.541 235.833 429.661 235.307 429.661 234.72C429.661 234.133 429.541 233.613 429.301 233.16C429.074 232.693 428.761 232.327 428.361 232.06C427.961 231.793 427.508 231.66 427.001 231.66C426.494 231.66 426.041 231.793 425.641 232.06C425.241 232.327 424.921 232.693 424.681 233.16C424.454 233.613 424.341 234.133 424.341 234.72C424.341 235.307 424.454 235.833 424.681 236.3C424.921 236.753 425.241 237.113 425.641 237.38C426.041 237.647 426.494 237.78 427.001 237.78ZM434.361 240V229.44H436.941L437.021 230.78C437.328 230.273 437.741 229.873 438.261 229.58C438.781 229.287 439.368 229.14 440.021 229.14C440.728 229.14 441.355 229.313 441.901 229.66C442.461 230.007 442.895 230.487 443.201 231.1C443.521 230.513 443.981 230.04 444.581 229.68C445.195 229.32 445.895 229.14 446.681 229.14C447.468 229.14 448.148 229.327 448.721 229.7C449.295 230.06 449.735 230.58 450.041 231.26C450.361 231.94 450.521 232.74 450.521 233.66V240H447.721V234.02C447.721 233.287 447.561 232.713 447.241 232.3C446.921 231.873 446.475 231.66 445.901 231.66C445.501 231.66 445.141 231.76 444.821 231.96C444.515 232.147 444.275 232.413 444.101 232.76C443.928 233.107 443.841 233.5 443.841 233.94V240H441.041V234.02C441.041 233.287 440.881 232.713 440.561 232.3C440.241 231.873 439.795 231.66 439.221 231.66C438.821 231.66 438.461 231.76 438.141 231.96C437.835 232.147 437.595 232.413 437.421 232.76C437.248 233.107 437.161 233.5 437.161 233.94V240H434.361ZM451.9 242.1L458.38 224.94H459.88L453.4 242.1H451.9Z" fill="white" fill-opacity="0.5"/>
<path d="M326.329 271.36C325.673 271.36 325.073 271.264 324.529 271.072C323.985 270.88 323.505 270.608 323.089 270.256C322.689 269.888 322.377 269.464 322.153 268.984C321.929 268.504 321.817 267.976 321.817 267.4C321.817 266.6 322.033 265.896 322.465 265.288C322.897 264.68 323.505 264.208 324.289 263.872C325.073 263.52 325.985 263.344 327.025 263.344C327.553 263.344 328.049 263.392 328.513 263.488C328.993 263.584 329.457 263.72 329.905 263.896V263.152C329.905 262.432 329.697 261.848 329.281 261.4C328.881 260.952 328.329 260.728 327.625 260.728C327.097 260.728 326.617 260.864 326.185 261.136C325.753 261.392 325.449 261.76 325.273 262.24L322.273 261.64C322.449 260.904 322.793 260.264 323.305 259.72C323.833 259.16 324.473 258.728 325.225 258.424C325.977 258.12 326.793 257.968 327.673 257.968C328.489 257.968 329.233 258.096 329.905 258.352C330.577 258.608 331.153 258.976 331.633 259.456C332.129 259.936 332.505 260.504 332.761 261.16C333.033 261.8 333.169 262.52 333.169 263.32V271H330.169L330.073 269.512C329.737 270.056 329.249 270.504 328.609 270.856C327.969 271.192 327.209 271.36 326.329 271.36ZM325.129 267.232C325.129 267.68 325.313 268.048 325.681 268.336C326.049 268.624 326.537 268.768 327.145 268.768C327.673 268.768 328.145 268.656 328.561 268.432C328.977 268.208 329.305 267.904 329.545 267.52C329.785 267.12 329.905 266.68 329.905 266.2V266.08C329.553 265.936 329.177 265.824 328.777 265.744C328.377 265.648 327.977 265.6 327.577 265.6C326.825 265.6 326.225 265.752 325.777 266.056C325.345 266.344 325.129 266.736 325.129 267.232ZM335.847 271V253.096H339.207V271H335.847ZM341.486 271V268.768L347.63 261.04H341.654V258.328H351.806V260.56L345.638 268.288H352.214V271H341.486ZM360.199 271.36C359.255 271.36 358.383 271.2 357.583 270.88C356.799 270.544 356.119 270.08 355.543 269.488C354.967 268.88 354.519 268.168 354.199 267.352C353.879 266.52 353.719 265.616 353.719 264.64C353.719 263.696 353.879 262.816 354.199 262C354.519 261.184 354.959 260.48 355.519 259.888C356.095 259.28 356.767 258.808 357.535 258.472C358.303 258.136 359.135 257.968 360.031 257.968C360.959 257.968 361.799 258.128 362.551 258.448C363.319 258.768 363.975 259.224 364.519 259.816C365.063 260.408 365.479 261.112 365.767 261.928C366.071 262.744 366.223 263.656 366.223 264.664V265.504H357.127C357.271 266.448 357.615 267.192 358.159 267.736C358.703 268.264 359.391 268.528 360.223 268.528C360.799 268.528 361.319 268.392 361.783 268.12C362.263 267.848 362.655 267.456 362.959 266.944L365.959 267.904C365.671 268.624 365.239 269.24 364.663 269.752C364.087 270.264 363.415 270.664 362.647 270.952C361.879 271.224 361.063 271.36 360.199 271.36ZM360.031 260.56C359.295 260.56 358.671 260.8 358.159 261.28C357.663 261.76 357.335 262.416 357.175 263.248H362.767C362.639 262.416 362.327 261.76 361.831 261.28C361.351 260.8 360.751 260.56 360.031 260.56ZM372.22 271.36C371.564 271.36 370.964 271.264 370.42 271.072C369.876 270.88 369.396 270.608 368.98 270.256C368.58 269.888 368.268 269.464 368.044 268.984C367.82 268.504 367.708 267.976 367.708 267.4C367.708 266.6 367.924 265.896 368.356 265.288C368.788 264.68 369.396 264.208 370.18 263.872C370.964 263.52 371.876 263.344 372.916 263.344C373.444 263.344 373.94 263.392 374.404 263.488C374.884 263.584 375.348 263.72 375.796 263.896V263.152C375.796 262.432 375.588 261.848 375.172 261.4C374.772 260.952 374.22 260.728 373.516 260.728C372.988 260.728 372.508 260.864 372.076 261.136C371.644 261.392 371.34 261.76 371.164 262.24L368.164 261.64C368.34 260.904 368.684 260.264 369.196 259.72C369.724 259.16 370.364 258.728 371.116 258.424C371.868 258.12 372.684 257.968 373.564 257.968C374.38 257.968 375.124 258.096 375.796 258.352C376.468 258.608 377.044 258.976 377.524 259.456C378.02 259.936 378.396 260.504 378.652 261.16C378.924 261.8 379.06 262.52 379.06 263.32V271H376.06L375.964 269.512C375.628 270.056 375.14 270.504 374.5 270.856C373.86 271.192 373.1 271.36 372.22 271.36ZM371.02 267.232C371.02 267.68 371.204 268.048 371.572 268.336C371.94 268.624 372.428 268.768 373.036 268.768C373.564 268.768 374.036 268.656 374.452 268.432C374.868 268.208 375.196 267.904 375.436 267.52C375.676 267.12 375.796 266.68 375.796 266.2V266.08C375.444 265.936 375.068 265.824 374.668 265.744C374.268 265.648 373.868 265.6 373.468 265.6C372.716 265.6 372.116 265.752 371.668 266.056C371.236 266.344 371.02 266.736 371.02 267.232Z" fill="white"/>
<path d="M321.073 242.62H451.641V243.88H321.073V242.62Z" fill="white" fill-opacity="0.5"/>
<path d="M451.64 242.62H460.14V243.88H451.64V242.62Z" fill="white" fill-opacity="0.5"/>
<path d="M321.073 274.144H380.404V275.656H321.073V274.144Z" fill="white"/>
</g>
<a href="https://dribbble.com/alzea">
<rect fill="black" fill-opacity="0" y="-0.0200005" width="139.066" height="26.04"/>
</a>
<a href="https://dribbble.com/alzea">
<rect fill="black" fill-opacity="0" y="26.944" width="59.3306" height="31.248"/>
</a>
<g opacity="0.5">
<path fill-rule="evenodd" clip-rule="evenodd" d="M281.358 267.927C271.47 267.927 263.379 259.843 263.379 249.963C263.379 240.083 271.47 232 281.358 232C291.247 232 299.338 240.083 299.338 249.963C299.338 259.843 291.247 267.927 281.358 267.927ZM296.528 252.433C296.023 252.265 291.753 251.03 286.977 251.76C289 257.261 289.786 261.752 289.955 262.706C293.382 260.404 295.854 256.7 296.528 252.433ZM287.37 264.109C287.145 262.762 286.246 258.047 284.111 252.489C284.055 252.489 284.055 252.489 283.999 252.546C275.346 255.577 272.2 261.583 271.975 262.145C274.56 264.166 277.875 265.401 281.414 265.401C283.493 265.344 285.516 264.895 287.37 264.109ZM269.953 260.236C270.29 259.619 274.504 252.658 282.426 250.132C282.651 250.076 282.819 250.019 283.044 249.963C282.651 249.065 282.257 248.223 281.808 247.381C274.167 249.683 266.694 249.57 266.02 249.57C266.02 249.739 266.02 249.907 266.02 250.019C266.02 253.949 267.48 257.542 269.953 260.236ZM266.301 246.82C266.975 246.82 273.324 246.876 280.516 244.967C277.987 240.476 275.234 236.659 274.841 236.098C270.514 238.119 267.312 242.104 266.301 246.82ZM277.762 235.087C278.212 235.649 280.965 239.466 283.493 244.069C288.943 242.048 291.247 238.905 291.528 238.512C288.831 236.098 285.235 234.638 281.358 234.638C280.122 234.638 278.942 234.807 277.762 235.087ZM293.27 240.308C292.933 240.757 290.348 244.069 284.673 246.371C285.01 247.1 285.347 247.83 285.685 248.616C285.797 248.897 285.909 249.121 286.022 249.402C291.135 248.784 296.191 249.795 296.697 249.907C296.697 246.202 295.405 242.89 293.27 240.308Z" fill="white"/>
</g>
<g filter="url(#filter1_d_135_73)">
<path d="M635.373 240V225.8H638.353V240H635.373ZM640.779 240V229.44H643.359L643.439 230.8C643.746 230.293 644.166 229.893 644.699 229.6C645.246 229.293 645.866 229.14 646.559 229.14C647.333 229.14 648.006 229.327 648.579 229.7C649.166 230.06 649.619 230.58 649.939 231.26C650.259 231.94 650.419 232.74 650.419 233.66V240H647.619V234.02C647.619 233.287 647.453 232.713 647.119 232.3C646.786 231.873 646.326 231.66 645.739 231.66C645.313 231.66 644.939 231.76 644.619 231.96C644.299 232.147 644.046 232.413 643.859 232.76C643.673 233.107 643.579 233.5 643.579 233.94V240H640.779ZM656.454 240.3C655.708 240.3 655.028 240.18 654.414 239.94C653.814 239.7 653.301 239.36 652.874 238.92C652.461 238.48 652.174 237.96 652.014 237.36L654.534 236.82C654.668 237.233 654.908 237.56 655.254 237.8C655.601 238.04 656.014 238.16 656.494 238.16C656.948 238.16 657.321 238.06 657.614 237.86C657.908 237.66 658.054 237.387 658.054 237.04C658.054 236.747 657.921 236.507 657.654 236.32C657.401 236.12 656.974 235.967 656.374 235.86L655.814 235.76C654.668 235.56 653.794 235.187 653.194 234.64C652.608 234.093 652.314 233.4 652.314 232.56C652.314 231.893 652.488 231.307 652.834 230.8C653.181 230.28 653.661 229.873 654.274 229.58C654.888 229.287 655.594 229.14 656.394 229.14C657.101 229.14 657.741 229.26 658.314 229.5C658.901 229.727 659.388 230.053 659.774 230.48C660.161 230.907 660.428 231.42 660.574 232.02L658.074 232.54C657.941 232.14 657.721 231.827 657.414 231.6C657.121 231.373 656.774 231.26 656.374 231.26C655.961 231.26 655.621 231.36 655.354 231.56C655.088 231.76 654.954 232.013 654.954 232.32C654.954 232.587 655.081 232.813 655.334 233C655.601 233.173 656.048 233.313 656.674 233.42L657.234 233.52C658.368 233.72 659.234 234.1 659.834 234.66C660.434 235.207 660.734 235.907 660.734 236.76C660.734 237.28 660.628 237.753 660.414 238.18C660.214 238.607 659.921 238.98 659.534 239.3C659.148 239.62 658.694 239.867 658.174 240.04C657.654 240.213 657.081 240.3 656.454 240.3ZM666.883 240.3C666.15 240.3 665.516 240.16 664.983 239.88C664.463 239.587 664.056 239.167 663.763 238.62C663.483 238.073 663.343 237.407 663.343 236.62V231.7H661.543V229.44H663.343V225.84H666.143V229.44H669.023V231.7H666.143V236.28C666.143 236.787 666.25 237.18 666.463 237.46C666.676 237.727 667.003 237.86 667.443 237.86C667.67 237.86 667.91 237.827 668.163 237.76C668.43 237.693 668.683 237.607 668.923 237.5L669.423 239.6C669.076 239.813 668.69 239.98 668.263 240.1C667.836 240.233 667.376 240.3 666.883 240.3ZM674.254 240.3C673.708 240.3 673.208 240.22 672.754 240.06C672.301 239.9 671.901 239.673 671.554 239.38C671.221 239.073 670.961 238.72 670.774 238.32C670.588 237.92 670.494 237.48 670.494 237C670.494 236.333 670.674 235.747 671.034 235.24C671.394 234.733 671.901 234.34 672.554 234.06C673.208 233.767 673.968 233.62 674.834 233.62C675.274 233.62 675.688 233.66 676.074 233.74C676.474 233.82 676.861 233.933 677.234 234.08V233.46C677.234 232.86 677.061 232.373 676.714 232C676.381 231.627 675.921 231.44 675.334 231.44C674.894 231.44 674.494 231.553 674.134 231.78C673.774 231.993 673.521 232.3 673.374 232.7L670.874 232.2C671.021 231.587 671.308 231.053 671.734 230.6C672.174 230.133 672.708 229.773 673.334 229.52C673.961 229.267 674.641 229.14 675.374 229.14C676.054 229.14 676.674 229.247 677.234 229.46C677.794 229.673 678.274 229.98 678.674 230.38C679.088 230.78 679.401 231.253 679.614 231.8C679.841 232.333 679.954 232.933 679.954 233.6V240H677.454L677.374 238.76C677.094 239.213 676.688 239.587 676.154 239.88C675.621 240.16 674.988 240.3 674.254 240.3ZM673.254 236.86C673.254 237.233 673.408 237.54 673.714 237.78C674.021 238.02 674.428 238.14 674.934 238.14C675.374 238.14 675.768 238.047 676.114 237.86C676.461 237.673 676.734 237.42 676.934 237.1C677.134 236.767 677.234 236.4 677.234 236V235.9C676.941 235.78 676.628 235.687 676.294 235.62C675.961 235.54 675.628 235.5 675.294 235.5C674.668 235.5 674.168 235.627 673.794 235.88C673.434 236.12 673.254 236.447 673.254 236.86ZM686.526 239.7C685.859 239.7 685.232 239.567 684.646 239.3C684.072 239.033 683.572 238.667 683.146 238.2C682.719 237.72 682.386 237.167 682.146 236.54C681.906 235.9 681.786 235.213 681.786 234.48C681.786 233.72 681.906 233.02 682.146 232.38C682.399 231.727 682.746 231.16 683.186 230.68C683.639 230.2 684.159 229.827 684.746 229.56C685.346 229.28 685.992 229.14 686.686 229.14C687.366 229.14 687.979 229.28 688.526 229.56C689.072 229.827 689.526 230.22 689.886 230.74L689.946 229.44H692.526V238.74C692.526 239.553 692.392 240.293 692.126 240.96C691.872 241.627 691.506 242.2 691.026 242.68C690.546 243.16 689.972 243.527 689.306 243.78C688.652 244.047 687.926 244.18 687.126 244.18C686.339 244.18 685.632 244.053 685.006 243.8C684.379 243.56 683.832 243.22 683.366 242.78C682.899 242.34 682.532 241.827 682.266 241.24L684.946 240.58C685.186 240.967 685.492 241.267 685.866 241.48C686.252 241.707 686.686 241.82 687.166 241.82C687.686 241.82 688.132 241.7 688.506 241.46C688.892 241.233 689.192 240.907 689.406 240.48C689.619 240.067 689.726 239.58 689.726 239.02V238.16C689.366 238.64 688.906 239.02 688.346 239.3C687.799 239.567 687.192 239.7 686.526 239.7ZM687.206 237.22C687.699 237.22 688.132 237.1 688.506 236.86C688.892 236.607 689.199 236.273 689.426 235.86C689.652 235.433 689.766 234.953 689.766 234.42C689.766 233.887 689.652 233.413 689.426 233C689.199 232.573 688.892 232.24 688.506 232C688.132 231.747 687.699 231.62 687.206 231.62C686.712 231.62 686.272 231.747 685.886 232C685.512 232.24 685.212 232.573 684.986 233C684.759 233.413 684.646 233.887 684.646 234.42C684.646 234.953 684.759 235.433 684.986 235.86C685.212 236.273 685.512 236.607 685.886 236.86C686.272 237.1 686.712 237.22 687.206 237.22ZM694.764 240V229.44H697.344L697.444 231.04C697.71 230.48 698.07 230.053 698.524 229.76C698.977 229.453 699.51 229.3 700.124 229.3C700.31 229.3 700.497 229.32 700.684 229.36C700.87 229.387 701.037 229.427 701.184 229.48L700.884 232.24C700.737 232.187 700.584 232.153 700.424 232.14C700.277 232.113 700.124 232.1 699.964 232.1C699.19 232.1 698.597 232.34 698.184 232.82C697.77 233.287 697.564 233.953 697.564 234.82V240H694.764ZM705.739 240.3C705.192 240.3 704.692 240.22 704.239 240.06C703.785 239.9 703.385 239.673 703.039 239.38C702.705 239.073 702.445 238.72 702.259 238.32C702.072 237.92 701.979 237.48 701.979 237C701.979 236.333 702.159 235.747 702.519 235.24C702.879 234.733 703.385 234.34 704.039 234.06C704.692 233.767 705.452 233.62 706.319 233.62C706.759 233.62 707.172 233.66 707.559 233.74C707.959 233.82 708.345 233.933 708.719 234.08V233.46C708.719 232.86 708.545 232.373 708.199 232C707.865 231.627 707.405 231.44 706.819 231.44C706.379 231.44 705.979 231.553 705.619 231.78C705.259 231.993 705.005 232.3 704.859 232.7L702.359 232.2C702.505 231.587 702.792 231.053 703.219 230.6C703.659 230.133 704.192 229.773 704.819 229.52C705.445 229.267 706.125 229.14 706.859 229.14C707.539 229.14 708.159 229.247 708.719 229.46C709.279 229.673 709.759 229.98 710.159 230.38C710.572 230.78 710.885 231.253 711.099 231.8C711.325 232.333 711.439 232.933 711.439 233.6V240H708.939L708.859 238.76C708.579 239.213 708.172 239.587 707.639 239.88C707.105 240.16 706.472 240.3 705.739 240.3ZM704.739 236.86C704.739 237.233 704.892 237.54 705.199 237.78C705.505 238.02 705.912 238.14 706.419 238.14C706.859 238.14 707.252 238.047 707.599 237.86C707.945 237.673 708.219 237.42 708.419 237.1C708.619 236.767 708.719 236.4 708.719 236V235.9C708.425 235.78 708.112 235.687 707.779 235.62C707.445 235.54 707.112 235.5 706.779 235.5C706.152 235.5 705.652 235.627 705.279 235.88C704.919 236.12 704.739 236.447 704.739 236.86ZM713.67 240V229.44H716.25L716.33 230.78C716.637 230.273 717.05 229.873 717.57 229.58C718.09 229.287 718.677 229.14 719.33 229.14C720.037 229.14 720.663 229.313 721.21 229.66C721.77 230.007 722.203 230.487 722.51 231.1C722.83 230.513 723.29 230.04 723.89 229.68C724.503 229.32 725.203 229.14 725.99 229.14C726.777 229.14 727.457 229.327 728.03 229.7C728.603 230.06 729.043 230.58 729.35 231.26C729.67 231.94 729.83 232.74 729.83 233.66V240H727.03V234.02C727.03 233.287 726.87 232.713 726.55 232.3C726.23 231.873 725.783 231.66 725.21 231.66C724.81 231.66 724.45 231.76 724.13 231.96C723.823 232.147 723.583 232.413 723.41 232.76C723.237 233.107 723.15 233.5 723.15 233.94V240H720.35V234.02C720.35 233.287 720.19 232.713 719.87 232.3C719.55 231.873 719.103 231.66 718.53 231.66C718.13 231.66 717.77 231.76 717.45 231.96C717.143 232.147 716.903 232.413 716.73 232.76C716.557 233.107 716.47 233.5 716.47 233.94V240H713.67ZM733.648 240.08C733.315 240.08 733.015 240 732.748 239.84C732.495 239.68 732.288 239.467 732.128 239.2C731.968 238.933 731.888 238.64 731.888 238.32C731.888 238 731.968 237.707 732.128 237.44C732.288 237.173 732.495 236.96 732.748 236.8C733.015 236.64 733.315 236.56 733.648 236.56C733.982 236.56 734.275 236.64 734.528 236.8C734.795 236.96 735.008 237.173 735.168 237.44C735.328 237.707 735.408 238 735.408 238.32C735.408 238.64 735.328 238.933 735.168 239.2C735.008 239.467 734.795 239.68 734.528 239.84C734.275 240 733.982 240.08 733.648 240.08ZM742.066 240.3C741.306 240.3 740.599 240.167 739.946 239.9C739.306 239.62 738.746 239.233 738.266 238.74C737.799 238.247 737.433 237.667 737.166 237C736.899 236.32 736.766 235.587 736.766 234.8C736.766 234 736.899 233.26 737.166 232.58C737.446 231.887 737.826 231.287 738.306 230.78C738.799 230.26 739.373 229.86 740.026 229.58C740.679 229.287 741.386 229.14 742.146 229.14C742.906 229.14 743.606 229.287 744.246 229.58C744.886 229.86 745.426 230.26 745.866 230.78C746.319 231.3 746.633 231.907 746.806 232.6L744.146 233.12C743.946 232.667 743.666 232.313 743.306 232.06C742.946 231.793 742.539 231.66 742.086 231.66C741.606 231.66 741.179 231.793 740.806 232.06C740.446 232.327 740.159 232.7 739.946 233.18C739.733 233.647 739.626 234.173 739.626 234.76C739.626 235.347 739.726 235.867 739.926 236.32C740.139 236.773 740.433 237.133 740.806 237.4C741.179 237.653 741.606 237.78 742.086 237.78C742.566 237.78 742.999 237.653 743.386 237.4C743.773 237.147 744.059 236.787 744.246 236.32L746.906 236.84C746.733 237.547 746.406 238.16 745.926 238.68C745.459 239.2 744.893 239.6 744.226 239.88C743.559 240.16 742.839 240.3 742.066 240.3ZM753.555 240.3C752.768 240.3 752.041 240.16 751.375 239.88C750.708 239.6 750.128 239.213 749.635 238.72C749.141 238.213 748.755 237.62 748.475 236.94C748.208 236.26 748.075 235.52 748.075 234.72C748.075 233.92 748.215 233.187 748.495 232.52C748.775 231.84 749.161 231.247 749.655 230.74C750.161 230.233 750.748 229.84 751.415 229.56C752.095 229.28 752.835 229.14 753.635 229.14C754.421 229.14 755.148 229.28 755.815 229.56C756.481 229.84 757.061 230.233 757.555 230.74C758.048 231.233 758.428 231.82 758.695 232.5C758.975 233.167 759.115 233.9 759.115 234.7C759.115 235.5 758.975 236.24 758.695 236.92C758.415 237.6 758.021 238.193 757.515 238.7C757.021 239.207 756.435 239.6 755.755 239.88C755.088 240.16 754.355 240.3 753.555 240.3ZM753.595 237.78C754.101 237.78 754.555 237.647 754.955 237.38C755.355 237.113 755.668 236.753 755.895 236.3C756.135 235.833 756.255 235.307 756.255 234.72C756.255 234.133 756.135 233.613 755.895 233.16C755.668 232.693 755.355 232.327 754.955 232.06C754.555 231.793 754.101 231.66 753.595 231.66C753.088 231.66 752.635 231.793 752.235 232.06C751.835 232.327 751.515 232.693 751.275 233.16C751.048 233.613 750.935 234.133 750.935 234.72C750.935 235.307 751.048 235.833 751.275 236.3C751.515 236.753 751.835 237.113 752.235 237.38C752.635 237.647 753.088 237.78 753.595 237.78ZM760.955 240V229.44H763.535L763.615 230.78C763.922 230.273 764.335 229.873 764.855 229.58C765.375 229.287 765.962 229.14 766.615 229.14C767.322 229.14 767.949 229.313 768.495 229.66C769.055 230.007 769.489 230.487 769.795 231.1C770.115 230.513 770.575 230.04 771.175 229.68C771.789 229.32 772.489 229.14 773.275 229.14C774.062 229.14 774.742 229.327 775.315 229.7C775.889 230.06 776.329 230.58 776.635 231.26C776.955 231.94 777.115 232.74 777.115 233.66V240H774.315V234.02C774.315 233.287 774.155 232.713 773.835 232.3C773.515 231.873 773.069 231.66 772.495 231.66C772.095 231.66 771.735 231.76 771.415 231.96C771.109 232.147 770.869 232.413 770.695 232.76C770.522 233.107 770.435 233.5 770.435 233.94V240H767.635V234.02C767.635 233.287 767.475 232.713 767.155 232.3C766.835 231.873 766.389 231.66 765.815 231.66C765.415 231.66 765.055 231.76 764.735 231.96C764.429 232.147 764.189 232.413 764.015 232.76C763.842 233.107 763.755 233.5 763.755 233.94V240H760.955ZM778.494 242.1L784.974 224.94H786.474L779.994 242.1H778.494Z" fill="white" fill-opacity="0.5"/>
<path d="M639.329 271.36C638.673 271.36 638.073 271.264 637.529 271.072C636.985 270.88 636.505 270.608 636.089 270.256C635.689 269.888 635.377 269.464 635.153 268.984C634.929 268.504 634.817 267.976 634.817 267.4C634.817 266.6 635.033 265.896 635.465 265.288C635.897 264.68 636.505 264.208 637.289 263.872C638.073 263.52 638.985 263.344 640.025 263.344C640.553 263.344 641.049 263.392 641.513 263.488C641.993 263.584 642.457 263.72 642.905 263.896V263.152C642.905 262.432 642.697 261.848 642.281 261.4C641.881 260.952 641.329 260.728 640.625 260.728C640.097 260.728 639.617 260.864 639.185 261.136C638.753 261.392 638.449 261.76 638.273 262.24L635.273 261.64C635.449 260.904 635.793 260.264 636.305 259.72C636.833 259.16 637.473 258.728 638.225 258.424C638.977 258.12 639.793 257.968 640.673 257.968C641.489 257.968 642.233 258.096 642.905 258.352C643.577 258.608 644.153 258.976 644.633 259.456C645.129 259.936 645.505 260.504 645.761 261.16C646.033 261.8 646.169 262.52 646.169 263.32V271H643.169L643.073 269.512C642.737 270.056 642.249 270.504 641.609 270.856C640.969 271.192 640.209 271.36 639.329 271.36ZM638.129 267.232C638.129 267.68 638.313 268.048 638.681 268.336C639.049 268.624 639.537 268.768 640.145 268.768C640.673 268.768 641.145 268.656 641.561 268.432C641.977 268.208 642.305 267.904 642.545 267.52C642.785 267.12 642.905 266.68 642.905 266.2V266.08C642.553 265.936 642.177 265.824 641.777 265.744C641.377 265.648 640.977 265.6 640.577 265.6C639.825 265.6 639.225 265.752 638.777 266.056C638.345 266.344 638.129 266.736 638.129 267.232ZM648.847 271V253.096H652.207V271H648.847ZM654.486 271V268.768L660.63 261.04H654.654V258.328H664.806V260.56L658.638 268.288H665.214V271H654.486ZM673.199 271.36C672.255 271.36 671.383 271.2 670.583 270.88C669.799 270.544 669.119 270.08 668.543 269.488C667.967 268.88 667.519 268.168 667.199 267.352C666.879 266.52 666.719 265.616 666.719 264.64C666.719 263.696 666.879 262.816 667.199 262C667.519 261.184 667.959 260.48 668.519 259.888C669.095 259.28 669.767 258.808 670.535 258.472C671.303 258.136 672.135 257.968 673.031 257.968C673.959 257.968 674.799 258.128 675.551 258.448C676.319 258.768 676.975 259.224 677.519 259.816C678.063 260.408 678.479 261.112 678.767 261.928C679.071 262.744 679.223 263.656 679.223 264.664V265.504H670.127C670.271 266.448 670.615 267.192 671.159 267.736C671.703 268.264 672.391 268.528 673.223 268.528C673.799 268.528 674.319 268.392 674.783 268.12C675.263 267.848 675.655 267.456 675.959 266.944L678.959 267.904C678.671 268.624 678.239 269.24 677.663 269.752C677.087 270.264 676.415 270.664 675.647 270.952C674.879 271.224 674.063 271.36 673.199 271.36ZM673.031 260.56C672.295 260.56 671.671 260.8 671.159 261.28C670.663 261.76 670.335 262.416 670.175 263.248H675.767C675.639 262.416 675.327 261.76 674.831 261.28C674.351 260.8 673.751 260.56 673.031 260.56ZM685.22 271.36C684.564 271.36 683.964 271.264 683.42 271.072C682.876 270.88 682.396 270.608 681.98 270.256C681.58 269.888 681.268 269.464 681.044 268.984C680.82 268.504 680.708 267.976 680.708 267.4C680.708 266.6 680.924 265.896 681.356 265.288C681.788 264.68 682.396 264.208 683.18 263.872C683.964 263.52 684.876 263.344 685.916 263.344C686.444 263.344 686.94 263.392 687.404 263.488C687.884 263.584 688.348 263.72 688.796 263.896V263.152C688.796 262.432 688.588 261.848 688.172 261.4C687.772 260.952 687.22 260.728 686.516 260.728C685.988 260.728 685.508 260.864 685.076 261.136C684.644 261.392 684.34 261.76 684.164 262.24L681.164 261.64C681.34 260.904 681.684 260.264 682.196 259.72C682.724 259.16 683.364 258.728 684.116 258.424C684.868 258.12 685.684 257.968 686.564 257.968C687.38 257.968 688.124 258.096 688.796 258.352C689.468 258.608 690.044 258.976 690.524 259.456C691.02 259.936 691.396 260.504 691.652 261.16C691.924 261.8 692.06 262.52 692.06 263.32V271H689.06L688.964 269.512C688.628 270.056 688.14 270.504 687.5 270.856C686.86 271.192 686.1 271.36 685.22 271.36ZM684.02 267.232C684.02 267.68 684.204 268.048 684.572 268.336C684.94 268.624 685.428 268.768 686.036 268.768C686.564 268.768 687.036 268.656 687.452 268.432C687.868 268.208 688.196 267.904 688.436 267.52C688.676 267.12 688.796 266.68 688.796 266.2V266.08C688.444 265.936 688.068 265.824 687.668 265.744C687.268 265.648 686.868 265.6 686.468 265.6C685.716 265.6 685.116 265.752 684.668 266.056C684.236 266.344 684.02 266.736 684.02 267.232ZM694.738 271V258.328H697.834L697.954 260.248C698.274 259.576 698.706 259.064 699.25 258.712C699.794 258.344 700.434 258.16 701.17 258.16C701.394 258.16 701.618 258.184 701.842 258.232C702.066 258.264 702.266 258.312 702.442 258.376L702.082 261.688C701.906 261.624 701.722 261.584 701.53 261.568C701.354 261.536 701.17 261.52 700.978 261.52C700.05 261.52 699.338 261.808 698.842 262.384C698.346 262.944 698.098 263.744 698.098 264.784V271H694.738ZM707.908 271.36C707.252 271.36 706.652 271.264 706.108 271.072C705.564 270.88 705.084 270.608 704.668 270.256C704.268 269.888 703.956 269.464 703.732 268.984C703.508 268.504 703.396 267.976 703.396 267.4C703.396 266.6 703.612 265.896 704.044 265.288C704.476 264.68 705.084 264.208 705.868 263.872C706.652 263.52 707.564 263.344 708.604 263.344C709.132 263.344 709.628 263.392 710.092 263.488C710.572 263.584 711.036 263.72 711.484 263.896V263.152C711.484 262.432 711.276 261.848 710.86 261.4C710.46 260.952 709.908 260.728 709.204 260.728C708.676 260.728 708.196 260.864 707.764 261.136C707.332 261.392 707.028 261.76 706.852 262.24L703.852 261.64C704.028 260.904 704.372 260.264 704.884 259.72C705.412 259.16 706.052 258.728 706.804 258.424C707.556 258.12 708.372 257.968 709.252 257.968C710.068 257.968 710.812 258.096 711.484 258.352C712.156 258.608 712.732 258.976 713.212 259.456C713.708 259.936 714.084 260.504 714.34 261.16C714.612 261.8 714.748 262.52 714.748 263.32V271H711.748L711.652 269.512C711.316 270.056 710.828 270.504 710.188 270.856C709.548 271.192 708.788 271.36 707.908 271.36ZM706.708 267.232C706.708 267.68 706.892 268.048 707.26 268.336C707.628 268.624 708.116 268.768 708.724 268.768C709.252 268.768 709.724 268.656 710.14 268.432C710.556 268.208 710.884 267.904 711.124 267.52C711.364 267.12 711.484 266.68 711.484 266.2V266.08C711.132 265.936 710.756 265.824 710.356 265.744C709.956 265.648 709.556 265.6 709.156 265.6C708.404 265.6 707.804 265.752 707.356 266.056C706.924 266.344 706.708 266.736 706.708 267.232ZM718.251 271V261.04H716.091V258.328H718.251V257.608C718.251 256.92 718.363 256.288 718.587 255.712C718.827 255.12 719.155 254.616 719.571 254.2C720.003 253.768 720.507 253.44 721.083 253.216C721.675 252.976 722.315 252.856 723.003 252.856C723.531 252.856 724.003 252.92 724.419 253.048C724.851 253.176 725.219 253.32 725.523 253.48L724.851 256.048C724.659 255.952 724.435 255.872 724.179 255.808C723.939 255.728 723.707 255.688 723.483 255.688C722.843 255.688 722.371 255.88 722.067 256.264C721.763 256.632 721.611 257.152 721.611 257.824V258.328H724.971V261.04H721.611V271H718.251ZM730.408 271.36C729.752 271.36 729.152 271.264 728.608 271.072C728.064 270.88 727.584 270.608 727.168 270.256C726.768 269.888 726.456 269.464 726.232 268.984C726.008 268.504 725.896 267.976 725.896 267.4C725.896 266.6 726.112 265.896 726.544 265.288C726.976 264.68 727.584 264.208 728.368 263.872C729.152 263.52 730.064 263.344 731.104 263.344C731.632 263.344 732.128 263.392 732.592 263.488C733.072 263.584 733.536 263.72 733.984 263.896V263.152C733.984 262.432 733.776 261.848 733.36 261.4C732.96 260.952 732.408 260.728 731.704 260.728C731.176 260.728 730.696 260.864 730.264 261.136C729.832 261.392 729.528 261.76 729.352 262.24L726.352 261.64C726.528 260.904 726.872 260.264 727.384 259.72C727.912 259.16 728.552 258.728 729.304 258.424C730.056 258.12 730.872 257.968 731.752 257.968C732.568 257.968 733.312 258.096 733.984 258.352C734.656 258.608 735.232 258.976 735.712 259.456C736.208 259.936 736.584 260.504 736.84 261.16C737.112 261.8 737.248 262.52 737.248 263.32V271H734.248L734.152 269.512C733.816 270.056 733.328 270.504 732.688 270.856C732.048 271.192 731.288 271.36 730.408 271.36ZM729.208 267.232C729.208 267.68 729.392 268.048 729.76 268.336C730.128 268.624 730.616 268.768 731.224 268.768C731.752 268.768 732.224 268.656 732.64 268.432C733.056 268.208 733.384 267.904 733.624 267.52C733.864 267.12 733.984 266.68 733.984 266.2V266.08C733.632 265.936 733.256 265.824 732.856 265.744C732.456 265.648 732.056 265.6 731.656 265.6C730.904 265.6 730.304 265.752 729.856 266.056C729.424 266.344 729.208 266.736 729.208 267.232ZM744.999 271.36C744.119 271.36 743.359 271.192 742.719 270.856C742.095 270.504 741.607 270 741.255 269.344C740.919 268.688 740.751 267.888 740.751 266.944V261.04H738.591V258.328H740.751V254.008H744.111V258.328H747.567V261.04H744.111V266.536C744.111 267.144 744.239 267.616 744.495 267.952C744.751 268.272 745.143 268.432 745.671 268.432C745.943 268.432 746.231 268.392 746.535 268.312C746.855 268.232 747.159 268.128 747.447 268L748.047 270.52C747.631 270.776 747.167 270.976 746.655 271.12C746.143 271.28 745.591 271.36 744.999 271.36Z" fill="white"/>
<path d="M634.073 242.62H778.235V243.88H634.073V242.62Z" fill="white" fill-opacity="0.5"/>
<path d="M778.234 242.62H786.734V243.88H778.234V242.62Z" fill="white" fill-opacity="0.5"/>
<path d="M634.073 274.144H748.671V275.656H634.073V274.144Z" fill="white"/>
</g>
<a href="https://www.instagram.com/alzearafat/">
<rect fill="black" fill-opacity="0" y="-0.0200005" width="152.66" height="26.04"/>
</a>
<a href="https://www.instagram.com/alzearafat/">
<rect fill="black" fill-opacity="0" y="26.944" width="114.598" height="31.248"/>
</a>
<g opacity="0.5">
<path d="M594.785 234.25C599.605 234.25 600.176 234.269 602.08 234.355C604.135 234.449 606.041 234.86 607.508 236.326C608.975 237.791 609.386 239.696 609.48 241.749C609.567 243.65 609.586 244.221 609.586 249.037C609.586 253.854 609.567 254.423 609.48 256.326C609.386 258.379 608.975 260.283 607.508 261.749C606.041 263.214 604.134 263.625 602.08 263.719C600.177 263.806 599.606 263.825 594.785 263.825C589.964 263.825 589.393 263.806 587.49 263.719C585.435 263.626 583.529 263.215 582.062 261.749C580.595 260.283 580.184 258.379 580.09 256.326C580.003 254.423 579.985 253.852 579.985 249.037C579.985 244.221 580.004 243.65 580.091 241.748C580.184 239.695 580.595 237.791 582.063 236.325C583.53 234.86 585.436 234.449 587.491 234.355C589.394 234.268 589.965 234.25 594.785 234.25ZM594.785 231C589.882 231 589.268 231.021 587.342 231.109C584.408 231.242 581.831 231.96 579.762 234.027C577.694 236.094 576.975 238.668 576.841 241.6C576.753 243.524 576.732 244.138 576.732 249.037C576.732 253.935 576.753 254.549 576.841 256.473C576.975 259.404 577.693 261.979 579.762 264.047C581.83 266.113 584.407 266.832 587.342 266.965C589.268 267.053 589.882 267.073 594.785 267.073C599.688 267.073 600.302 267.053 602.228 266.965C605.161 266.831 607.739 266.113 609.808 264.046C611.877 261.98 612.596 259.405 612.73 256.473C612.817 254.549 612.838 253.935 612.838 249.037C612.838 244.138 612.817 243.524 612.729 241.6C612.595 238.669 611.877 236.094 609.808 234.027C607.74 231.96 605.163 231.242 602.228 231.108C600.302 231.021 599.688 231 594.785 231Z" fill="white"/>
<path d="M594.785 239.775C589.665 239.775 585.515 243.922 585.515 249.037C585.515 254.152 589.665 258.299 594.785 258.299C599.905 258.299 604.055 254.152 604.055 249.037C604.055 243.922 599.905 239.775 594.785 239.775ZM594.785 255.049C591.462 255.049 588.767 252.357 588.767 249.037C588.767 245.716 591.462 243.024 594.785 243.024C598.108 243.024 600.803 245.716 600.803 249.037C600.803 252.357 598.108 255.049 594.785 255.049Z" fill="white"/>
<path d="M604.422 241.573C605.618 241.573 606.588 240.604 606.588 239.408C606.588 238.213 605.618 237.244 604.422 237.244C603.225 237.244 602.255 238.213 602.255 239.408C602.255 240.604 603.225 241.573 604.422 241.573Z" fill="white"/>
</g>
<g filter="url(#filter2_d_135_73)">
<path d="M22.2 247.4C21.2667 247.4 20.4267 247.26 19.68 246.98C18.9333 246.687 18.2933 246.273 17.76 245.74C17.2267 245.193 16.8133 244.547 16.52 243.8C16.24 243.04 16.1 242.193 16.1 241.26V232.8H19.08V241.12C19.08 241.84 19.2067 242.467 19.46 243C19.7133 243.533 20.0733 243.947 20.54 244.24C21.02 244.52 21.58 244.66 22.22 244.66C22.86 244.66 23.4133 244.52 23.88 244.24C24.3467 243.947 24.7067 243.533 24.96 243C25.2267 242.467 25.36 241.84 25.36 241.12V232.8H28.34V241.26C28.34 242.193 28.1933 243.04 27.9 243.8C27.62 244.547 27.2067 245.193 26.66 245.74C26.1267 246.273 25.48 246.687 24.72 246.98C23.9733 247.26 23.1333 247.4 22.2 247.4ZM30.7336 247V232.8H33.7136V247H30.7336ZM40.9595 247.3C40.1995 247.3 39.4995 247.2 38.8595 247C38.2195 246.813 37.6662 246.54 37.1995 246.18C36.7462 245.807 36.3929 245.373 36.1395 244.88C35.8862 244.387 35.7595 243.84 35.7595 243.24C35.7595 242.427 35.9595 241.72 36.3595 241.12C36.7595 240.52 37.3062 240.073 37.9995 239.78C37.4262 239.487 36.9795 239.08 36.6595 238.56C36.3529 238.04 36.1995 237.44 36.1995 236.76C36.1995 236.2 36.3195 235.687 36.5595 235.22C36.7995 234.74 37.1329 234.333 37.5595 234C37.9995 233.653 38.5062 233.387 39.0795 233.2C39.6662 233 40.3062 232.9 40.9995 232.9C41.6929 232.9 42.3262 232.993 42.8995 233.18C43.4729 233.367 43.9729 233.633 44.3995 233.98C44.8262 234.313 45.1529 234.713 45.3795 235.18C45.6195 235.647 45.7395 236.153 45.7395 236.7C45.7395 237.38 45.5862 237.987 45.2795 238.52C44.9729 239.04 44.5329 239.453 43.9595 239.76C44.6662 240.027 45.2129 240.46 45.5995 241.06C45.9862 241.647 46.1795 242.347 46.1795 243.16C46.1795 243.76 46.0529 244.313 45.7995 244.82C45.5462 245.327 45.1862 245.767 44.7195 246.14C44.2529 246.513 43.6995 246.8 43.0595 247C42.4195 247.2 41.7195 247.3 40.9595 247.3ZM40.9795 238.74C41.3662 238.74 41.7062 238.667 41.9995 238.52C42.2929 238.36 42.5262 238.153 42.6995 237.9C42.8729 237.647 42.9595 237.353 42.9595 237.02C42.9595 236.7 42.8729 236.413 42.6995 236.16C42.5262 235.907 42.2929 235.707 41.9995 235.56C41.7062 235.413 41.3662 235.34 40.9795 235.34C40.5929 235.34 40.2462 235.413 39.9395 235.56C39.6462 235.707 39.4129 235.907 39.2395 236.16C39.0662 236.413 38.9795 236.7 38.9795 237.02C38.9795 237.353 39.0662 237.647 39.2395 237.9C39.4129 238.153 39.6462 238.36 39.9395 238.52C40.2462 238.667 40.5929 238.74 40.9795 238.74ZM40.9795 244.86C41.4462 244.86 41.8529 244.78 42.1995 244.62C42.5595 244.46 42.8329 244.247 43.0195 243.98C43.2195 243.7 43.3195 243.373 43.3195 243C43.3195 242.627 43.2195 242.3 43.0195 242.02C42.8329 241.727 42.5595 241.5 42.1995 241.34C41.8529 241.18 41.4462 241.1 40.9795 241.1C40.5129 241.1 40.0995 241.18 39.7395 241.34C39.3795 241.5 39.0995 241.727 38.8995 242.02C38.7129 242.3 38.6195 242.627 38.6195 243C38.6195 243.373 38.7195 243.7 38.9195 243.98C39.1195 244.247 39.3929 244.46 39.7395 244.62C40.0995 244.78 40.5129 244.86 40.9795 244.86ZM49.6336 247.08C49.3003 247.08 49.0003 247 48.7336 246.84C48.4803 246.68 48.2736 246.467 48.1136 246.2C47.9536 245.933 47.8736 245.64 47.8736 245.32C47.8736 245 47.9536 244.707 48.1136 244.44C48.2736 244.173 48.4803 243.96 48.7336 243.8C49.0003 243.64 49.3003 243.56 49.6336 243.56C49.9669 243.56 50.2603 243.64 50.5136 243.8C50.7803 243.96 50.9936 244.173 51.1536 244.44C51.3136 244.707 51.3936 245 51.3936 245.32C51.3936 245.64 51.3136 245.933 51.1536 246.2C50.9936 246.467 50.7803 246.68 50.5136 246.84C50.2603 247 49.9669 247.08 49.6336 247.08ZM53.4442 247V236.44H56.0242L56.1042 237.8C56.4109 237.293 56.8309 236.893 57.3642 236.6C57.9109 236.293 58.5309 236.14 59.2242 236.14C59.9976 236.14 60.6709 236.327 61.2442 236.7C61.8309 237.06 62.2842 237.58 62.6042 238.26C62.9242 238.94 63.0842 239.74 63.0842 240.66V247H60.2842V241.02C60.2842 240.287 60.1176 239.713 59.7842 239.3C59.4509 238.873 58.9909 238.66 58.4042 238.66C57.9776 238.66 57.6042 238.76 57.2842 238.96C56.9642 239.147 56.7109 239.413 56.5242 239.76C56.3376 240.107 56.2442 240.5 56.2442 240.94V247H53.4442ZM70.3192 247.3C69.5326 247.3 68.8059 247.167 68.1392 246.9C67.4859 246.62 66.9192 246.233 66.4392 245.74C65.9592 245.233 65.5859 244.64 65.3192 243.96C65.0526 243.267 64.9192 242.513 64.9192 241.7C64.9192 240.913 65.0526 240.18 65.3192 239.5C65.5859 238.82 65.9526 238.233 66.4192 237.74C66.8992 237.233 67.4592 236.84 68.0992 236.56C68.7392 236.28 69.4326 236.14 70.1792 236.14C70.9526 236.14 71.6526 236.273 72.2792 236.54C72.9192 236.807 73.4659 237.187 73.9192 237.68C74.3726 238.173 74.7192 238.76 74.9592 239.44C75.2126 240.12 75.3392 240.88 75.3392 241.72V242.42H67.7592C67.8792 243.207 68.1659 243.827 68.6192 244.28C69.0726 244.72 69.6459 244.94 70.3392 244.94C70.8192 244.94 71.2526 244.827 71.6392 244.6C72.0392 244.373 72.3659 244.047 72.6192 243.62L75.1192 244.42C74.8792 245.02 74.5192 245.533 74.0392 245.96C73.5592 246.387 72.9992 246.72 72.3592 246.96C71.7192 247.187 71.0392 247.3 70.3192 247.3ZM70.1792 238.3C69.5659 238.3 69.0459 238.5 68.6192 238.9C68.2059 239.3 67.9326 239.847 67.7992 240.54H72.4592C72.3526 239.847 72.0926 239.3 71.6792 238.9C71.2792 238.5 70.7792 238.3 70.1792 238.3ZM81.5398 247.3C80.8065 247.3 80.1732 247.16 79.6398 246.88C79.1198 246.587 78.7132 246.167 78.4198 245.62C78.1398 245.073 77.9998 244.407 77.9998 243.62V238.7H76.1998V236.44H77.9998V232.84H80.7998V236.44H83.6798V238.7H80.7998V243.28C80.7998 243.787 80.9065 244.18 81.1198 244.46C81.3332 244.727 81.6598 244.86 82.0998 244.86C82.3265 244.86 82.5665 244.827 82.8198 244.76C83.0865 244.693 83.3398 244.607 83.5798 244.5L84.0798 246.6C83.7332 246.813 83.3465 246.98 82.9198 247.1C82.4932 247.233 82.0332 247.3 81.5398 247.3ZM84.8694 249.1L91.3494 231.94H92.8494L86.3694 249.1H84.8694Z" fill="white" fill-opacity="0.5"/>
<path d="M16.12 273V258.08H18.86V266.74L22.78 262.44H26.06L21.66 267.12L26.54 273H23L18.86 267.74V273H16.12ZM32.3058 273.3C31.3458 273.3 30.5058 273.1 29.7858 272.7C29.0791 272.287 28.5258 271.707 28.1258 270.96C27.7391 270.2 27.5458 269.307 27.5458 268.28V262.44H30.3458V268.34C30.3458 269.1 30.5258 269.7 30.8858 270.14C31.2458 270.567 31.7324 270.78 32.3458 270.78C32.9591 270.78 33.4458 270.567 33.8058 270.14C34.1658 269.7 34.3458 269.1 34.3458 268.34V262.44H37.1458V268.28C37.1458 269.04 37.0324 269.727 36.8058 270.34C36.5791 270.953 36.2524 271.48 35.8258 271.92C35.3991 272.36 34.8858 272.7 34.2858 272.94C33.6991 273.18 33.0391 273.3 32.3058 273.3ZM39.3817 273V258.08H42.1817V263.78C42.5551 263.273 43.0217 262.873 43.5817 262.58C44.1551 262.287 44.7817 262.14 45.4617 262.14C46.1551 262.14 46.7951 262.28 47.3817 262.56C47.9684 262.84 48.4817 263.233 48.9217 263.74C49.3617 264.233 49.7017 264.813 49.9417 265.48C50.1951 266.147 50.3217 266.873 50.3217 267.66C50.3217 268.46 50.1951 269.2 49.9417 269.88C49.6884 270.56 49.3351 271.16 48.8817 271.68C48.4284 272.187 47.8951 272.587 47.2817 272.88C46.6684 273.16 46.0084 273.3 45.3017 273.3C44.6084 273.3 43.9817 273.153 43.4217 272.86C42.8617 272.567 42.4017 272.153 42.0417 271.62L41.9617 273H39.3817ZM44.8017 270.78C45.3084 270.78 45.7617 270.647 46.1617 270.38C46.5617 270.113 46.8751 269.753 47.1017 269.3C47.3417 268.833 47.4617 268.307 47.4617 267.72C47.4617 267.133 47.3417 266.613 47.1017 266.16C46.8751 265.693 46.5617 265.327 46.1617 265.06C45.7617 264.793 45.3084 264.66 44.8017 264.66C44.2951 264.66 43.8417 264.793 43.4417 265.06C43.0417 265.327 42.7217 265.693 42.4817 266.16C42.2551 266.613 42.1417 267.133 42.1417 267.72C42.1417 268.307 42.2551 268.833 42.4817 269.3C42.7217 269.753 43.0417 270.113 43.4417 270.38C43.8417 270.647 44.2951 270.78 44.8017 270.78ZM55.1552 259.58C55.1552 259.887 55.0818 260.16 54.9352 260.4C54.8018 260.64 54.6085 260.833 54.3552 260.98C54.1152 261.113 53.8485 261.18 53.5552 261.18C53.2618 261.18 52.9885 261.113 52.7352 260.98C52.4952 260.833 52.3018 260.64 52.1552 260.4C52.0218 260.16 51.9552 259.887 51.9552 259.58C51.9552 259.273 52.0218 259 52.1552 258.76C52.3018 258.52 52.4952 258.333 52.7352 258.2C52.9885 258.053 53.2618 257.98 53.5552 257.98C53.8485 257.98 54.1152 258.053 54.3552 258.2C54.6085 258.333 54.8018 258.52 54.9352 258.76C55.0818 259 55.1552 259.273 55.1552 259.58ZM52.1552 273V262.44H54.9552V273H52.1552ZM57.1942 273V258.08H59.9342V266.74L63.8542 262.44H67.1342L62.7342 267.12L67.6142 273H64.0742L59.9342 267.74V273H57.1942ZM73.2489 273.3C72.4622 273.3 71.7356 273.167 71.0689 272.9C70.4156 272.62 69.8489 272.233 69.3689 271.74C68.8889 271.233 68.5156 270.64 68.2489 269.96C67.9822 269.267 67.8489 268.513 67.8489 267.7C67.8489 266.913 67.9822 266.18 68.2489 265.5C68.5156 264.82 68.8822 264.233 69.3489 263.74C69.8289 263.233 70.3889 262.84 71.0289 262.56C71.6689 262.28 72.3622 262.14 73.1089 262.14C73.8822 262.14 74.5822 262.273 75.2089 262.54C75.8489 262.807 76.3956 263.187 76.8489 263.68C77.3022 264.173 77.6489 264.76 77.8889 265.44C78.1422 266.12 78.2689 266.88 78.2689 267.72V268.42H70.6889C70.8089 269.207 71.0956 269.827 71.5489 270.28C72.0022 270.72 72.5756 270.94 73.2689 270.94C73.7489 270.94 74.1822 270.827 74.5689 270.6C74.9689 270.373 75.2956 270.047 75.5489 269.62L78.0489 270.42C77.8089 271.02 77.4489 271.533 76.9689 271.96C76.4889 272.387 75.9289 272.72 75.2889 272.96C74.6489 273.187 73.9689 273.3 73.2489 273.3ZM73.1089 264.3C72.4956 264.3 71.9756 264.5 71.5489 264.9C71.1356 265.3 70.8622 265.847 70.7289 266.54H75.3889C75.2822 265.847 75.0222 265.3 74.6089 264.9C74.2089 264.5 73.7089 264.3 73.1089 264.3ZM80.0067 273V258.08H82.8067V273H80.0067ZM84.8058 268.72V266.28H90.4658V268.72H84.8058ZM96.2677 273.3C95.521 273.3 94.841 273.18 94.2277 272.94C93.6277 272.7 93.1143 272.36 92.6877 271.92C92.2743 271.48 91.9877 270.96 91.8277 270.36L94.3477 269.82C94.481 270.233 94.721 270.56 95.0677 270.8C95.4143 271.04 95.8277 271.16 96.3077 271.16C96.761 271.16 97.1343 271.06 97.4277 270.86C97.721 270.66 97.8677 270.387 97.8677 270.04C97.8677 269.747 97.7343 269.507 97.4677 269.32C97.2143 269.12 96.7877 268.967 96.1877 268.86L95.6277 268.76C94.481 268.56 93.6077 268.187 93.0077 267.64C92.421 267.093 92.1277 266.4 92.1277 265.56C92.1277 264.893 92.301 264.307 92.6477 263.8C92.9943 263.28 93.4743 262.873 94.0877 262.58C94.701 262.287 95.4077 262.14 96.2077 262.14C96.9143 262.14 97.5543 262.26 98.1277 262.5C98.7143 262.727 99.201 263.053 99.5877 263.48C99.9743 263.907 100.241 264.42 100.388 265.02L97.8877 265.54C97.7543 265.14 97.5343 264.827 97.2277 264.6C96.9343 264.373 96.5877 264.26 96.1877 264.26C95.7743 264.26 95.4343 264.36 95.1677 264.56C94.901 264.76 94.7677 265.013 94.7677 265.32C94.7677 265.587 94.8943 265.813 95.1477 266C95.4143 266.173 95.861 266.313 96.4877 266.42L97.0477 266.52C98.181 266.72 99.0477 267.1 99.6477 267.66C100.248 268.207 100.548 268.907 100.548 269.76C100.548 270.28 100.441 270.753 100.228 271.18C100.028 271.607 99.7343 271.98 99.3477 272.3C98.961 272.62 98.5077 272.867 97.9877 273.04C97.4677 273.213 96.8943 273.3 96.2677 273.3ZM106.696 273.3C105.963 273.3 105.329 273.16 104.796 272.88C104.276 272.587 103.869 272.167 103.576 271.62C103.296 271.073 103.156 270.407 103.156 269.62V264.7H101.356V262.44H103.156V258.84H105.956V262.44H108.836V264.7H105.956V269.28C105.956 269.787 106.063 270.18 106.276 270.46C106.489 270.727 106.816 270.86 107.256 270.86C107.483 270.86 107.723 270.827 107.976 270.76C108.243 270.693 108.496 270.607 108.736 270.5L109.236 272.6C108.889 272.813 108.503 272.98 108.076 273.1C107.649 273.233 107.189 273.3 106.696 273.3ZM115.646 273.3C114.686 273.3 113.846 273.1 113.126 272.7C112.419 272.287 111.866 271.707 111.466 270.96C111.079 270.2 110.886 269.307 110.886 268.28V262.44H113.686V268.34C113.686 269.1 113.866 269.7 114.226 270.14C114.586 270.567 115.072 270.78 115.686 270.78C116.299 270.78 116.786 270.567 117.146 270.14C117.506 269.7 117.686 269.1 117.686 268.34V262.44H120.486V268.28C120.486 269.04 120.372 269.727 120.146 270.34C119.919 270.953 119.592 271.48 119.166 271.92C118.739 272.36 118.226 272.7 117.626 272.94C117.039 273.18 116.379 273.3 115.646 273.3ZM127.162 273.3C126.482 273.3 125.848 273.16 125.262 272.88C124.675 272.6 124.162 272.213 123.722 271.72C123.282 271.213 122.935 270.627 122.682 269.96C122.442 269.293 122.322 268.567 122.322 267.78C122.322 266.98 122.448 266.24 122.702 265.56C122.955 264.88 123.308 264.287 123.762 263.78C124.215 263.26 124.742 262.86 125.342 262.58C125.955 262.287 126.615 262.14 127.322 262.14C127.975 262.14 128.568 262.273 129.102 262.54C129.648 262.793 130.102 263.153 130.462 263.62V258.08H133.262V273H130.682L130.602 271.46C130.228 272.033 129.742 272.487 129.142 272.82C128.555 273.14 127.895 273.3 127.162 273.3ZM127.842 270.78C128.348 270.78 128.802 270.647 129.202 270.38C129.602 270.113 129.915 269.753 130.142 269.3C130.382 268.833 130.502 268.307 130.502 267.72C130.502 267.133 130.382 266.613 130.142 266.16C129.915 265.693 129.602 265.327 129.202 265.06C128.802 264.793 128.348 264.66 127.842 264.66C127.335 264.66 126.882 264.793 126.482 265.06C126.082 265.327 125.762 265.693 125.522 266.16C125.295 266.613 125.182 267.133 125.182 267.72C125.182 268.307 125.295 268.833 125.522 269.3C125.762 269.753 126.082 270.113 126.482 270.38C126.882 270.647 127.335 270.78 127.842 270.78ZM138.495 259.58C138.495 259.887 138.422 260.16 138.275 260.4C138.142 260.64 137.948 260.833 137.695 260.98C137.455 261.113 137.188 261.18 136.895 261.18C136.602 261.18 136.328 261.113 136.075 260.98C135.835 260.833 135.642 260.64 135.495 260.4C135.362 260.16 135.295 259.887 135.295 259.58C135.295 259.273 135.362 259 135.495 258.76C135.642 258.52 135.835 258.333 136.075 258.2C136.328 258.053 136.602 257.98 136.895 257.98C137.188 257.98 137.455 258.053 137.695 258.2C137.948 258.333 138.142 258.52 138.275 258.76C138.422 259 138.495 259.273 138.495 259.58ZM135.495 273V262.44H138.295V273H135.495ZM145.614 273.3C144.827 273.3 144.101 273.16 143.434 272.88C142.767 272.6 142.187 272.213 141.694 271.72C141.201 271.213 140.814 270.62 140.534 269.94C140.267 269.26 140.134 268.52 140.134 267.72C140.134 266.92 140.274 266.187 140.554 265.52C140.834 264.84 141.221 264.247 141.714 263.74C142.221 263.233 142.807 262.84 143.474 262.56C144.154 262.28 144.894 262.14 145.694 262.14C146.481 262.14 147.207 262.28 147.874 262.56C148.541 262.84 149.121 263.233 149.614 263.74C150.107 264.233 150.487 264.82 150.754 265.5C151.034 266.167 151.174 266.9 151.174 267.7C151.174 268.5 151.034 269.24 150.754 269.92C150.474 270.6 150.081 271.193 149.574 271.7C149.081 272.207 148.494 272.6 147.814 272.88C147.147 273.16 146.414 273.3 145.614 273.3ZM145.654 270.78C146.161 270.78 146.614 270.647 147.014 270.38C147.414 270.113 147.727 269.753 147.954 269.3C148.194 268.833 148.314 268.307 148.314 267.72C148.314 267.133 148.194 266.613 147.954 266.16C147.727 265.693 147.414 265.327 147.014 265.06C146.614 264.793 146.161 264.66 145.654 264.66C145.147 264.66 144.694 264.793 144.294 265.06C143.894 265.327 143.574 265.693 143.334 266.16C143.107 266.613 142.994 267.133 142.994 267.72C142.994 268.307 143.107 268.833 143.334 269.3C143.574 269.753 143.894 270.113 144.294 270.38C144.694 270.647 145.147 270.78 145.654 270.78Z" fill="white"/>
<path d="M15 249.62H84.5998V250.88H15V249.62Z" fill="white" fill-opacity="0.5"/>
<path d="M84.6094 249.62H93.1094V250.88H84.6094V249.62Z" fill="white" fill-opacity="0.5"/>
<path d="M15 275.62H151.894V276.88H15V275.62Z" fill="white"/>
</g>
<a href="https://ui8.net/users/kubikel-studio">
<rect fill="black" fill-opacity="0" y="-0.0200005" width="78.1094" height="26.04"/>
</a>
<a href="https://ui8.net/users/kubikel-studio">
<rect fill="black" fill-opacity="0" y="25.98" width="136.894" height="26.04"/>
</a>
<path opacity="0.5" d="M42.3059 143.497C44.826 142.126 48.909 142.124 51.4342 143.497L73.0178 155.225C75.5379 156.596 77.5819 160.027 77.5819 162.886V185.909C77.5819 188.77 75.543 192.196 73.0178 193.569L51.4342 205.297C48.9141 206.667 44.8311 206.671 42.3059 205.297L20.7223 193.569C18.2022 192.198 16.1582 188.767 16.1582 185.909V162.886C16.1582 160.025 18.1971 156.599 20.7223 155.225L42.3059 143.497Z" fill="white"/>
<path d="M76.7257 171.338C84.7335 171.338 91.2251 164.77 91.2251 156.669C91.2251 148.567 84.7335 142 76.7257 142C68.7179 142 62.2263 148.567 62.2263 156.669C62.2263 164.77 68.7179 171.338 76.7257 171.338Z" fill="#C1BFC2"/>
<path d="M55.7642 181.97V166.646C55.7642 165.259 56.8152 164.161 58.1427 164.161C59.4701 164.161 60.5194 165.259 60.5194 166.646V181.972C60.5194 183.358 59.4701 184.455 58.1427 184.455C56.8152 184.455 55.7642 183.358 55.7642 181.97ZM52.0532 174.416C52.0532 181.261 48.378 184.617 42.5751 184.617C36.7689 184.617 33.22 181.228 33.22 174.577V166.646C33.22 165.259 34.2693 164.161 35.5967 164.161C36.9242 164.161 37.9752 165.259 37.9752 166.646V174.449C37.9752 178.129 39.7326 180.033 42.6366 180.033C45.5371 180.033 47.2979 178.192 47.2979 174.609V166.648C47.2979 165.259 48.3473 164.161 49.6747 164.161C51.0021 164.161 52.0532 165.259 52.0532 166.646V174.416Z" fill="white"/>
<path d="M76.7288 162.456C74.2804 162.456 72.4633 161.13 72.4633 159.108V159.074C72.4633 157.666 73.0792 156.838 74.248 156.275C73.3948 155.728 72.842 154.981 72.842 153.739V153.704C72.842 151.933 74.3913 150.523 76.7288 150.523C79.0663 150.523 80.6155 151.916 80.6155 153.706V153.74C80.6155 154.981 80.0627 155.728 79.2096 156.275C80.3306 156.889 80.9943 157.634 80.9943 159.009V159.044C80.9943 161.195 79.1772 162.456 76.7288 162.456ZM76.7288 155.43C77.6928 155.43 78.3087 154.833 78.3087 154.02V153.986C78.3087 153.275 77.7235 152.629 76.7288 152.629C75.7341 152.629 75.1488 153.259 75.1488 153.97V154.004C75.1488 154.816 75.7648 155.43 76.7288 155.43ZM76.7288 160.351C77.93 160.351 78.6398 159.72 78.6398 158.909V158.876C78.6398 157.981 77.8344 157.451 76.7288 157.451C75.6232 157.451 74.8178 157.981 74.8178 158.876V158.911C74.8178 159.705 75.5276 160.351 76.7288 160.351Z" fill="#6F6879"/>
<defs>
<filter id="filter0_d_135_73" x="305.818" y="208.94" width="170.062" height="78.42" filterUnits="userSpaceOnUse" color-interpolation-filters="sRGB">
<feFlood flood-opacity="0" result="BackgroundImageFix"/>
<feColorMatrix in="SourceAlpha" type="matrix" values="0 0 0 0 0 0 0 0 0 0 0 0 0 0 0 0 0 0 127 0" result="hardAlpha"/>
<feOffset/>
<feGaussianBlur stdDeviation="8"/>
<feColorMatrix type="matrix" values="0 0 0 0 1 0 0 0 0 1 0 0 0 0 1 0 0 0 0.1 0"/>
<feBlend mode="normal" in2="BackgroundImageFix" result="effect1_dropShadow_135_73"/>
<feBlend mode="normal" in="SourceGraphic" in2="effect1_dropShadow_135_73" result="shape"/>
</filter>
<filter id="filter1_d_135_73" x="618.818" y="208.94" width="183.656" height="78.42" filterUnits="userSpaceOnUse" color-interpolation-filters="sRGB">
<feFlood flood-opacity="0" result="BackgroundImageFix"/>
<feColorMatrix in="SourceAlpha" type="matrix" values="0 0 0 0 0 0 0 0 0 0 0 0 0 0 0 0 0 0 127 0" result="hardAlpha"/>
<feOffset/>
<feGaussianBlur stdDeviation="8"/>
<feColorMatrix type="matrix" values="0 0 0 0 1 0 0 0 0 1 0 0 0 0 1 0 0 0 0.1 0"/>
<feBlend mode="normal" in2="BackgroundImageFix" result="effect1_dropShadow_135_73"/>
<feBlend mode="normal" in="SourceGraphic" in2="effect1_dropShadow_135_73" result="shape"/>
</filter>
<filter id="filter2_d_135_73" x="0.100006" y="215.94" width="167.074" height="73.36" filterUnits="userSpaceOnUse" color-interpolation-filters="sRGB">
<feFlood flood-opacity="0" result="BackgroundImageFix"/>
<feColorMatrix in="SourceAlpha" type="matrix" values="0 0 0 0 0 0 0 0 0 0 0 0 0 0 0 0 0 0 127 0" result="hardAlpha"/>
<feOffset/>
<feGaussianBlur stdDeviation="8"/>
<feColorMatrix type="matrix" values="0 0 0 0 1 0 0 0 0 1 0 0 0 0 1 0 0 0 0.1 0"/>
<feBlend mode="normal" in2="BackgroundImageFix" result="effect1_dropShadow_135_73"/>
<feBlend mode="normal" in="SourceGraphic" in2="effect1_dropShadow_135_73" result="shape"/>
</filter>
</defs>
</svg>
