{"asset":{"version":"2.0","generator":"Blockbench 4.7.1 glTF exporter"},"scenes":[{"nodes":[7],"name":"blockbench_export"}],"scene":0,"nodes":[{"name":"sphere","mesh":0},{"name":"cloudbone","children":[0]},{"name":"sphere","mesh":1},{"name":"moonbone","children":[2]},{"name":"sphere","mesh":2},{"name":"earthbone","children":[4]},{"translation":[0,6.125,0],"name":"animroot","children":[1,3,5]},{"children":[6]}],"bufferViews":[{"buffer":0,"byteOffset":0,"byteLength":33744,"target":34962,"byteStride":12},{"buffer":0,"byteOffset":33744,"byteLength":33744,"target":34962,"byteStride":12},{"buffer":0,"byteOffset":67488,"byteLength":22496,"target":34962,"byteStride":8},{"buffer":0,"byteOffset":89984,"byteLength":8208,"target":34963},{"buffer":0,"byteOffset":98192,"byteLength":33744,"target":34962,"byteStride":12},{"buffer":0,"byteOffset":131936,"byteLength":33744,"target":34962,"byteStride":12},{"buffer":0,"byteOffset":165680,"byteLength":22496,"target":34962,"byteStride":8},{"buffer":0,"byteOffset":188176,"byteLength":8208,"target":34963},{"buffer":0,"byteOffset":196384,"byteLength":33744,"target":34962,"byteStride":12},{"buffer":0,"byteOffset":230128,"byteLength":33744,"target":34962,"byteStride":12},{"buffer":0,"byteOffset":263872,"byteLength":22496,"target":34962,"byteStride":8},{"buffer":0,"byteOffset":286368,"byteLength":8208,"target":34963},{"buffer":0,"byteOffset":294576,"byteLength":4},{"buffer":0,"byteOffset":294580,"byteLength":16},{"buffer":0,"byteOffset":294596,"byteLength":1780},{"buffer":0,"byteOffset":296376,"byteLength":7120},{"buffer":0,"byteOffset":303496,"byteLength":1780},{"buffer":0,"byteOffset":305276,"byteLength":7120},{"buffer":0,"byteOffset":312396,"byteLength":1772},{"buffer":0,"byteOffset":314168,"byteLength":5316},{"buffer":0,"byteOffset":319484,"byteLength":1780},{"buffer":0,"byteOffset":321264,"byteLength":7120}],"buffers":[{"byteLength":328384,"uri":"data:application/octet-stream;base64,"}],"accessors":[{"bufferView":0,"componentType":5126,"count":2812,"max":[6.393750190734863,6.393750190734863,6.371912002563477],"min":[-6.393750190734863,-6.393750190734863,-6.371912002563477],"type":"VEC3"},{"bufferView":1,"componentType":5126,"count":2812,"max":[0.9965844750404358,0.9965844750404358,1],"min":[-0.9965844750404358,-0.9965844750404358,-1],"type":"VEC3"},{"bufferView":2,"componentType":5126,"count":2812,"max":[0.5174140930175781,0.4878004789352417],"min":[0,0],"type":"VEC2"},{"bufferView":3,"componentType":5123,"count":4104,"max":[2811],"min":[0],"type":"SCALAR"},{"bufferView":4,"componentType":5126,"count":2812,"max":[0.9300000071525574,0.9300000071525574,0.9268235564231873],"min":[-0.9300000071525574,-0.9300000071525574,-0.9268235564231873],"type":"VEC3"},{"bufferView":5,"componentType":5126,"count":2812,"max":[0.9965844750404358,0.9965844750404358,1],"min":[-0.9965844750404358,-0.9965844750404358,-1],"type":"VEC3"},{"bufferView":6,"componentType":5126,"count":2812,"max":[0.6237413287162781,0.5412124395370483],"min":[0,0],"type":"VEC2"},{"bufferView":7,"componentType":5123,"count":4104,"max":[2811],"min":[0],"type":"SCALAR"},{"bufferView":8,"componentType":5126,"count":2812,"max":[5.8125,5.8125,5.792647361755371],"min":[-5.8125,-5.8125,-5.792647361755371],"type":"VEC3"},{"bufferView":9,"componentType":5126,"count":2812,"max":[0.9965844750404358,0.9965844750404358,1],"min":[-0.9965844750404358,-0.9965844750404358,-1],"type":"VEC3"},{"bufferView":10,"componentType":5126,"count":2812,"max":[0.9445691108703613,0.8735120892524719],"min":[0,0],"type":"VEC2"},{"bufferView":11,"componentType":5123,"count":4104,"max":[2811],"min":[0],"type":"SCALAR"},{"bufferView":12,"componentType":5126,"count":1,"max":[0],"min":[0],"type":"SCALAR"},{"bufferView":13,"componentType":5126,"count":1,"max":[-0.19509032368659973,0,0,0.9807852506637573],"min":[-0.19509032368659973,0,0,0.9807852506637573],"type":"VEC4"},{"bufferView":14,"componentType":5126,"count":445,"max":[24],"min":[0],"type":"SCALAR"},{"bufferView":15,"componentType":5126,"count":445,"max":[0.49999678134918213,0.49999678134918213,0,1],"min":[-0.49999678134918213,-0.49999678134918213,-0.9999535083770752,0.0000464799850306008],"type":"VEC4"},{"bufferView":16,"componentType":5126,"count":445,"max":[24],"min":[0],"type":"SCALAR"},{"bufferView":17,"componentType":5126,"count":445,"max":[0.49999678134918213,0.49999678134918213,0.9999535083770752,1],"min":[-0.49999678134918213,-0.49999678134918213,0,0.0000464799850306008],"type":"VEC4"},{"bufferView":18,"componentType":5126,"count":443,"max":[24],"min":[0],"type":"SCALAR"},{"bufferView":19,"componentType":5126,"count":443,"max":[27.75,10.18366813659668,26.110698699951172],"min":[-27.75,-12.365527153015137,-25.527324676513672],"type":"VEC3"},{"bufferView":20,"componentType":5126,"count":445,"max":[24],"min":[0],"type":"SCALAR"},{"bufferView":21,"componentType":5126,"count":445,"max":[0,0,0,1],"min":[0,-0.9999767541885376,0,-1],"type":"VEC4"}],"materials":[{"pbrMetallicRoughness":{"metallicFactor":0,"roughnessFactor":1,"baseColorTexture":{"index":0}},"alphaMode":"MASK","alphaCutoff":0.05,"doubleSided":true},{"pbrMetallicRoughness":{"metallicFactor":0,"roughnessFactor":1,"baseColorTexture":{"index":1}},"alphaMode":"MASK","alphaCutoff":0.05,"doubleSided":true},{"pbrMetallicRoughness":{"metallicFactor":0,"roughnessFactor":1,"baseColorTexture":{"index":2}},"alphaMode":"MASK","alphaCutoff":0.05,"doubleSided":true}],"textures":[{"sampler":0,"source":0,"name":"Earth Clouds.png"},{"sampler":1,"source":1,"name":"Earth Moon.png"},{"sampler":2,"source":2,"name":"Planet Earth.png"}],"samplers":[{"magFilter":9728,"minFilter":9728,"wrapS":33071,"wrapT":33071},{"magFilter":9728,"minFilter":9728,"wrapS":33071,"wrapT":33071},{"magFilter":9728,"minFilter":9728,"wrapS":33071,"wrapT":33071}],"images":[{"mimeType":"image/png","uri":"data:image/png;base64,"},{"mimeType":"image/png","uri":"data:image/png;base64,"},{"mimeType":"image/png","uri":"data:image/png;base64,"}],"meshes":[{"primitives":[{"mode":4,"attributes":{"POSITION":0,"NORMAL":1,"TEXCOORD_0":2},"indices":3,"material":0}]},{"primitives":[{"mode":4,"attributes":{"POSITION":4,"NORMAL":5,"TEXCOORD_0":6},"indices":7,"material":1}]},{"primitives":[{"mode":4,"attributes":{"POSITION":8,"NORMAL":9,"TEXCOORD_0":10},"indices":11,"material":2}]}],"animations":[{"name":"earth_action","samplers":[{"input":12,"output":13,"interpolation":"LINEAR"},{"input":14,"output":15,"interpolation":"LINEAR"},{"input":16,"output":17,"interpolation":"LINEAR"},{"input":18,"output":19,"interpolation":"LINEAR"},{"input":20,"output":21,"interpolation":"LINEAR"}],"channels":[{"sampler":0,"target":{"node":6,"path":"rotation"}},{"sampler":1,"target":{"node":1,"path":"rotation"}},{"sampler":2,"target":{"node":3,"path":"rotation"}},{"sampler":3,"target":{"node":3,"path":"translation"}},{"sampler":4,"target":{"node":5,"path":"rotation"}}]}]}