<svg xmlns="http://www.w3.org/2000/svg" xmlns:xlink="http://www.w3.org/1999/xlink" version="1.1" x="0px" y="0px" viewBox="0 0 68 85" enable-background="new 0 0 68 68" xml:space="preserve"><g><path d="M34,2C16.35,2,2,16.36,2,34c0,17.65,14.35,32,32,32c17.64,0,32-14.35,32-32C66,16.36,51.64,2,34,2z M33.9957,59.6441   c-14.1387,0-25.6406-11.502-25.6406-25.6406S19.8571,8.3624,33.9957,8.3624s25.6416,11.5024,25.6416,25.6411   S48.1344,59.6441,33.9957,59.6441z"/><path d="M36.4313,32.6959c0.8809-2.1064,2.5664-3.4863,4.1973-4.8213l0.5566-0.458c1.2061-1,2.6426-2.5928,2.6426-4.499   c0-1.4531-0.6172-2.8428-1.6924-3.8115c-1.0918-0.9834-2.5088-1.4414-3.9951-1.2852c-2.2646,0.2373-4.1582,2.0371-4.502,4.2813   c-0.1748,1.1445,0.0186,2.2715,0.5586,3.2607c1.0313,1.8828,1.1279,4.1465,0.2676,6.209c-0.626,1.498-2.1367,2.4209-3.75,2.2715   c-1.4043-0.1201-2.6484-0.9609-3.3291-2.249c-1.8746-3.5519-6.9365-3.6667-8.9863-0.0801   c-1.7374,3.0389,0.1364,6.8244,3.333,7.4961c4.1945,0.8803,4.6452-2.8662,9.2158-2.8662c0.2002,0,0.4004,0.0088,0.6006,0.0264   c1.1992,0.1035,2.2783,0.7871,2.8857,1.8281c0.7939,1.3604,0.7793,3.0469-0.0352,4.2979c-0.5381,0.8271-0.8232,1.793-0.8232,2.793   c0,2.8262,2.2998,5.125,5.126,5.125s5.126-2.2988,5.126-5.125c0-2.1299-1.3369-4.0605-3.3271-4.8027   c-1.7559-0.6543-3.2393-1.9014-4.1768-3.5088c-0.6172-1.0615-0.6396-2.2939-0.0674-3.6641L36.4313,32.6959z"/><path d="M33.9957,10.3624c-13.0352,0-23.6406,10.605-23.6406,23.6411c0,13.0352,10.6055,23.6406,23.6406,23.6406   c13.0361,0,23.6416-10.6055,23.6416-23.6406C57.6373,20.9673,47.0319,10.3624,33.9957,10.3624z M38.0524,35.7711   c0.7051,1.209,1.8232,2.1484,3.1475,2.6426c2.7676,1.0322,4.6279,3.7148,4.6279,6.6758c0,3.9287-3.1963,7.125-7.126,7.125   s-7.126-3.1963-7.126-7.125c0-1.3887,0.3965-2.7314,1.1475-3.8848c0.4053-0.623,0.3994-1.4854-0.0166-2.1982   c-0.2803-0.4805-0.7783-0.7959-1.332-0.8438c-4.037-0.373-4.6193,3.9506-10.0537,2.8047   c-4.4911-0.9429-7.0863-6.1971-4.6582-10.4453c2.8768-5.0331,9.9335-4.7082,12.4922,0.1387   c0.3604,0.6836,1.0078,1.1279,1.7305,1.1904c0.75,0.0566,1.4443-0.3574,1.7334-1.0498c0.626-1.499,0.5615-3.1318-0.1758-4.4785   c-0.7539-1.3779-1.0234-2.9414-0.7813-4.5234c0.4795-3.1279,3.1172-5.6377,6.2715-5.9673c2.0605-0.2153,4.0234,0.4209,5.541,1.7876   c1.4961,1.3477,2.3535,3.2793,2.3535,5.2979c0,2.123-1.1641,4.2109-3.3652,6.0381l-0.5664,0.4658   c-1.5078,1.2344-2.9316,2.4004-3.6191,4.0459l-0.1748,0.418C37.6764,34.9019,37.8522,35.4273,38.0524,35.7711z"/></g><text x="0" y="83" fill="#000000" font-size="5px" font-weight="bold" font-family="'Helvetica Neue', Helvetica, Arial-Unicode, Arial, Sans-serif">Created by Vectors Point</text><text x="0" y="88" fill="#000000" font-size="5px" font-weight="bold" font-family="'Helvetica Neue', Helvetica, Arial-Unicode, Arial, Sans-serif">from the Noun Project</text></svg>