<svg xmlns="http://www.w3.org/2000/svg" xmlns:xlink="http://www.w3.org/1999/xlink" version="1.1" x="0px" y="0px" viewBox="0 0 100 125" style="enable-background:new 0 0 100 100;" xml:space="preserve"><g><path d="M50,10.9c-21.6,0-39.1,17.5-39.1,39.1S28.4,89.1,50,89.1c21.6,0,39.1-17.5,39.1-39.1S71.6,10.9,50,10.9z M17.7,63.9   c-1.8-4.3-2.9-9-2.9-13.9s1-9.6,2.9-13.9V63.9z M33.4,80.9c-2.5-1.3-4.8-3-6.8-4.8h6.8V80.9z M77.1,72.4V52h8   C84.7,59.7,81.7,66.8,77.1,72.4z M82.2,36H40.9c-1.1,0-2,0.9-2,2s0.9,2,2,2h42.8c0.8,2.6,1.3,5.3,1.4,8.1h-10c-1.1,0-2,0.9-2,2   v26.5c-0.9,0.8-1.9,1.6-2.9,2.3H50.4V61.1c0-1.1-0.9-2-2-2H35c-0.7-1.5-2.2-2.5-4-2.5c-2.5,0-4.5,2-4.5,4.5s2,4.5,4.5,4.5   c1.8,0,3.3-1,4-2.5h11.4v17.7c0,1.1,0.9,2,2,2h14.5c-4,1.6-8.3,2.5-12.9,2.5c-4.5,0-8.7-0.8-12.7-2.4v-8.6c0-1.1-0.9-2-2-2H22.8   c-0.4-0.4-0.7-0.9-1.1-1.4V29.2c1.4-1.9,3-3.7,4.8-5.3V50c0,1.1,0.9,2,2,2h31.2v10.6c-2.3,0.8-4,3-4,5.6c0,3.3,2.7,6,6,6   c3.3,0,6-2.7,6-6c0-2.6-1.7-4.8-4-5.6V50c0-1.1-0.9-2-2-2H30.5V20.8c2.4-1.6,5.1-3,7.9-4h23.1c4.8,1.7,9.1,4.3,12.7,7.7H47.4   c-0.7-1.5-2.2-2.5-4-2.5c-2.5,0-4.5,2-4.5,4.5c0,2.5,2,4.5,4.5,4.5c1.8,0,3.3-1,4-2.5h30.4C79.6,30.8,81,33.3,82.2,36z"/></g><text x="0" y="115" fill="#000000" font-size="5px" font-weight="bold" font-family="'Helvetica Neue', Helvetica, Arial-Unicode, Arial, Sans-serif">Created by mikicon</text><text x="0" y="120" fill="#000000" font-size="5px" font-weight="bold" font-family="'Helvetica Neue', Helvetica, Arial-Unicode, Arial, Sans-serif">from the Noun Project</text></svg>