<svg xmlns="http://www.w3.org/2000/svg" viewBox="0 0 128 160" x="0px" y="0px">
	<path d="M116.46,58.26a52.46,52.46,0,0,0-104.92,0V69.71a52.46,52.46,0,0,0,104.92,0V58.26ZM64,8.83A49.46,49.46,0,1,1,14.54,58.29,49.52,49.52,0,0,1,64,8.83ZM96.48,107a49,49,0,0,1-14,8.59v-8.22a52.43,52.43,0,0,0,14-7.94Zm-65-7.57a52.43,52.43,0,0,0,14,7.94v8.22a49,49,0,0,1-14-8.59Zm17,9a52.5,52.5,0,0,0,14,2.3v8.43a49.27,49.27,0,0,1-14-2.45Zm17,2.3a52.5,52.5,0,0,0,14-2.3v8.28a49.27,49.27,0,0,1-14,2.45ZM15.14,77.34A52.58,52.58,0,0,0,28.52,96.88v7.27A49.51,49.51,0,0,1,15.14,77.34Zm84.34,26.81V96.88a52.69,52.69,0,0,0,13.38-19.54A49.51,49.51,0,0,1,99.48,104.15Z"
	  fill="red" />
	<path d="M64,102.72A44.46,44.46,0,1,0,19.52,58.26,44.52,44.52,0,0,0,64,102.72ZM64,16.8A41.46,41.46,0,1,1,22.52,58.26,41.51,41.51,0,0,1,64,16.8Z"
	  fill="red" />
	<path d="M42.5,56,63.25,68a1.51,1.51,0,0,0,1.5,0L85.5,56A1.5,1.5,0,0,0,86,53.87l-20.74-31h0a1.49,1.49,0,0,0-2.49,0h0L42,53.87A1.5,1.5,0,0,0,42.5,56Zm23,8.13V28.61L82.61,54.2Zm-3-35.52V64.13L45.39,54.2Z"
	  fill="red" />
	<path d="M84,62,64,74.48,44.05,62a1.5,1.5,0,0,0-2,2.13L62.77,93.71a1.52,1.52,0,0,0,2.46,0L86,64.15A1.5,1.5,0,0,0,84,62ZM62.5,77.08v11L48.73,68.48Zm3,11v-11l13.77-8.6Z"
	  fill="red" />
	<text x="0" y="143" fill="#000000" font-size="5px" font-weight="bold" font-family="'Helvetica Neue', Helvetica, Arial-Unicode, Arial, Sans-serif">Created by Icon From Us</text>
	<text x="0" y="148" fill="#ffffff" font-size="5px" font-weight="bold" font-family="'Helvetica Neue', Helvetica, Arial-Unicode, Arial, Sans-serif">from the Noun Project</text>
</svg>