<svg xmlns="http://www.w3.org/2000/svg" xmlns:xlink="http://www.w3.org/1999/xlink" xmlns:serif="http://www.serif.com/" viewBox="0 0 48 60" version="1.1" xml:space="preserve" style="" x="0px" y="0px" fill-rule="evenodd" clip-rule="evenodd" stroke-linejoin="round" stroke-miterlimit="2"><g><path d="M24,1c-12.694,0 -23,10.306 -23,23c0,12.694 10.306,23 23,23c12.694,0 23,-10.306 23,-23c0,-12.694 -10.306,-23 -23,-23Zm-12.707,37.121l-1.415,1.416c3.5,3.184 8.079,5.203 13.122,5.44l0,-2.003c-4.491,-0.233 -8.572,-2.029 -11.707,-4.853Zm25.414,0c-3.136,2.824 -7.216,4.62 -11.707,4.853l0,2.003c5.042,-0.237 9.622,-2.256 13.122,-5.44l-1.415,-1.416Zm6.267,-13.121c-0.233,4.491 -2.029,8.572 -4.853,11.707l1.416,1.415c3.184,-3.5 5.203,-8.079 5.44,-13.122l-2.003,0Zm-37.948,0l-2.003,0c0.237,5.042 2.256,9.622 5.44,13.122l1.416,-1.415c-2.824,-3.136 -4.62,-7.216 -4.853,-11.707Zm15.089,-1.674l-3.374,0.904c-0.533,0.143 -0.85,0.692 -0.707,1.225c0.143,0.533 0.692,0.85 1.225,0.707l2.418,-0.648l-1.658,8.29c-0.058,0.294 0.018,0.598 0.208,0.83c0.19,0.232 0.473,0.366 0.773,0.366l11,0c0.552,0 1,-0.448 1,-1c0,-0.552 -0.448,-1 -1,-1l-9.78,0l1.612,-8.063l3.623,-0.971c0.533,-0.143 0.85,-0.692 0.707,-1.225c-0.143,-0.533 -0.692,-0.85 -1.225,-0.707l-2.667,0.715l1.711,-8.553c0.108,-0.541 -0.244,-1.068 -0.785,-1.177c-0.541,-0.108 -1.068,0.244 -1.177,0.785l-1.904,9.522Zm19.422,-13.448l-1.416,1.415c2.824,3.136 4.62,7.216 4.853,11.707l2.003,0c-0.237,-5.042 -2.256,-9.622 -5.44,-13.122Zm-29.658,1.415l-1.416,-1.415c-3.184,3.5 -5.203,8.079 -5.44,13.122l2.003,0c0.233,-4.491 2.029,-8.572 4.853,-11.707Zm13.121,-8.27c-5.042,0.237 -9.622,2.256 -13.122,5.44l1.415,1.416c3.136,-2.824 7.216,-4.62 11.707,-4.853l-0,-2.003Zm2,0l-0,2.003c4.491,0.233 8.572,2.029 11.707,4.853l1.415,-1.416c-3.5,-3.184 -8.079,-5.203 -13.122,-5.44Z"/></g><text x="0" y="63" fill="#000000" font-size="5px" font-weight="bold" font-family="'Helvetica Neue', Helvetica, Arial-Unicode, Arial, Sans-serif">Created by erix subyarko</text><text x="0" y="68" fill="#000000" font-size="5px" font-weight="bold" font-family="'Helvetica Neue', Helvetica, Arial-Unicode, Arial, Sans-serif">from the Noun Project</text></svg>